<svg width="25" height="25" viewBox="0 0 25 25" fill="none" xmlns="http://www.w3.org/2000/svg">
<path d="M4.16683 6.24992H2.0835V20.8333C2.0835 21.9791 3.021 22.9166 4.16683 22.9166H18.7502V20.8333H4.16683V6.24992ZM20.8335 2.08325H8.33349C7.18766 2.08325 6.25016 3.02075 6.25016 4.16659V16.6666C6.25016 17.8124 7.18766 18.7499 8.33349 18.7499H20.8335C21.9793 18.7499 22.9168 17.8124 22.9168 16.6666V4.16659C22.9168 3.02075 21.9793 2.08325 20.8335 2.08325ZM20.8335 16.6666H8.33349V4.16659H20.8335V16.6666ZM13.5418 14.5833H15.6252V11.4583H18.7502V9.37492H15.6252V6.24992H13.5418V9.37492H10.4168V11.4583H13.5418V14.5833Z" fill="#0EAE00"/>
</svg>
