<svg width="63" height="63" viewBox="0 0 63 63" fill="none" xmlns="http://www.w3.org/2000/svg">
<g id="fluent:people-swap-20-filled">
<path id="Vector" d="M31.4996 21.2624C31.4996 23.9775 30.421 26.5815 28.5011 28.5014C26.5812 30.4213 23.9773 31.4999 21.2621 31.4999C18.547 31.4999 15.943 30.4213 14.0231 28.5014C12.1032 26.5815 11.0246 23.9775 11.0246 21.2624C11.0246 18.5472 12.1032 15.9433 14.0231 14.0234C15.943 12.1035 18.547 11.0249 21.2621 11.0249C23.9773 11.0249 26.5812 12.1035 28.5011 14.0234C30.421 15.9433 31.4996 18.5472 31.4996 21.2624ZM35.7584 36.3068L29.7356 42.3359C29.2965 42.7747 28.9482 43.2957 28.7106 43.8692C28.4729 44.4426 28.3506 45.0573 28.3506 45.678C28.3506 46.2988 28.4729 46.9134 28.7106 47.4869C28.9482 48.0604 29.2965 48.5814 29.7356 49.0202L31.7737 51.0551C29.3608 52.523 25.9871 53.5499 21.2621 53.5499C4.72461 53.5499 4.72461 40.9499 4.72461 40.9499C4.72461 39.279 5.38836 37.6766 6.56984 36.4951C7.75132 35.3136 9.35375 34.6499 11.0246 34.6499H31.4996C33.1408 34.6499 34.637 35.2799 35.7584 36.3068ZM45.6746 31.4999C47.7632 31.4999 49.7662 30.6702 51.2431 29.1934C52.7199 27.7165 53.5496 25.7135 53.5496 23.6249C53.5496 21.5363 52.7199 19.5333 51.2431 18.0564C49.7662 16.5796 47.7632 15.7499 45.6746 15.7499C43.586 15.7499 41.583 16.5796 40.1062 18.0564C38.6293 19.5333 37.7996 21.5363 37.7996 23.6249C37.7996 25.7135 38.6293 27.7165 40.1062 29.1934C41.583 30.6702 43.586 31.4999 45.6746 31.4999ZM40.4897 40.49C40.7855 40.1942 40.9516 39.7931 40.9516 39.3749C40.9516 38.9566 40.7855 38.5555 40.4897 38.2598C40.194 37.964 39.7929 37.7979 39.3746 37.7979C38.9564 37.7979 38.5553 37.964 38.2595 38.2598L31.9595 44.5598C31.8128 44.7061 31.6965 44.8799 31.6171 45.0712C31.5377 45.2626 31.4968 45.4677 31.4968 45.6749C31.4968 45.882 31.5377 46.0872 31.6171 46.2785C31.6965 46.4699 31.8128 46.6437 31.9595 46.79L38.2595 53.09C38.5553 53.3857 38.9564 53.5519 39.3746 53.5519C39.7929 53.5519 40.194 53.3857 40.4897 53.09C40.7855 52.7942 40.9516 52.3931 40.9516 51.9749C40.9516 51.5566 40.7855 51.1555 40.4897 50.8598L36.8767 47.2499H54.4726L50.8595 50.8598C50.5638 51.1555 50.3976 51.5566 50.3976 51.9749C50.3976 52.3931 50.5638 52.7942 50.8595 53.09C51.1553 53.3857 51.5564 53.5519 51.9746 53.5519C52.3929 53.5519 52.794 53.3857 53.0897 53.09L59.3897 46.79C59.5364 46.6437 59.6528 46.4699 59.7322 46.2785C59.8116 46.0872 59.8524 45.882 59.8524 45.6749C59.8524 45.4677 59.8116 45.2626 59.7322 45.0712C59.6528 44.8799 59.5364 44.7061 59.3897 44.5598L53.0897 38.2598C52.794 37.964 52.3929 37.7979 51.9746 37.7979C51.5564 37.7979 51.1553 37.964 50.8595 38.2598C50.5638 38.5555 50.3976 38.9566 50.3976 39.3749C50.3976 39.7931 50.5638 40.1942 50.8595 40.49L54.4726 44.0999H36.8767L40.4897 40.49Z" fill="url(#paint0_linear_1_198433)"/>
</g>
<defs>
<linearGradient id="paint0_linear_1_198433" x1="56" y1="26.4999" x2="2.5" y2="50.4999" gradientUnits="userSpaceOnUse">
<stop stop-color="#2C50EE"/>
<stop offset="1" stop-color="#6470FF"/>
</linearGradient>
</defs>
</svg>
