<svg width="26" height="26" viewBox="0 0 26 26" fill="none" xmlns="http://www.w3.org/2000/svg">
<g id="carbon:diagram-reference">
<path id="Vector" d="M3.25 16.25V17.875H6.97613L1.625 23.2261L2.77387 24.375L8.125 19.0239V22.75H9.75V16.25H3.25Z" fill="white"/>
<path id="Vector_2" d="M12.1875 22.75V21.125C13.9857 21.1228 15.7202 20.4591 17.0605 19.2604C18.4008 18.0617 19.2532 16.4118 19.4553 14.625H13C12.5692 14.6246 12.1561 14.4532 11.8514 14.1486C11.5468 13.8439 11.3754 13.4308 11.375 13V6.54469C9.58824 6.74679 7.93829 7.59921 6.73957 8.93953C5.54085 10.2798 4.87717 12.0143 4.875 13.8125H3.25C3.25258 11.4429 4.19504 9.17113 5.87058 7.49558C7.54613 5.82004 9.81792 4.87758 12.1875 4.875C12.403 4.875 12.6097 4.9606 12.762 5.11298C12.9144 5.26535 13 5.47201 13 5.6875V13H20.3125C20.528 13 20.7347 13.0856 20.887 13.238C21.0394 13.3903 21.125 13.597 21.125 13.8125C21.1224 16.1821 20.18 18.4539 18.5044 20.1294C16.8289 21.805 14.5571 22.7474 12.1875 22.75Z" fill="white"/>
<path id="Vector_3" d="M23.5674 11.3751H16.2459C16.0328 11.375 15.8217 11.3328 15.6248 11.2511C15.4279 11.1693 15.2491 11.0496 15.0986 10.8986C14.948 10.7477 14.8287 10.5686 14.7474 10.3715C14.6662 10.1744 14.6246 9.96324 14.625 9.75006V2.43756C14.6259 2.32973 14.648 2.22313 14.6901 2.12387C14.7323 2.02462 14.7936 1.93467 14.8706 1.85917C14.9476 1.78368 15.0388 1.72414 15.1388 1.68397C15.2389 1.64379 15.3459 1.62377 15.4538 1.62506C17.8177 1.63192 20.0829 2.57404 21.7545 4.24561C23.426 5.91718 24.3681 8.18236 24.375 10.5463C24.3767 10.6538 24.3572 10.7607 24.3174 10.8606C24.2777 10.9605 24.2186 11.0517 24.1436 11.1287C24.0685 11.2057 23.979 11.2671 23.8801 11.3094C23.7812 11.3517 23.6749 11.374 23.5674 11.3751ZM16.25 9.75006H22.7053C22.5186 8.10237 21.7784 6.56675 20.6059 5.3942C19.4333 4.22164 17.8977 3.4815 16.25 3.29475V9.75006Z" fill="white"/>
</g>
</svg>
