<svg width="55" height="55" viewBox="0 0 55 55" fill="none" xmlns="http://www.w3.org/2000/svg">
<g id="mdi:file-document-check">
<path id="Vector" d="M53.8545 38.9585L42.3962 50.4168L34.3753 42.396L37.8128 38.9585L42.3962 43.5418L50.417 35.521L53.8545 38.9585ZM13.7503 4.5835C11.2066 4.5835 9.16699 6.62308 9.16699 9.16683V45.8335C9.16699 48.3772 11.2066 50.4168 13.7503 50.4168H31.6482C30.4337 48.3314 29.792 45.9481 29.792 43.5418C29.792 42.7856 29.8607 42.0064 29.9753 41.2502H13.7503V36.6668H31.6482C32.7024 34.8335 34.1691 33.2293 35.9337 32.0835H13.7503V27.5002H41.2503V29.9752C42.0066 29.8606 42.7857 29.7918 43.542 29.7918C44.3212 29.7918 45.0774 29.8606 45.8337 29.9752V18.3335L32.0837 4.5835M29.792 8.021L42.3962 20.6252H29.792V8.021Z" fill="url(#paint0_linear_1_198402)"/>
</g>
<defs>
<linearGradient id="paint0_linear_1_198402" x1="45" y1="15.0001" x2="9" y2="40.5001" gradientUnits="userSpaceOnUse">
<stop stop-color="#2C50EE"/>
<stop offset="1" stop-color="#6470FF"/>
</linearGradient>
</defs>
</svg>
