<svg width="23" height="23" viewBox="0 0 23 23" fill="none" xmlns="http://www.w3.org/2000/svg">
<g id="emojione-monotone:money-mouth-face" clip-path="url(#clip0_1_198487)">
<path id="Vector" d="M11.5 0.71875C5.54552 0.71875 0.71875 5.54587 0.71875 11.5C0.71875 17.4541 5.54552 22.2812 11.5 22.2812C17.4541 22.2809 22.2812 17.4541 22.2812 11.5C22.2812 5.54587 17.4541 0.71875 11.5 0.71875ZM11.5007 21.5625C9.51661 21.5611 7.90697 19.982 7.90697 16.8346V15.3989C7.90697 15.208 7.94758 15.0938 8.20237 15.0938H8.46436V16.3588C8.46436 19.5496 9.65712 20.9782 11.5004 20.9792C13.3443 20.9792 14.5342 19.55 14.5349 16.358V15.0938H14.7983C15.0528 15.0938 15.0938 15.2077 15.0938 15.3989V16.8346C15.0945 19.982 13.4848 21.5611 11.5007 21.5625ZM8.75366 16.3588V15.0938H14.2456V16.358C14.2456 19.3581 13.1693 20.6623 11.5007 20.6623C9.83286 20.6612 8.75366 19.357 8.75366 16.3588ZM14.5525 20.8908C15.1412 20.2095 15.5796 19.2485 15.741 17.9515C16.9639 16.9064 17.6101 15.4405 17.6101 14.0156C17.6101 13.8385 17.4692 13.6562 17.2058 13.6562H5.79528C5.53186 13.6562 5.39062 13.8385 5.39062 14.0156C5.39062 15.4405 6.03678 16.9064 7.26045 17.9515C7.42181 19.2546 7.8642 20.2184 8.45645 20.9002C4.49219 19.614 1.61719 15.8876 1.61719 11.5C1.61719 6.05044 6.05044 1.61719 11.5 1.61719C16.9492 1.61719 21.3828 6.05044 21.3828 11.5C21.3828 15.8833 18.5107 19.6007 14.5525 20.8908Z" fill="white"/>
<path id="Vector_2" d="M6.81674 7.46024C6.81674 6.59091 8.7049 7.00922 9.34135 7.59931C9.71654 6.98335 9.53829 6.46441 9.53829 6.46441C9.53829 6.46441 8.99168 6.07808 8.18704 5.93002L8.18524 5.12214C7.52471 4.91873 6.81495 5.12214 6.81495 5.12214V5.87288C6.81495 5.87288 5.51185 6.11258 5.51185 7.4606C5.51185 9.20644 8.18632 8.86899 8.18632 9.99383C8.18632 10.8139 6.39053 10.4722 5.51185 9.8181C5.23909 10.4786 5.51185 11.0486 5.51185 11.0486C5.92843 11.2262 6.36616 11.3492 6.81423 11.4148L6.81638 12.1235C6.81638 12.1235 7.52615 12.3398 8.18668 12.1235V11.3674C8.18668 11.3674 9.7036 11.284 9.7036 9.99419C9.7036 8.31771 6.81674 8.46253 6.81674 7.46024ZM14.723 7.46024C14.723 6.59091 16.6111 7.00922 17.2476 7.59931C17.6228 6.98335 17.4445 6.46441 17.4445 6.46441C17.4445 6.46441 16.8979 6.07808 16.0933 5.93002L16.0915 5.12214C15.431 4.91873 14.7212 5.12214 14.7212 5.12214V5.87288C14.7212 5.87288 13.4181 6.11258 13.4181 7.4606C13.4181 9.20644 16.0926 8.86899 16.0926 9.99383C16.0926 10.8139 14.2968 10.4722 13.4181 9.8181C13.1453 10.4786 13.4181 11.0486 13.4181 11.0486C13.8347 11.2261 14.2724 11.3492 14.7205 11.4148L14.7226 12.1235C14.7226 12.1235 15.4324 12.3398 16.0929 12.1235V11.3674C16.0929 11.3674 17.6099 11.284 17.6099 9.99419C17.6099 8.31771 14.723 8.46253 14.723 7.46024ZM11.0434 19.6276L11.0444 20.0883C11.0444 20.0883 11.4875 20.2288 11.9008 20.0883V19.5971C11.9008 19.5971 12.8492 19.5424 12.8492 18.7044C12.8492 17.6151 11.0448 17.7089 11.0448 17.0577C11.0448 16.4928 12.2253 16.7648 12.6228 17.1483C12.8571 16.7483 12.7464 16.4105 12.7464 16.4105C12.7464 16.4105 12.4047 16.1593 11.9012 16.063L11.9005 15.5376C11.4879 15.4053 11.0441 15.5376 11.0441 15.5376V16.0256C11.0441 16.0256 10.2297 16.1816 10.2297 17.0574C10.2297 18.1923 11.9008 17.973 11.9008 18.704C11.9008 19.237 10.7785 19.0149 10.2297 18.5897C10.1285 18.8469 10.1285 19.1329 10.2297 19.3901C10.4891 19.5053 10.7627 19.5852 11.0434 19.6276Z" fill="white"/>
</g>
<defs>
<clipPath id="clip0_1_198487">
<rect width="23" height="23" fill="white"/>
</clipPath>
</defs>
</svg>
