<?xml version="1.0" encoding="UTF-8"?><svg id="Layer_1" xmlns="http://www.w3.org/2000/svg" viewBox="0 0 150 150"><defs><style>.cls-1{fill:#fff;}</style></defs><path class="cls-1" d="m74.4,7.22c.92-1.15,2.05-2.1,3.34-2.81,1.29-.71,2.7-1.15,4.17-1.3,1.46-.16,2.94-.02,4.35.4,1.41.42,2.72,1.11,3.86,2.04l36.25,29.6c1.99,1.63,3.36,3.9,3.87,6.42.51,2.52.12,5.14-1.09,7.41-3.17-.97-6.46-1.46-9.78-1.46h-3.33l3.31-3.78-19.09-15.59-15.74,19.38h-14.32l21.46-26.4-8.56-6.99-26.64,33.38h-14.22L74.4,7.22Zm28.29,95.87c-1.47,0-2.89.59-3.93,1.63-1.04,1.04-1.63,2.45-1.63,3.93s.59,2.89,1.63,3.93,2.45,1.63,3.93,1.63h11.11c1.47,0,2.89-.59,3.93-1.63s1.63-2.46,1.63-3.93-.59-2.89-1.63-3.93c-1.04-1.04-2.45-1.63-3.93-1.63h-11.11ZM19.35,53.08c0-1.47.59-2.89,1.63-3.93,1.04-1.04,2.46-1.63,3.93-1.63h6.2l8.83-11.11h-15.03c-4.42,0-8.66,1.76-11.79,4.88-3.13,3.13-4.88,7.37-4.88,11.79v66.67c0,7.37,2.93,14.43,8.14,19.64,5.21,5.21,12.28,8.14,19.64,8.14h83.34c5.89,0,11.55-2.34,15.71-6.51,4.17-4.17,6.51-9.82,6.51-15.71v-44.45c0-5.89-2.34-11.55-6.51-15.71-4.17-4.17-9.82-6.51-15.71-6.51H24.91c-1.47,0-2.89-.59-3.93-1.63-1.04-1.04-1.63-2.46-1.63-3.93Zm0,66.67v-50.95c1.73.61,3.61.94,5.56.94h94.45c2.95,0,5.77,1.17,7.86,3.25s3.25,4.91,3.25,7.86v44.45c0,2.95-1.17,5.77-3.25,7.86s-4.91,3.25-7.86,3.25H36.02c-4.42,0-8.66-1.76-11.79-4.88-3.13-3.13-4.88-7.36-4.88-11.79Z"/></svg>