<svg width="23" height="24" viewBox="0 0 23 24" fill="none" xmlns="http://www.w3.org/2000/svg">
<g id="Frame 24">
<path id="Vector" d="M22.5 4.5V7.5H18V4.5H22.5ZM0 12H4.5V19.5H0V12ZM6 4.5H10.5V19.5H6V4.5ZM21 9C21.2109 9 21.4063 9.03906 21.5859 9.11719C21.7656 9.19531 21.9219 9.30078 22.0547 9.43359C22.1875 9.56641 22.2969 9.72656 22.3828 9.91406C22.4688 10.1016 22.5078 10.2969 22.5 10.5V22.5C22.5 22.7109 22.4609 22.9062 22.3828 23.0859C22.3047 23.2656 22.1992 23.4219 22.0664 23.5547C21.9336 23.6875 21.7734 23.7969 21.5859 23.8828C21.3984 23.9688 21.2031 24.0078 21 24H13.5C13.2891 24 13.0938 23.9609 12.9141 23.8828C12.7344 23.8047 12.5781 23.6992 12.4453 23.5664C12.3125 23.4336 12.2031 23.2734 12.1172 23.0859C12.0313 22.8984 11.9922 22.7031 12 22.5V10.5C12 10.2891 12.0391 10.0938 12.1172 9.91406C12.1953 9.73438 12.3008 9.57812 12.4336 9.44531C12.5664 9.3125 12.7266 9.20312 12.9141 9.11719C13.1016 9.03125 13.2969 8.99219 13.5 9H21ZM21 10.5H13.5V22.5H21V10.5ZM15 19.5H19.5V21H15V19.5ZM16.5 7.5H12V0H16.5V7.5Z" fill="white"/>
</g>
</svg>
