<svg width="22" height="25" viewBox="0 0 22 25" fill="none" xmlns="http://www.w3.org/2000/svg">
<g id="Frame 25">
<path id="Vector" d="M19.3333 2.41667C19.9743 2.41667 20.589 2.67128 21.0422 3.12449C21.4954 3.57771 21.75 4.19239 21.75 4.83333V21.75C21.75 22.3909 21.4954 23.0056 21.0422 23.4588C20.589 23.9121 19.9743 24.1667 19.3333 24.1667H2.41667C1.77573 24.1667 1.16104 23.9121 0.707825 23.4588C0.254612 23.0056 0 22.3909 0 21.75V4.83333C0 4.19239 0.254612 3.57771 0.707825 3.12449C1.16104 2.67128 1.77573 2.41667 2.41667 2.41667H7.4675C7.975 1.015 9.30417 0 10.875 0C12.4458 0 13.775 1.015 14.2825 2.41667H19.3333ZM10.875 2.41667C10.5545 2.41667 10.2472 2.54397 10.0206 2.77058C9.79397 2.99719 9.66667 3.30453 9.66667 3.625C9.66667 3.94547 9.79397 4.25281 10.0206 4.47942C10.2472 4.70603 10.5545 4.83333 10.875 4.83333C11.1955 4.83333 11.5028 4.70603 11.7294 4.47942C11.956 4.25281 12.0833 3.94547 12.0833 3.625C12.0833 3.30453 11.956 2.99719 11.7294 2.77058C11.5028 2.54397 11.1955 2.41667 10.875 2.41667ZM4.83333 7.25V4.83333H2.41667V21.75H19.3333V4.83333H16.9167V7.25H4.83333ZM10.875 9.66667C11.5159 9.66667 12.1306 9.92128 12.5838 10.3745C13.0371 10.8277 13.2917 11.4424 13.2917 12.0833C13.2917 12.7243 13.0371 13.339 12.5838 13.7922C12.1306 14.2454 11.5159 14.5 10.875 14.5C10.2341 14.5 9.61937 14.2454 9.16616 13.7922C8.71295 13.339 8.45833 12.7243 8.45833 12.0833C8.45833 11.4424 8.71295 10.8277 9.16616 10.3745C9.61937 9.92128 10.2341 9.66667 10.875 9.66667ZM6.04167 19.3333V18.125C6.04167 16.7958 8.20458 15.7083 10.875 15.7083C13.5454 15.7083 15.7083 16.7958 15.7083 18.125V19.3333H6.04167Z" fill="white"/>
</g>
</svg>
