<svg width="56" height="56" viewBox="0 0 56 56" fill="none" xmlns="http://www.w3.org/2000/svg">
<g id="solar:money-bag-outline">
<path id="Vector" fill-rule="evenodd" clip-rule="evenodd" d="M27.879 2.9165H28.1217C30.2193 2.9165 31.967 2.9165 33.353 3.10317C34.8183 3.29917 36.1413 3.73317 37.203 4.79484C38.267 5.85884 38.701 7.18184 38.897 8.64484C39.037 9.6715 39.072 10.8942 39.0813 12.3082C40.5933 12.3572 41.942 12.4482 43.1413 12.6068C45.876 12.9755 48.0903 13.7502 49.838 15.4955C51.5833 17.2432 52.358 19.4575 52.7267 22.1922C53.0837 24.8522 53.0837 28.2472 53.0837 32.5358V32.7972C53.0837 37.0858 53.0837 40.4832 52.7267 43.1408C52.358 45.8755 51.5833 48.0898 49.838 49.8375C48.0903 51.5828 45.876 52.3575 43.1413 52.7262C40.4813 53.0832 37.0863 53.0832 32.7977 53.0832H23.203C18.9143 53.0832 15.517 53.0832 12.8593 52.7262C10.1247 52.3575 7.91033 51.5828 6.16266 49.8375C4.41733 48.0898 3.64266 45.8755 3.27399 43.1408C2.91699 40.4808 2.91699 37.0858 2.91699 32.7972V32.5358C2.91699 28.2472 2.91699 24.8498 3.27399 22.1922C3.64266 19.4575 4.41733 17.2432 6.16266 15.4955C7.91033 13.7502 10.1247 12.9755 12.8593 12.6068C14.2069 12.44 15.5619 12.3403 16.9193 12.3082C16.9287 10.8942 16.966 9.6715 17.1037 8.64484C17.2997 7.18184 17.7337 5.85884 18.7953 4.79484C19.8593 3.73317 21.1823 3.3015 22.6453 3.10317C24.0337 2.9165 25.7837 2.9165 27.879 2.9165ZM20.4217 12.2545C21.3037 12.2498 22.23 12.2498 23.203 12.2498H32.7977C33.7707 12.2498 34.697 12.2498 35.579 12.2545C35.5697 10.9245 35.537 9.92117 35.4297 9.1115C35.2827 8.03584 35.033 7.57384 34.7297 7.2705C34.4263 6.96717 33.9643 6.7175 32.8863 6.5705C31.7617 6.42117 30.2497 6.4165 28.0003 6.4165C25.751 6.4165 24.239 6.42117 23.112 6.57284C22.0363 6.7175 21.5743 6.96717 21.271 7.27284C20.9677 7.57617 20.718 8.03584 20.571 9.1115C20.4637 9.91884 20.431 10.9222 20.4217 12.2545ZM13.3237 16.0765C10.9763 16.3915 9.62299 16.9842 8.63366 17.9712C7.64899 18.9582 7.05633 20.3115 6.74133 22.6588C6.41933 25.0552 6.41466 28.2168 6.41466 32.6665C6.41466 37.1162 6.41933 40.2778 6.74133 42.6765C7.05633 45.0215 7.64899 46.3748 8.63599 47.3618C9.62299 48.3488 10.9763 48.9415 13.3237 49.2565C15.7223 49.5785 18.8817 49.5832 23.3313 49.5832H32.6647C37.1143 49.5832 40.276 49.5785 42.6747 49.2565C45.0197 48.9415 46.373 48.3488 47.36 47.3618C48.347 46.3748 48.9397 45.0215 49.2547 42.6742C49.5767 40.2778 49.5813 37.1162 49.5813 32.6665C49.5813 28.2168 49.5767 25.0575 49.2547 22.6565C48.9397 20.3115 48.347 18.9582 47.36 17.9712C46.373 16.9842 45.0197 16.3915 42.6723 16.0765C40.276 15.7545 37.1143 15.7498 32.6647 15.7498H23.3313C18.8817 15.7498 15.7247 15.7545 13.3237 16.0765ZM28.0003 21.5832C28.4645 21.5832 28.9096 21.7675 29.2378 22.0957C29.566 22.4239 29.7503 22.869 29.7503 23.3332V23.3565C32.2913 23.9958 34.417 26.0002 34.417 28.7768C34.417 29.241 34.2326 29.6861 33.9044 30.0143C33.5762 30.3425 33.1311 30.5268 32.667 30.5268C32.2029 30.5268 31.7577 30.3425 31.4296 30.0143C31.1014 29.6861 30.917 29.241 30.917 28.7768C30.917 27.8808 29.923 26.6395 28.0003 26.6395C26.0777 26.6395 25.0837 27.8808 25.0837 28.7768C25.0837 29.6728 26.0777 30.9165 28.0003 30.9165C31.232 30.9165 34.417 33.1565 34.417 36.5562C34.417 39.3328 32.2913 41.3348 29.7503 41.9765V41.9998C29.7503 42.464 29.566 42.9091 29.2378 43.2373C28.9096 43.5655 28.4645 43.7498 28.0003 43.7498C27.5362 43.7498 27.0911 43.5655 26.7629 43.2373C26.4347 42.9091 26.2503 42.464 26.2503 41.9998V41.9765C23.7093 41.3372 21.5837 39.3328 21.5837 36.5562C21.5837 36.092 21.768 35.6469 22.0962 35.3187C22.4244 34.9905 22.8695 34.8062 23.3337 34.8062C23.7978 34.8062 24.2429 34.9905 24.5711 35.3187C24.8993 35.6469 25.0837 36.092 25.0837 36.5562C25.0837 37.4522 26.0777 38.6935 28.0003 38.6935C29.923 38.6935 30.917 37.4522 30.917 36.5562C30.917 35.6602 29.923 34.4165 28.0003 34.4165C24.7687 34.4165 21.5837 32.1765 21.5837 28.7768C21.5837 26.0002 23.7093 23.9958 26.2503 23.3565V23.3332C26.2503 22.869 26.4347 22.4239 26.7629 22.0957C27.0911 21.7675 27.5362 21.5832 28.0003 21.5832Z" fill="url(#paint0_linear_1_198380)"/>
</g>
<defs>
<linearGradient id="paint0_linear_1_198380" x1="51" y1="17.4999" x2="3" y2="48.9999" gradientUnits="userSpaceOnUse">
<stop stop-color="#4C62F7"/>
<stop offset="1" stop-color="#3354EF"/>
</linearGradient>
</defs>
</svg>
