<svg width="56" height="56" viewBox="0 0 56 56" fill="none" xmlns="http://www.w3.org/2000/svg">
<g id="fluent:people-sync-28-filled">
<path id="Vector" d="M19 26C21.3869 26 23.6761 25.0518 25.364 23.364C27.0518 21.6761 28 19.387 28 17C28 14.6131 27.0518 12.3239 25.364 10.636C23.6761 8.94821 21.3869 8 19 8C16.613 8 14.3239 8.94821 12.636 10.636C10.9482 12.3239 10 14.6131 10 17C10 19.387 10.9482 21.6761 12.636 23.364C14.3239 25.0518 16.613 26 19 26ZM47 19C47 19.9193 46.8189 20.8295 46.4671 21.6788C46.1154 22.5281 45.5997 23.2997 44.9497 23.9498C44.2997 24.5998 43.528 25.1154 42.6788 25.4672C41.8295 25.819 40.9192 26 40 26C39.0807 26 38.1705 25.819 37.3212 25.4672C36.4719 25.1154 35.7003 24.5998 35.0502 23.9498C34.4002 23.2997 33.8846 22.5281 33.5328 21.6788C33.1811 20.8295 33 19.9193 33 19C33 17.1435 33.7375 15.363 35.0502 14.0503C36.363 12.7375 38.1435 12 40 12C41.8565 12 43.637 12.7375 44.9497 14.0503C46.2625 15.363 47 17.1435 47 19ZM4 34.5C4 33.3065 4.47411 32.1619 5.31802 31.318C6.16193 30.4741 7.30652 30 8.5 30H29.5C29.896 30 30.28 30.052 30.646 30.148C29.1758 31.547 28.0058 33.2306 27.207 35.0962C26.4083 36.9619 25.9976 38.9706 26 41C26 42.33 26.172 43.618 26.498 44.844C24.548 45.554 22.092 46 19 46C4 46 4 35.5 4 35.5V34.5ZM28 41C28 44.4478 29.3696 47.7544 31.8076 50.1924C34.2456 52.6304 37.5522 54 41 54C44.4478 54 47.7544 52.6304 50.1924 50.1924C52.6303 47.7544 54 44.4478 54 41C54 37.5522 52.6303 34.2456 50.1924 31.8076C47.7544 29.3697 44.4478 28 41 28C37.5522 28 34.2456 29.3697 31.8076 31.8076C29.3696 34.2456 28 37.5522 28 41ZM38.698 32.84C40.4477 32.314 42.3248 32.4027 44.0171 33.0915C45.7094 33.7803 47.1149 35.0276 48 36.626V35C48 34.7348 48.1053 34.4804 48.2929 34.2929C48.4804 34.1054 48.7348 34 49 34C49.2652 34 49.5196 34.1054 49.7071 34.2929C49.8946 34.4804 50 34.7348 50 35V39C50 39.2652 49.8946 39.5196 49.7071 39.7071C49.5196 39.8947 49.2652 40 49 40H45C44.7348 40 44.4804 39.8947 44.2929 39.7071C44.1053 39.5196 44 39.2652 44 39C44 38.7348 44.1053 38.4804 44.2929 38.2929C44.4804 38.1054 44.7348 38 45 38H46.454C46.0513 37.1197 45.4414 36.35 44.6765 35.7566C43.9117 35.1632 43.0145 34.7639 42.0617 34.5927C41.1089 34.4215 40.1288 34.4836 39.2052 34.7736C38.2816 35.0636 37.4419 35.5729 36.758 36.258C36.5694 36.4402 36.3168 36.541 36.0546 36.5387C35.7924 36.5364 35.5416 36.4312 35.3562 36.2458C35.1708 36.0604 35.0656 35.8096 35.0633 35.5474C35.061 35.2852 35.1618 35.0326 35.344 34.844C36.279 33.9084 37.4313 33.2211 38.698 32.84ZM43.302 49.16C41.5523 49.6861 39.6752 49.5973 37.9829 48.9085C36.2906 48.2197 34.8851 46.9724 34 45.374V47.002C34 47.2672 33.8946 47.5216 33.7071 47.7091C33.5196 47.8967 33.2652 48.002 33 48.002C32.7348 48.002 32.4804 47.8967 32.2929 47.7091C32.1053 47.5216 32 47.2672 32 47.002V43.002C32 42.7368 32.1053 42.4824 32.2929 42.2949C32.4804 42.1074 32.7348 42.002 33 42.002H37C37.2652 42.002 37.5196 42.1074 37.7071 42.2949C37.8946 42.4824 38 42.7368 38 43.002C38 43.2672 37.8946 43.5216 37.7071 43.7091C37.5196 43.8967 37.2652 44.002 37 44.002H35.546C35.9487 44.8823 36.5585 45.6521 37.3234 46.2454C38.0883 46.8388 38.9855 47.2381 39.9383 47.4093C40.8911 47.5805 41.8712 47.5184 42.7948 47.2284C43.7184 46.9384 44.558 46.4291 45.242 45.744C45.4306 45.5619 45.6832 45.4611 45.9454 45.4633C46.2076 45.4656 46.4584 45.5708 46.6438 45.7562C46.8292 45.9416 46.9344 46.1924 46.9367 46.4546C46.9389 46.7168 46.8381 46.9694 46.656 47.158C45.721 48.0937 44.5686 48.7829 43.302 49.164V49.16Z" fill="url(#paint0_linear_1_198391)"/>
</g>
<defs>
<linearGradient id="paint0_linear_1_198391" x1="53.9635" y1="21.8909" x2="4.07259" y2="44.2909" gradientUnits="userSpaceOnUse">
<stop stop-color="#3354EF"/>
<stop offset="0.836458" stop-color="#5C6CFC"/>
</linearGradient>
</defs>
</svg>
