<svg width="28" height="28" viewBox="0 0 28 28" fill="none" xmlns="http://www.w3.org/2000/svg">
<g id="ic:twotone-support-agent">
<path id="Vector" d="M24.4997 14.2567C24.4997 7.85167 19.5297 3.5 13.9997 3.5C8.52801 3.5 3.49967 7.75833 3.49967 14.3267C2.79967 14.7233 2.33301 15.47 2.33301 16.3333V18.6667C2.33301 19.95 3.38301 21 4.66634 21H5.83301V13.8833C5.83301 9.36833 9.48467 5.71667 13.9997 5.71667C18.5147 5.71667 22.1663 9.36833 22.1663 13.8833V22.1667H12.833V24.5H22.1663C23.4497 24.5 24.4997 23.45 24.4997 22.1667V20.7433C25.188 20.3817 25.6663 19.67 25.6663 18.83V16.1467C25.6663 15.33 25.188 14.6183 24.4997 14.2567Z" fill="white"/>
<path id="Vector_2" d="M10.4997 16.3333C11.144 16.3333 11.6663 15.811 11.6663 15.1667C11.6663 14.5223 11.144 14 10.4997 14C9.85534 14 9.33301 14.5223 9.33301 15.1667C9.33301 15.811 9.85534 16.3333 10.4997 16.3333Z" fill="white"/>
<path id="Vector_3" d="M17.4997 16.3333C18.144 16.3333 18.6663 15.811 18.6663 15.1667C18.6663 14.5223 18.144 14 17.4997 14C16.8553 14 16.333 14.5223 16.333 15.1667C16.333 15.811 16.8553 16.3333 17.4997 16.3333Z" fill="white"/>
<path id="Vector_4" d="M20.9996 12.8683C20.7214 11.2282 19.8719 9.73929 18.6014 8.66528C17.331 7.59126 15.7215 7.00137 14.0579 7C10.5229 7 6.71956 9.92833 7.02289 14.525C8.46155 13.9363 9.73218 13.0007 10.7215 11.8017C11.7108 10.6028 12.3881 9.1776 12.6929 7.65333C14.2212 10.7217 17.3596 12.8333 20.9996 12.8683Z" fill="white"/>
</g>
</svg>
