<svg width="26" height="26" viewBox="0 0 26 26" fill="none" xmlns="http://www.w3.org/2000/svg">
<path d="M14.625 21.125H21.125V22.75H14.625V21.125ZM14.625 17.875H24.375V19.5H14.625V17.875ZM14.625 14.625H24.375V16.25H14.625V14.625Z" fill="white"/>
<path d="M16.6961 9.11381L13 1.625L9.30398 9.11381L1.04004 10.3147L7.02004 16.1444L5.60791 24.375L11.375 21.3436V19.5073L7.76673 21.4045L8.62148 16.419L8.7661 15.5764L8.15429 14.9809L4.53216 11.4489L9.53798 10.7218L10.383 10.5991L10.7616 9.83288L13 5.29669L15.2385 9.83288L15.6171 10.5991L16.4621 10.7218L22.5185 11.6033L22.75 9.99375L16.6961 9.11381Z" fill="white"/>
</svg>
