<svg width="21" height="19" viewBox="0 0 21 19" fill="none" xmlns="http://www.w3.org/2000/svg">
<g id="Frame 22">
<path id="Vector" d="M1.0335 18.603C0.740678 18.603 0.49505 18.5038 0.296618 18.3053C0.098186 18.1069 -0.000685424 17.8616 3.57613e-06 17.5695V7.2345C3.57613e-06 6.94168 0.0992196 6.69605 0.297652 6.49761C0.496083 6.29918 0.741367 6.20031 1.0335 6.201H4.65075C4.94358 6.201 5.1892 6.30022 5.38764 6.49865C5.58607 6.69708 5.68494 6.94236 5.68425 7.2345V17.5695C5.68425 17.8623 5.58504 18.1079 5.3866 18.3064C5.18817 18.5048 4.94289 18.6037 4.65075 18.603H1.0335ZM8.52638 18.603C8.23355 18.603 7.98792 18.5038 7.78949 18.3053C7.59106 18.1069 7.49219 17.8616 7.49288 17.5695V1.0335C7.49288 0.740678 7.59209 0.49505 7.79052 0.296618C7.98896 0.098186 8.23424 -0.000685423 8.52638 3.57612e-06H12.1436C12.4364 3.57612e-06 12.6821 0.0992196 12.8805 0.297652C13.0789 0.496083 13.1778 0.741367 13.1771 1.0335V17.5695C13.1771 17.8623 13.0779 18.1079 12.8795 18.3064C12.681 18.5048 12.4358 18.6037 12.1436 18.603H8.52638ZM16.0192 18.603C15.7264 18.603 15.4808 18.5038 15.2824 18.3053C15.0839 18.1069 14.9851 17.8616 14.9857 17.5695V9.3015C14.9857 9.00867 15.085 8.76305 15.2834 8.56461C15.4818 8.36618 15.7271 8.26731 16.0192 8.268H19.6365C19.9293 8.268 20.1749 8.36722 20.3734 8.56565C20.5718 8.76408 20.6707 9.00936 20.67 9.3015V17.5695C20.67 17.8623 20.5708 18.1079 20.3723 18.3064C20.1739 18.5048 19.9286 18.6037 19.6365 18.603H16.0192Z" fill="white"/>
</g>
</svg>
