<svg width="52" height="52" viewBox="0 0 52 52" fill="none" xmlns="http://www.w3.org/2000/svg">
<g id="fluent:people-team-toolbox-24-filled">
<path id="Vector" d="M31.9667 21.6667C32.7836 21.6662 33.5788 21.9296 34.2339 22.4176C34.889 22.9056 35.3689 23.5922 35.6023 24.375H34.1247C32.5444 24.375 31.0289 25.0027 29.9115 26.1202C28.7941 27.2376 28.1663 28.7531 28.1663 30.3333V30.4417C26.9429 30.6914 25.8432 31.3562 25.0536 32.3235C24.2639 33.2908 23.8328 34.5013 23.833 35.75V45.2573C21.6798 44.7643 19.7575 43.5552 18.3808 41.8278C17.004 40.1003 16.2542 37.9568 16.254 35.7478V25.4583C16.254 23.3653 17.9505 21.6667 20.0457 21.6667H31.9667ZM41.708 24.375C43.2838 24.375 44.7954 24.9992 45.912 26.111C47.0287 27.2227 47.6595 28.7316 47.6663 30.3073V25.4583C47.6663 24.4527 47.2669 23.4883 46.5558 22.7772C45.8447 22.0661 44.8803 21.6667 43.8747 21.6667H36.5622C37.1948 22.4315 37.639 23.3567 37.8275 24.375H41.708ZM15.4502 21.6667C14.6698 22.6058 14.2004 23.7642 14.1068 24.9817L14.0852 25.4583V35.7478C14.0852 37.583 14.5012 39.3207 15.2422 40.872C13.9579 41.2156 12.6119 41.2592 11.3081 40.9994C10.0044 40.7397 8.77781 40.1836 7.72329 39.3741C6.66877 38.5646 5.81455 37.5235 5.22668 36.3311C4.63881 35.1388 4.33303 33.8272 4.33301 32.4978V25.4583C4.33304 24.5068 4.69088 23.59 5.33548 22.89C5.98008 22.19 6.86432 21.758 7.81267 21.6797L8.12467 21.6667H15.4502ZM25.9997 6.5C27.7236 6.5 29.3769 7.18482 30.5959 8.40381C31.8149 9.62279 32.4997 11.2761 32.4997 13C32.4997 14.7239 31.8149 16.3772 30.5959 17.5962C29.3769 18.8152 27.7236 19.5 25.9997 19.5C24.2758 19.5 22.6225 18.8152 21.4035 17.5962C20.1845 16.3772 19.4997 14.7239 19.4997 13C19.4997 11.2761 20.1845 9.62279 21.4035 8.40381C22.6225 7.18482 24.2758 6.5 25.9997 6.5ZM40.083 8.66667C41.5196 8.66667 42.8974 9.23735 43.9132 10.2532C44.929 11.269 45.4997 12.6467 45.4997 14.0833C45.4997 15.5199 44.929 16.8977 43.9132 17.9135C42.8974 18.9293 41.5196 19.5 40.083 19.5C38.6464 19.5 37.2687 18.9293 36.2528 17.9135C35.237 16.8977 34.6663 15.5199 34.6663 14.0833C34.6663 12.6467 35.237 11.269 36.2528 10.2532C37.2687 9.23735 38.6464 8.66667 40.083 8.66667ZM11.9163 8.66667C13.3529 8.66667 14.7307 9.23735 15.7465 10.2532C16.7623 11.269 17.333 12.6467 17.333 14.0833C17.333 15.5199 16.7623 16.8977 15.7465 17.9135C14.7307 18.9293 13.3529 19.5 11.9163 19.5C10.4798 19.5 9.102 18.9293 8.08618 17.9135C7.07036 16.8977 6.49967 15.5199 6.49967 14.0833C6.49967 12.6467 7.07036 11.269 8.08618 10.2532C9.102 9.23735 10.4798 8.66667 11.9163 8.66667ZM30.333 32.5H29.2497C28.3877 32.5 27.5611 32.8424 26.9516 33.4519C26.3421 34.0614 25.9997 34.888 25.9997 35.75V39H31.4163V38.4583C31.4163 38.0274 31.5875 37.614 31.8923 37.3093C32.197 37.0045 32.6104 36.8333 33.0413 36.8333C33.4723 36.8333 33.8856 37.0045 34.1904 37.3093C34.4951 37.614 34.6663 38.0274 34.6663 38.4583V39H41.1663V38.4583C41.1663 38.0274 41.3375 37.614 41.6423 37.3093C41.947 37.0045 42.3604 36.8333 42.7913 36.8333C43.2223 36.8333 43.6356 37.0045 43.9404 37.3093C44.2451 37.614 44.4163 38.0274 44.4163 38.4583V39H49.833V35.75C49.833 34.888 49.4906 34.0614 48.8811 33.4519C48.2716 32.8424 47.445 32.5 46.583 32.5H45.4997V30.3333C45.4997 29.3277 45.1002 28.3633 44.3891 27.6522C43.678 26.9411 42.7136 26.5417 41.708 26.5417H34.1247C33.1191 26.5417 32.1546 26.9411 31.4436 27.6522C30.7325 28.3633 30.333 29.3277 30.333 30.3333V32.5ZM33.583 30.3333C33.583 30.1897 33.6401 30.0519 33.7417 29.9503C33.8432 29.8487 33.981 29.7917 34.1247 29.7917H41.708C41.8517 29.7917 41.9894 29.8487 42.091 29.9503C42.1926 30.0519 42.2497 30.1897 42.2497 30.3333V32.5H33.583V30.3333ZM25.9997 46.5833V42.25H31.4163V43.875C31.4163 44.306 31.5875 44.7193 31.8923 45.024C32.197 45.3288 32.6104 45.5 33.0413 45.5C33.4723 45.5 33.8856 45.3288 34.1904 45.024C34.4951 44.7193 34.6663 44.306 34.6663 43.875V42.25H41.1663V43.875C41.1663 44.306 41.3375 44.7193 41.6423 45.024C41.947 45.3288 42.3604 45.5 42.7913 45.5C43.2223 45.5 43.6356 45.3288 43.9404 45.024C44.2451 44.7193 44.4163 44.306 44.4163 43.875V42.25H49.833V46.5833C49.833 47.4453 49.4906 48.2719 48.8811 48.8814C48.2716 49.4909 47.445 49.8333 46.583 49.8333H29.2497C28.3877 49.8333 27.5611 49.4909 26.9516 48.8814C26.3421 48.2719 25.9997 47.4453 25.9997 46.5833Z" fill="url(#paint0_linear_1_198412)"/>
</g>
<defs>
<linearGradient id="paint0_linear_1_198412" x1="47.5" y1="21" x2="6.5" y2="38.5" gradientUnits="userSpaceOnUse">
<stop stop-color="#2C50EE"/>
<stop offset="1" stop-color="#6470FF"/>
</linearGradient>
</defs>
</svg>
