<svg width="52" height="52" viewBox="0 0 52 52" fill="none" xmlns="http://www.w3.org/2000/svg">
<g id="arcticons:moneybuster" clip-path="url(#clip0_1_216745)">
<path id="Vector" d="M25.9997 49.2923C38.8633 49.2923 49.2913 38.8643 49.2913 26.0006C49.2913 13.137 38.8633 2.70898 25.9997 2.70898C13.136 2.70898 2.70801 13.137 2.70801 26.0006C2.70801 38.8643 13.136 49.2923 25.9997 49.2923Z" stroke="white" stroke-width="5" stroke-linecap="round" stroke-linejoin="round"/>
<path id="Vector_2" d="M20.4965 36.7682C21.7025 37.44 23.0717 37.7626 24.4507 37.6999H27.9174C29.4661 37.6942 30.9497 37.0756 32.0438 35.9795C33.1379 34.8833 33.7537 33.3986 33.7565 31.8499C33.7565 30.3002 33.1417 28.8139 32.0469 27.7171C30.9522 26.6203 29.467 26.0027 27.9174 25.9999H24.0824C22.5327 25.997 21.0475 25.3794 19.9528 24.2826C18.8581 23.1858 18.2432 21.6995 18.2432 20.1499C18.2432 18.6002 18.8581 17.1139 19.9528 16.0171C21.0475 14.9203 22.5327 14.3027 24.0824 14.2999H27.549C28.752 14.2603 29.9483 14.4937 31.0482 14.9824M25.9999 14.2999V11.3749M25.9999 40.6249V37.6999M9.5332 42.4665L42.4665 9.5332" stroke="white" stroke-width="4" stroke-linecap="round" stroke-linejoin="round"/>
</g>
<defs>
<clipPath id="clip0_1_216745">
<rect width="52" height="52" fill="white"/>
</clipPath>
</defs>
</svg>
