<svg width="24" height="24" viewBox="0 0 24 24" fill="none" xmlns="http://www.w3.org/2000/svg">
<g id="bell">
<path id="Icon" d="M13.559 20.1025C13.4008 20.3754 13.1736 20.6019 12.9002 20.7593C12.6269 20.9168 12.3169 20.9996 12.0015 20.9996C11.686 20.9996 11.3761 20.9168 11.1027 20.7593C10.8294 20.6019 10.6022 20.3754 10.4439 20.1025M17.4035 8.39811C17.4035 6.96541 16.8343 5.59138 15.8213 4.57831C14.8082 3.56523 13.4342 2.99609 12.0015 2.99609C10.5688 2.99609 9.19474 3.56523 8.18166 4.57831C7.16859 5.59138 6.59945 6.96541 6.59945 8.39811C6.59945 14.7005 3.89844 16.5011 3.89844 16.5011H20.1045C20.1045 16.5011 17.4035 14.7005 17.4035 8.39811Z" stroke="#1C1919" stroke-width="1.5" stroke-linecap="round" stroke-linejoin="round"/>
</g>
</svg>
