<svg width="24" height="24" viewBox="0 0 24 24" fill="none" xmlns="http://www.w3.org/2000/svg">
<g id="Icon Box">
<path id="Icon" fill-rule="evenodd" clip-rule="evenodd" d="M5.88873 2.85383C7.69767 1.64514 9.82441 1 12 1C14.9164 1.00312 17.7125 2.16305 19.7747 4.22527C21.8369 6.28749 22.9969 9.08357 23 12C23 14.1756 22.3549 16.3023 21.1462 18.1113C19.9375 19.9202 18.2195 21.3301 16.2095 22.1627C14.1995 22.9952 11.9878 23.2131 9.85401 22.7886C7.72022 22.3642 5.76021 21.3165 4.22183 19.7782C2.68345 18.2398 1.6358 16.2798 1.21137 14.146C0.78693 12.0122 1.00477 9.80047 1.83733 7.79048C2.66989 5.78049 4.07979 4.06253 5.88873 2.85383ZM6.76177 19.8396C8.31229 20.8756 10.1352 21.4286 12 21.4286C14.4998 21.4259 16.8964 20.4316 18.664 18.664C20.4316 16.8964 21.4259 14.4998 21.4286 12C21.4286 10.1352 20.8756 8.31228 19.8396 6.76176C18.8035 5.21124 17.331 4.00276 15.6082 3.28913C13.8853 2.57551 11.9895 2.38879 10.1606 2.7526C8.33162 3.1164 6.65161 4.01438 5.333 5.33299C4.01439 6.6516 3.1164 8.33161 2.7526 10.1606C2.3888 11.9895 2.57551 13.8853 3.28914 15.6082C4.00277 17.331 5.21125 18.8035 6.76177 19.8396ZM12.7861 11.2143H13.9647C14.694 11.2143 15.3935 11.504 15.9092 12.0198C16.425 12.5355 16.7147 13.235 16.7147 13.9643C16.7147 14.6936 16.425 15.3931 15.9092 15.9088C15.3935 16.4246 14.694 16.7143 13.9647 16.7143H12.7861V18.2857C12.7861 18.4941 12.7034 18.694 12.556 18.8413C12.4087 18.9887 12.2088 19.0714 12.0004 19.0714C11.792 19.0714 11.5922 18.9887 11.4448 18.8413C11.2975 18.694 11.2147 18.4941 11.2147 18.2857V16.7143H8.85756C8.64918 16.7143 8.44933 16.6315 8.30198 16.4842C8.15463 16.3368 8.07185 16.137 8.07185 15.9286C8.07185 15.7202 8.15463 15.5204 8.30198 15.373C8.44933 15.2256 8.64918 15.1429 8.85756 15.1429H11.2147V12.7857H10.0361C9.30679 12.7857 8.60731 12.496 8.09159 11.9803C7.57586 11.4645 7.28613 10.7651 7.28613 10.0357C7.28613 9.30639 7.57586 8.60691 8.09159 8.09119C8.60731 7.57546 9.30679 7.28573 10.0361 7.28573H11.2147V5.7143C11.2147 5.50592 11.2975 5.30607 11.4448 5.15872C11.5922 5.01137 11.792 4.92859 12.0004 4.92859C12.2088 4.92859 12.4087 5.01137 12.556 5.15872C12.7034 5.30607 12.7861 5.50592 12.7861 5.7143V7.28573H15.1433C15.3517 7.28573 15.5515 7.36851 15.6989 7.51586C15.8462 7.66321 15.929 7.86306 15.929 8.07144C15.929 8.27983 15.8462 8.47968 15.6989 8.62703C15.5515 8.77438 15.3517 8.85716 15.1433 8.85716H12.7861V11.2143ZM9.20276 10.8691C9.42378 11.0901 9.72356 11.2143 10.0361 11.2143H11.2147V8.85716H10.0361C9.72356 8.85716 9.42378 8.98133 9.20276 9.20235C8.98173 9.42338 8.85756 9.72315 8.85756 10.0357C8.85756 10.3483 8.98173 10.6481 9.20276 10.8691ZM12.7861 15.1429H13.9647C14.2773 15.1429 14.5771 15.0187 14.7981 14.7977C15.0191 14.5766 15.1433 14.2769 15.1433 13.9643C15.1433 13.6517 15.0191 13.3519 14.7981 13.1309C14.5771 12.9099 14.2773 12.7857 13.9647 12.7857H12.7861V15.1429Z" fill="#888888"/>
</g>
</svg>
