<svg width="20" height="20" viewBox="0 0 20 20" fill="none" xmlns="http://www.w3.org/2000/svg">
<g clip-path="url(#clip0_1_195919)">
<path d="M16.889 9.77772C15.889 8.72216 14.5556 7.99994 13.1667 7.72216C12.5556 7.55549 11.9445 7.44438 11.3334 7.38883C12.889 5.5555 12.6112 2.77772 10.7778 1.22216C8.94451 -0.333392 6.16673 -0.0556142 4.61118 1.77772C3.05562 3.61105 3.3334 6.38883 5.16673 7.94438C5.50007 8.22216 5.8334 8.44438 6.16673 8.55549V9.77772L5.27784 8.94438C4.50007 8.16661 3.22229 8.16661 2.38895 8.94438C1.61118 9.72216 1.55562 10.9444 2.3334 11.7222L4.88896 14.7222C5.00007 15.4999 5.27784 16.2222 5.66673 16.8888C5.94451 17.3888 6.3334 17.8888 6.72229 18.2777V19.3333C6.72229 19.6666 6.94451 19.8888 7.27785 19.8888H14.8334C15.1112 19.8888 15.389 19.611 15.389 19.3333V17.8888C16.4445 16.611 17.0001 14.9999 17.0001 13.3888V10.1666C17.0556 9.94438 17.0001 9.83327 16.889 9.77772ZM4.66673 4.5555C4.66673 2.72216 6.16673 1.27772 8.00007 1.33327C9.8334 1.33327 11.2778 2.83327 11.2223 4.66661C11.2223 5.66661 10.7778 6.55549 10.0001 7.16661V4.38883C9.9717 3.90737 9.76024 3.455 9.40903 3.12445C9.05782 2.7939 8.59347 2.61022 8.11118 2.61105C7.11118 2.5555 6.22229 3.38883 6.22229 4.38883V7.27772C5.27784 6.72216 4.72229 5.66661 4.66673 4.5555ZM15.9445 13.3333C16.0001 14.7777 15.5001 16.1666 14.5556 17.2777C14.4445 17.3888 14.3334 17.4999 14.3334 17.6666V18.8333H7.88896V18.0555C7.88896 17.8888 7.77785 17.7222 7.66673 17.611C7.27785 17.2777 6.94451 16.8888 6.66673 16.3888C6.3334 15.8333 6.11118 15.1666 6.00007 14.4999C6.00007 14.3888 5.94451 14.2777 5.88896 14.1666L3.22229 10.9999C3.05562 10.8333 2.94451 10.6111 2.94451 10.3333C2.94451 10.1111 3.05562 9.83327 3.22229 9.66661C3.61118 9.33327 4.16673 9.33327 4.55562 9.66661L6.16673 11.2777V12.9444L7.22229 12.3888V4.38883C7.27785 3.99994 7.61118 3.66661 8.05562 3.72216C8.44451 3.72216 8.8334 3.99994 8.8334 4.38883V10.7777L9.94451 10.9999V8.44438C10.0001 8.38883 10.0556 8.38883 10.1112 8.33327C10.5001 8.33327 10.889 8.38883 11.2778 8.44438V11.2777L12.1667 11.4444V8.55549L12.8334 8.72216C13.1112 8.77772 13.389 8.88883 13.6667 8.99994V11.7777L14.5556 11.9444V9.38883C15.0556 9.61105 15.5001 9.94438 15.889 10.3333L15.9445 13.3333Z" fill="white"/>
</g>
<defs>
<clipPath id="clip0_1_195919">
<rect width="20" height="20" fill="white"/>
</clipPath>
</defs>
</svg>
