<svg width="22" height="22" viewBox="0 0 22 22" fill="none" xmlns="http://www.w3.org/2000/svg">
<g id="box 1" clip-path="url(#clip0_1673_55206)">
<path id="Vector" d="M21.4134 4.68199C21.4134 4.40289 21.2448 4.15141 20.9867 4.04533L11.2651 0.0516216C11.0975 -0.0172072 10.9096 -0.0172072 10.742 0.0516216L1.02049 4.04533C0.762337 4.15136 0.59375 4.40289 0.59375 4.68199V17.318C0.59375 17.5971 0.762294 17.8486 1.02049 17.9547L10.742 21.9484C10.9078 22.0165 11.0942 22.0179 11.2643 21.9483C11.2726 21.9456 10.9045 22.0965 20.9867 17.9547C21.2449 17.8486 21.4134 17.5971 21.4134 17.318V4.68199ZM11.0036 7.98947L7.42157 6.51796L15.1627 3.141L18.9843 4.71094L11.0036 7.98947ZM1.97033 5.76673L5.06078 7.03632V10.6182C5.06078 10.9983 5.36896 11.3065 5.74907 11.3065C6.12918 11.3065 6.43736 10.9983 6.43736 10.6182V7.60184L10.3153 9.19492V20.2848L1.97033 16.8566V5.76673ZM11.0036 1.43237L13.3896 2.41258L5.64849 5.78953L3.02289 4.7109L11.0036 1.43237ZM11.6919 9.19492L20.0368 5.76673V16.8566L11.6919 20.2848V9.19492Z" fill="#ED1B2E"/>
</g>
<defs>
<clipPath id="clip0_1673_55206">
<rect width="22" height="22" fill="white"/>
</clipPath>
</defs>
</svg>
