<?xml version="1.0" encoding="UTF-8"?><svg id="Layer_1" xmlns="http://www.w3.org/2000/svg" viewBox="0 0 30 30"><defs><style>.cls-1{fill:none;stroke:#fff;stroke-linecap:round;stroke-linejoin:round;stroke-width:2.03px;}</style></defs><path class="cls-1" d="m2.76,14.01L27.2,2.9m0,0l-4.57-1.72m4.57,1.72l-1.7,4.57m2.78,21.36h-5.31v-14.88c0-.28.11-.55.31-.75.2-.2.47-.31.75-.31h3.19c.28,0,.55.11.75.31.2.2.31.47.31.75v14.88Zm-10.63,0h-5.31v-11.69c0-.28.11-.55.31-.75.2-.2.47-.31.75-.31h3.19c.28,0,.55.11.75.31.2.2.31.47.31.75v11.69Zm-10.63,0H1.72v-8.5c0-.28.11-.55.31-.75.2-.2.47-.31.75-.31h3.19c.28,0,.55.11.75.31.2.2.31.47.31.75v8.5Z"/></svg>