<svg width="12" height="12" viewBox="0 0 12 12" fill="none" xmlns="http://www.w3.org/2000/svg">
<g id="bxs:game">
<path id="Vector" d="M6 11C7.8595 11 9.5315 9.9825 10.4045 8.343L6.5 6L10.4045 3.657C9.5315 2.0175 7.8595 1 6 1C3.243 1 1 3.243 1 6C1 8.757 3.243 11 6 11ZM5.75 3C5.94898 3.00007 6.13978 3.07917 6.28043 3.21992C6.42108 3.36067 6.50006 3.55152 6.5 3.7505C6.49993 3.94948 6.42082 4.14028 6.28008 4.28093C6.13933 4.42159 5.94848 4.50057 5.7495 4.5005C5.55052 4.50043 5.35972 4.42133 5.21906 4.28058C5.07841 4.13983 4.99943 3.94898 4.9995 3.75C4.99956 3.55102 5.07867 3.36022 5.21942 3.21957C5.36016 3.07891 5.55102 2.99993 5.75 3Z" fill="white"/>
</g>
</svg>
