<svg width="13" height="13" viewBox="0 0 13 13" fill="none" xmlns="http://www.w3.org/2000/svg">
<g id="material-symbols:date-range-outline-rounded">
<path id="Vector" d="M4.33333 7.58399C4.17986 7.58399 4.05113 7.53199 3.94713 7.42799C3.84313 7.32399 3.79131 7.19543 3.79167 7.04232C3.79167 6.88885 3.84367 6.76011 3.94767 6.65611C4.05167 6.55211 4.18022 6.50029 4.33333 6.50065C4.48681 6.50065 4.61554 6.55265 4.71954 6.65665C4.82354 6.76065 4.87536 6.88921 4.875 7.04232C4.875 7.19579 4.823 7.32453 4.719 7.42853C4.615 7.53253 4.48645 7.58435 4.33333 7.58399ZM6.5 7.58399C6.34653 7.58399 6.21779 7.53199 6.11379 7.42799C6.00979 7.32399 5.95797 7.19543 5.95833 7.04232C5.95833 6.88885 6.01033 6.76011 6.11434 6.65611C6.21834 6.55211 6.34689 6.50029 6.5 6.50065C6.65347 6.50065 6.78221 6.55265 6.88621 6.65665C6.99021 6.76065 7.04203 6.88921 7.04167 7.04232C7.04167 7.19579 6.98967 7.32453 6.88567 7.42853C6.78167 7.53253 6.65311 7.58435 6.5 7.58399ZM8.66667 7.58399C8.5132 7.58399 8.38446 7.53199 8.28046 7.42799C8.17646 7.32399 8.12464 7.19543 8.125 7.04232C8.125 6.88885 8.177 6.76011 8.281 6.65611C8.385 6.55211 8.51356 6.50029 8.66667 6.50065C8.82014 6.50065 8.94888 6.55265 9.05288 6.65665C9.15688 6.76065 9.2087 6.88921 9.20834 7.04232C9.20834 7.19579 9.15634 7.32453 9.05234 7.42853C8.94834 7.53253 8.81978 7.58435 8.66667 7.58399ZM2.70833 11.9173C2.41042 11.9173 2.15529 11.8112 1.94296 11.5988C1.73063 11.3865 1.62464 11.1315 1.625 10.834V3.25065C1.625 2.95274 1.73117 2.69761 1.9435 2.48528C2.15583 2.27294 2.41078 2.16696 2.70833 2.16732H3.25V1.62565C3.25 1.47218 3.302 1.34344 3.406 1.23944C3.51 1.13544 3.63856 1.08363 3.79167 1.08399C3.94514 1.08399 4.07388 1.13599 4.17788 1.23999C4.28188 1.34399 4.3337 1.47254 4.33333 1.62565V2.16732H8.66667V1.62565C8.66667 1.47218 8.71867 1.34344 8.82267 1.23944C8.92667 1.13544 9.05522 1.08363 9.20834 1.08399C9.36181 1.08399 9.49054 1.13599 9.59454 1.23999C9.69854 1.34399 9.75036 1.47254 9.75 1.62565V2.16732H10.2917C10.5896 2.16732 10.8447 2.27349 11.057 2.48582C11.2694 2.69815 11.3754 2.9531 11.375 3.25065V10.834C11.375 11.1319 11.2688 11.387 11.0565 11.5994C10.8442 11.8117 10.5892 11.9177 10.2917 11.9173H2.70833ZM2.70833 10.834H10.2917V5.41732H2.70833V10.834ZM2.70833 4.33399H10.2917V3.25065H2.70833V4.33399Z" fill="#5943FE"/>
</g>
</svg>
