<svg width="28" height="28" viewBox="0 0 28 28" fill="none" xmlns="http://www.w3.org/2000/svg">
<g id="material-symbols:phone-in-talk-sharp">
<path id="Vector" d="M22.1667 13.9414C22.1667 11.6664 21.3741 9.73635 19.789 8.15124C18.2047 6.56691 16.275 5.77474 14 5.77474V3.44141C15.4583 3.44141 16.8245 3.71829 18.0985 4.27207C19.3717 4.82663 20.4801 5.57563 21.4235 6.51907C22.3662 7.46174 23.1148 8.57007 23.6693 9.84407C24.2231 11.1173 24.5 12.4831 24.5 13.9414H22.1667ZM17.5 13.9414C17.5 12.9692 17.1597 12.1428 16.4792 11.4622C15.7986 10.7817 14.9722 10.4414 14 10.4414V8.10807C15.6139 8.10807 16.9898 8.67663 18.1277 9.81374C19.2648 10.9516 19.8333 12.3275 19.8333 13.9414H17.5ZM23.275 24.4997C20.7667 24.4997 18.3217 23.9456 15.9402 22.8372C13.5578 21.7289 11.4481 20.2511 9.611 18.4039C7.77311 16.5567 6.29533 14.4419 5.17767 12.0596C4.05922 9.67802 3.5 7.23307 3.5 4.72474V4.11224C3.5 3.89835 3.51944 3.69418 3.55833 3.49974H10.3833L11.4625 9.36224L8.1375 12.7164C8.95417 14.1164 9.98006 15.4289 11.2152 16.6539C12.4495 17.8789 13.8056 18.9386 15.2833 19.8331L18.6667 16.4497L24.5 17.6164V24.4414C24.3056 24.4608 24.1014 24.4756 23.8875 24.4857C23.6736 24.4951 23.4694 24.4997 23.275 24.4997Z" fill="#5943FE"/>
</g>
</svg>
