<svg width="80" height="80" viewBox="0 0 80 80" fill="none" xmlns="http://www.w3.org/2000/svg">
<g id="mdi:car-estate">
<path id="Vector" d="M10 20H53.3334L63.3334 33.3333H70C73.7 33.3333 76.6667 36.3 76.6667 40V50H70C70 52.6522 68.9465 55.1957 67.0711 57.0711C65.1957 58.9464 62.6522 60 60 60C57.3479 60 54.8043 58.9464 52.929 57.0711C51.0536 55.1957 50 52.6522 50 50H30C30 52.6522 28.9465 55.1957 27.0711 57.0711C25.1957 58.9464 22.6522 60 20 60C17.3479 60 14.8043 58.9464 12.929 57.0711C11.0536 55.1957 10 52.6522 10 50H3.33337V26.6667C3.33337 22.9667 6.30004 20 10 20ZM8.33337 25V33.3333H35V25H8.33337ZM40 25V33.3333H57.1334L50.8334 25H40ZM20 45C18.674 45 17.4022 45.5268 16.4645 46.4645C15.5268 47.4021 15 48.6739 15 50C15 51.3261 15.5268 52.5978 16.4645 53.5355C17.4022 54.4732 18.674 55 20 55C21.3261 55 22.5979 54.4732 23.5356 53.5355C24.4733 52.5978 25 51.3261 25 50C25 48.6739 24.4733 47.4021 23.5356 46.4645C22.5979 45.5268 21.3261 45 20 45ZM60 45C58.674 45 57.4022 45.5268 56.4645 46.4645C55.5268 47.4021 55 48.6739 55 50C55 51.3261 55.5268 52.5978 56.4645 53.5355C57.4022 54.4732 58.674 55 60 55C61.3261 55 62.5979 54.4732 63.5356 53.5355C64.4732 52.5978 65 51.3261 65 50C65 48.6739 64.4732 47.4021 63.5356 46.4645C62.5979 45.5268 61.3261 45 60 45Z" fill="url(#paint0_linear_1_200221)"/>
</g>
<defs>
<linearGradient id="paint0_linear_1_200221" x1="76.8" y1="20.2667" x2="3.20004" y2="52.8" gradientUnits="userSpaceOnUse">
<stop stop-color="#9C6DFF"/>
<stop offset="1" stop-color="#6470FF"/>
</linearGradient>
</defs>
</svg>
