<svg width="80" height="80" viewBox="0 0 80 80" fill="none" xmlns="http://www.w3.org/2000/svg">
<g id="mdi:car-hatchback">
<path id="Vector" d="M53.3334 20H20L3.33337 40V50H10C10 52.6522 11.0536 55.1957 12.929 57.0711C14.8043 58.9464 17.3479 60 20 60C22.6522 60 25.1957 58.9464 27.0711 57.0711C28.9465 55.1957 30 52.6522 30 50H50C50 52.6522 51.0536 55.1957 52.929 57.0711C54.8043 58.9464 57.3479 60 60 60C62.6522 60 65.1957 58.9464 67.0711 57.0711C68.9465 55.1957 70 52.6522 70 50H76.6667V40C76.6667 36.3 73.7 33.3333 70 33.3333H63.3334L53.3334 20ZM21.6667 25H35V33.3333H15L21.6667 25ZM40 25H51.6667L58.2 33.3333H40V25ZM20 45C21.3261 45 22.5979 45.5268 23.5356 46.4645C24.4733 47.4021 25 48.6739 25 50C25 51.3261 24.4733 52.5978 23.5356 53.5355C22.5979 54.4732 21.3261 55 20 55C18.674 55 17.4022 54.4732 16.4645 53.5355C15.5268 52.5978 15 51.3261 15 50C15 48.6739 15.5268 47.4021 16.4645 46.4645C17.4022 45.5268 18.674 45 20 45ZM60 45C61.3261 45 62.5979 45.5268 63.5356 46.4645C64.4732 47.4021 65 48.6739 65 50C65 51.3261 64.4732 52.5978 63.5356 53.5355C62.5979 54.4732 61.3261 55 60 55C58.674 55 57.4022 54.4732 56.4645 53.5355C55.5268 52.5978 55 51.3261 55 50C55 48.6739 55.5268 47.4021 56.4645 46.4645C57.4022 45.5268 58.674 45 60 45Z" fill="url(#paint0_linear_1_200202)"/>
</g>
<defs>
<linearGradient id="paint0_linear_1_200202" x1="72.0001" y1="28.5" x2="3.00012" y2="46" gradientUnits="userSpaceOnUse">
<stop stop-color="#2C50EE"/>
<stop offset="1" stop-color="#6470FF"/>
</linearGradient>
</defs>
</svg>
