<svg width="27" height="30" viewBox="0 0 27 30" fill="none" xmlns="http://www.w3.org/2000/svg">
<path d="M17.7188 18.125C17.495 18.125 17.2804 18.2238 17.1221 18.3996C16.9639 18.5754 16.875 18.8139 16.875 19.0625C16.875 19.3111 16.9639 19.5496 17.1221 19.7254C17.2804 19.9012 17.495 20 17.7188 20H20.5313C20.755 20 20.9696 19.9012 21.1279 19.7254C21.2861 19.5496 21.375 19.3111 21.375 19.0625C21.375 18.8139 21.2861 18.5754 21.1279 18.3996C20.9696 18.2238 20.755 18.125 20.5313 18.125H17.7188ZM2.25 10.3125C2.25 9.23506 2.63521 8.20175 3.32089 7.43988C4.00657 6.67801 4.93655 6.25 5.90625 6.25H21.0938C21.5739 6.25 22.0493 6.35508 22.4929 6.55924C22.9365 6.7634 23.3396 7.06264 23.6791 7.43988C24.0186 7.81712 24.2879 8.26496 24.4717 8.75785C24.6554 9.25073 24.75 9.779 24.75 10.3125V19.6875C24.75 20.221 24.6554 20.7493 24.4717 21.2422C24.2879 21.735 24.0186 22.1829 23.6791 22.5601C23.3396 22.9374 22.9365 23.2366 22.4929 23.4408C22.0493 23.6449 21.5739 23.75 21.0938 23.75H5.90625C4.93655 23.75 4.00657 23.322 3.32089 22.5601C2.63521 21.7983 2.25 20.7649 2.25 19.6875V10.3125ZM23.0625 11.875V10.3125C23.0625 9.73234 22.8551 9.17594 22.4859 8.7657C22.1167 8.35547 21.6159 8.125 21.0938 8.125H5.90625C5.38411 8.125 4.88335 8.35547 4.51413 8.7657C4.14492 9.17594 3.9375 9.73234 3.9375 10.3125V11.875H23.0625ZM3.9375 13.75V19.6875C3.9375 20.895 4.8195 21.875 5.90625 21.875H21.0938C21.6159 21.875 22.1167 21.6445 22.4859 21.2343C22.8551 20.8241 23.0625 20.2677 23.0625 19.6875V13.75H3.9375Z" fill="white"/>
</svg>
