<svg width="21" height="20" viewBox="0 0 21 20" fill="none" xmlns="http://www.w3.org/2000/svg">
<path d="M16.2444 4.25567C14.9112 2.91383 13.1517 2.07916 11.2691 1.89556C9.38656 1.71196 7.49891 2.19093 5.93163 3.24991C4.36435 4.30888 3.21565 5.88149 2.68356 7.69662C2.15148 9.51175 2.26936 11.4556 3.01688 13.1932C3.09479 13.3547 3.12035 13.5365 3.09 13.7132L2.375 17.1501C2.34746 17.2818 2.35308 17.4184 2.39137 17.5474C2.42967 17.6765 2.49942 17.794 2.59438 17.8894C2.67222 17.9667 2.7649 18.0274 2.86684 18.0679C2.96877 18.1084 3.07785 18.1278 3.1875 18.1251H3.35L6.8275 17.4263C7.00425 17.4051 7.18348 17.4303 7.3475 17.4994C9.08503 18.2469 11.0289 18.3648 12.8441 17.8327C14.6592 17.3007 16.2318 16.152 17.2908 14.5847C18.3497 13.0174 18.8287 11.1297 18.6451 9.24717C18.4615 7.36459 17.6268 5.60506 16.285 4.27192L16.2444 4.25567ZM7.25 10.8126C7.08931 10.8126 6.93222 10.7649 6.7986 10.6756C6.66499 10.5863 6.56085 10.4594 6.49935 10.311C6.43786 10.1625 6.42176 9.99915 6.45312 9.84154C6.48447 9.68393 6.56185 9.53916 6.67548 9.42553C6.78911 9.3119 6.93388 9.23451 7.09149 9.20316C7.2491 9.17181 7.41247 9.1879 7.56093 9.2494C7.7094 9.31089 7.83629 9.41503 7.92557 9.54865C8.01485 9.68226 8.0625 9.83935 8.0625 10.0001C8.0625 10.2155 7.9769 10.4222 7.82453 10.5746C7.67215 10.7269 7.46549 10.8126 7.25 10.8126ZM10.5 10.8126C10.3393 10.8126 10.1822 10.7649 10.0486 10.6756C9.91499 10.5863 9.81085 10.4594 9.74935 10.311C9.68785 10.1625 9.67176 9.99915 9.70311 9.84154C9.73447 9.68393 9.81185 9.53916 9.92548 9.42553C10.0391 9.3119 10.1839 9.23451 10.3415 9.20316C10.4991 9.17181 10.6625 9.1879 10.8109 9.2494C10.9594 9.31089 11.0863 9.41503 11.1756 9.54865C11.2649 9.68226 11.3125 9.83935 11.3125 10.0001C11.3125 10.2155 11.2269 10.4222 11.0745 10.5746C10.9222 10.7269 10.7155 10.8126 10.5 10.8126ZM13.75 10.8126C13.5893 10.8126 13.4322 10.7649 13.2986 10.6756C13.165 10.5863 13.0608 10.4594 12.9993 10.311C12.9379 10.1625 12.9218 9.99915 12.9531 9.84154C12.9845 9.68393 13.0618 9.53916 13.1755 9.42553C13.2891 9.3119 13.4339 9.23451 13.5915 9.20316C13.7491 9.17181 13.9125 9.1879 14.0609 9.2494C14.2094 9.31089 14.3363 9.41503 14.4256 9.54865C14.5149 9.68226 14.5625 9.83935 14.5625 10.0001C14.5625 10.2155 14.4769 10.4222 14.3245 10.5746C14.1722 10.7269 13.9655 10.8126 13.75 10.8126Z" fill="white"/>
</svg>
