<?xml version="1.0" encoding="UTF-8"?><svg id="Layer_1" xmlns="http://www.w3.org/2000/svg" viewBox="0 0 197 195"><defs><style>.cls-1{fill:#7739ff;}.cls-2{fill:#5943fe;}</style></defs><path class="cls-1" d="m147.32,13.48c46.72,26.77,62.72,86.07,35.75,132.44-26.97,46.37-86.71,62.26-133.42,35.49C2.93,154.63-13.08,95.34,13.89,48.96,40.87,2.59,100.6-13.3,147.32,13.48ZM59.72,164.08c37.08,21.25,84.49,8.64,105.9-28.17,21.41-36.81,8.7-83.87-28.38-105.12C100.17,9.55,52.75,22.16,31.34,58.96c-21.41,36.81-8.7,83.87,28.38,105.12Z"/><path class="cls-1" d="m147.32,13.48c46.72,26.77,62.72,86.07,35.75,132.44-26.97,46.37-86.71,62.26-133.42,35.49C2.93,154.63-13.08,95.34,13.89,48.96,40.87,2.59,100.6-13.3,147.32,13.48ZM59.72,164.08c37.08,21.25,84.49,8.64,105.9-28.17,21.41-36.81,8.7-83.87-28.38-105.12C100.17,9.55,52.75,22.16,31.34,58.96c-21.41,36.81-8.7,83.87,28.38,105.12Z"/><path class="cls-2" d="m147.3,13.46c-11.11-6.37-23.37-10.5-36.09-12.16-12.72-1.66-25.64-.82-38.03,2.47-12.39,3.3-24,8.98-34.18,16.73-10.18,7.75-18.71,17.42-25.13,28.44-6.41,11.03-10.58,23.2-12.25,35.82-1.67,12.62-.83,25.45,2.49,37.75,3.32,12.3,9.05,23.83,16.86,33.93,7.81,10.1,17.54,18.58,28.65,24.94l10.08-17.32c-8.82-5.05-16.54-11.78-22.74-19.8-6.2-8.02-10.74-17.17-13.38-26.93-2.63-9.76-3.31-19.94-1.98-29.96,1.33-10.02,4.63-19.68,9.72-28.43,5.09-8.75,11.87-16.42,19.94-22.57,8.08-6.15,17.3-10.66,27.13-13.28,9.83-2.62,20.09-3.28,30.18-1.96,10.09,1.32,19.83,4.6,28.64,9.65l10.07-17.32Z"/></svg>