<svg width="50" height="50" viewBox="0 0 50 50" fill="none" xmlns="http://www.w3.org/2000/svg">
<g id="circum:hospital-1">
<path id="Vector" d="M38.2708 15.625H34.25V11.5833C34.25 10.202 33.7013 8.87724 32.7245 7.90049C31.7478 6.92373 30.423 6.375 29.0417 6.375H20.7083C19.327 6.375 18.0022 6.92373 17.0255 7.90049C16.0487 8.87724 15.5 10.202 15.5 11.5833V15.625H11.4583C10.077 15.625 8.75224 16.1737 7.77549 17.1505C6.79873 18.1272 6.25 19.452 6.25 20.8333V40.5C6.256 41.327 6.58716 42.1183 7.17192 42.7031C7.75668 43.2878 8.54805 43.619 9.375 43.625H40.3542C41.183 43.625 41.9778 43.2958 42.5639 42.7097C43.1499 42.1237 43.4792 41.3288 43.4792 40.5V20.8333C43.4792 20.1494 43.3444 19.4721 43.0827 18.8402C42.821 18.2083 42.4373 17.6341 41.9537 17.1505C41.47 16.6668 40.8959 16.2832 40.264 16.0215C39.6321 15.7597 38.9548 15.625 38.2708 15.625ZM15.5 41.5417H9.375C9.10007 41.5374 8.83761 41.4263 8.64318 41.2318C8.44876 41.0374 8.33763 40.7749 8.33333 40.5V20.8333C8.33333 20.0045 8.66257 19.2097 9.24862 18.6236C9.83467 18.0376 10.6295 17.7083 11.4583 17.7083H15.5V41.5417ZM32.1667 41.5417H29.0417V36.3333C29.0339 35.2246 28.5928 34.1628 27.8125 33.375C27.2286 32.7946 26.4858 32.4001 25.6779 32.2415C24.8701 32.0828 24.0333 32.167 23.2732 32.4835C22.5132 32.8 21.8639 33.3346 21.4074 34.0198C20.951 34.705 20.7077 35.51 20.7083 36.3333V41.5417H17.5833V11.5833C17.5833 10.7545 17.9126 9.95968 18.4986 9.37363C19.0847 8.78757 19.8795 8.45833 20.7083 8.45833H29.0417C29.8705 8.45833 30.6653 8.78757 31.2514 9.37363C31.8374 9.95968 32.1667 10.7545 32.1667 11.5833V41.5417ZM41.3958 40.5C41.3958 40.7763 41.2861 41.0412 41.0907 41.2366C40.8954 41.4319 40.6304 41.5417 40.3542 41.5417H34.25V17.7083H38.2708C39.0996 17.7083 39.8945 18.0376 40.4805 18.6236C41.0666 19.2097 41.3958 20.0045 41.3958 20.8333V40.5Z" fill="white"/>
<path id="Vector_2" d="M29.6232 17.8333C29.6232 18.1096 29.5135 18.3746 29.3181 18.5699C29.1228 18.7653 28.8578 18.875 28.5816 18.875H25.4566V22C25.4566 22.2763 25.3468 22.5412 25.1515 22.7366C24.9561 22.9319 24.6912 23.0417 24.4149 23.0417C24.1386 23.0417 23.8737 22.9319 23.6783 22.7366C23.483 22.5412 23.3732 22.2763 23.3732 22V18.875H20.2482C19.972 18.875 19.707 18.7653 19.5117 18.5699C19.3163 18.3746 19.2066 18.1096 19.2066 17.8333C19.2066 17.5571 19.3163 17.2921 19.5117 17.0968C19.707 16.9014 19.972 16.7917 20.2482 16.7917H23.3732V13.6667C23.3732 13.3904 23.483 13.1254 23.6783 12.9301C23.8737 12.7347 24.1386 12.625 24.4149 12.625C24.6898 12.6293 24.9523 12.7404 25.1467 12.9348C25.3412 13.1293 25.4523 13.3917 25.4566 13.6667V16.7917H28.5816C28.8565 16.796 29.119 16.9071 29.3134 17.1015C29.5078 17.2959 29.6189 17.5584 29.6232 17.8333ZM11.4587 27.5354C11.1824 27.5354 10.9174 27.4257 10.7221 27.2303C10.5267 27.035 10.417 26.77 10.417 26.4937V23.3687C10.417 23.0925 10.5267 22.8275 10.7221 22.6322C10.9174 22.4368 11.1824 22.3271 11.4587 22.3271C11.7349 22.3271 11.9999 22.4368 12.1952 22.6322C12.3906 22.8275 12.5003 23.0925 12.5003 23.3687V26.4937C12.5003 26.77 12.3906 27.035 12.1952 27.2303C11.9999 27.4257 11.7349 27.5354 11.4587 27.5354ZM11.4587 36.9104C11.1824 36.9104 10.9174 36.8007 10.7221 36.6053C10.5267 36.41 10.417 36.145 10.417 35.8687V32.7437C10.417 32.4675 10.5267 32.2025 10.7221 32.0072C10.9174 31.8118 11.1824 31.7021 11.4587 31.7021C11.7349 31.7021 11.9999 31.8118 12.1952 32.0072C12.3906 32.2025 12.5003 32.4675 12.5003 32.7437V35.8687C12.5003 36.145 12.3906 36.41 12.1952 36.6053C11.9999 36.8007 11.7349 36.9104 11.4587 36.9104ZM37.3649 27.5354C37.0886 27.5354 36.8237 27.4257 36.6283 27.2303C36.433 27.035 36.3232 26.77 36.3232 26.4937V23.3687C36.3232 23.0925 36.433 22.8275 36.6283 22.6322C36.8237 22.4368 37.0886 22.3271 37.3649 22.3271C37.6412 22.3271 37.9061 22.4368 38.1015 22.6322C38.2968 22.8275 38.4066 23.0925 38.4066 23.3687V26.4937C38.4066 26.77 38.2968 27.035 38.1015 27.2303C37.9061 27.4257 37.6412 27.5354 37.3649 27.5354ZM37.3649 36.9104C37.0886 36.9104 36.8237 36.8007 36.6283 36.6053C36.433 36.41 36.3232 36.145 36.3232 35.8687V32.7437C36.3232 32.4675 36.433 32.2025 36.6283 32.0072C36.8237 31.8118 37.0886 31.7021 37.3649 31.7021C37.6412 31.7021 37.9061 31.8118 38.1015 32.0072C38.2968 32.2025 38.4066 32.4675 38.4066 32.7437V35.8687C38.4066 36.145 38.2968 36.41 38.1015 36.6053C37.9061 36.8007 37.6412 36.9104 37.3649 36.9104Z" fill="white"/>
</g>
</svg>
