<svg width="25" height="25" viewBox="0 0 25 25" fill="none" xmlns="http://www.w3.org/2000/svg">
<g id="ic:baseline-cloud-download" clip-path="url(#clip0_1_217007)">
<path id="Vector" d="M20.1562 10.4587C19.8064 8.68545 18.8517 7.08872 17.4553 5.94121C16.0589 4.79369 14.3074 4.16658 12.5 4.16699C9.48958 4.16699 6.875 5.87533 5.57292 8.37533C4.04191 8.54078 2.62605 9.26617 1.59738 10.4121C0.56872 11.5581 -0.000178856 13.0437 4.218e-08 14.5837C4.218e-08 18.0316 2.80208 20.8337 6.25 20.8337H19.7917C22.6667 20.8337 25 18.5003 25 15.6253C25 12.8753 22.8646 10.6462 20.1562 10.4587ZM17.7083 13.542L12.5 18.7503L7.29167 13.542H10.4167V9.37533H14.5833V13.542H17.7083Z" fill="white"/>
</g>
<defs>
<clipPath id="clip0_1_217007">
<rect width="25" height="25" fill="white"/>
</clipPath>
</defs>
</svg>
