<svg width="65" height="65" viewBox="0 0 65 65" fill="none" xmlns="http://www.w3.org/2000/svg">
<path d="M17.6048 54.1666C13.4882 54.1666 9.97635 52.7492 7.0694 49.9145C4.16246 47.0617 2.70898 43.586 2.70898 39.4874C2.70898 35.9666 3.76524 32.8249 5.87774 30.0624C8.00829 27.2999 10.7888 25.5395 14.2194 24.7812C15.3569 20.6284 17.6139 17.2701 20.9902 14.7062C24.3847 12.1242 28.2215 10.8333 32.5007 10.8333C37.791 10.8333 42.2687 12.6749 45.934 16.3583C49.6173 20.0235 51.459 24.5013 51.459 29.7916C54.5826 30.1527 57.1646 31.5069 59.2049 33.8541C61.2632 36.1652 62.2924 38.8735 62.2924 41.9791C62.2924 45.3735 61.1097 48.2534 58.7444 50.6187C56.3792 52.984 53.4993 54.1666 50.1048 54.1666H35.209C33.7284 54.1666 32.4555 53.634 31.3903 52.5687C30.325 51.5215 29.7923 50.2485 29.7923 48.7499V34.802L25.459 38.9999L21.6673 35.2083L32.5007 24.3749L43.334 35.2083L39.5423 38.9999L35.209 34.802V48.7499H50.1048C52.0007 48.7499 53.5986 48.0909 54.8986 46.7728C56.2167 45.4728 56.8757 43.8749 56.8757 41.9791C56.8757 40.0833 56.2167 38.4853 54.8986 37.1853C53.5986 35.8673 52.0007 35.2083 50.1048 35.2083H46.0423V29.7916C46.0423 26.0541 44.7243 22.8583 42.0882 20.2041C39.4521 17.568 36.2562 16.2499 32.5007 16.2499C28.7632 16.2499 25.5673 17.568 22.9132 20.2041C20.2771 22.8583 18.959 26.0541 18.959 29.7916H17.6048C14.9868 29.7916 12.7569 30.7214 10.9152 32.5812C9.05552 34.4228 8.12565 36.6527 8.12565 39.2708C8.12565 41.8888 9.05552 44.1458 10.9152 46.0416C12.7569 47.8471 14.9868 48.7499 17.6048 48.7499H24.3757V54.1666" fill="#6470FF"/>
</svg>
