<svg width="25" height="25" viewBox="0 0 25 25" fill="none" xmlns="http://www.w3.org/2000/svg">
<g id="material-symbols:phone-in-talk">
<path id="Vector" d="M19.7917 12.4473C19.7917 10.416 19.084 8.6931 17.6688 7.27852C16.2535 5.86393 14.5306 5.15629 12.5 5.1556V3.07227C13.8021 3.07227 15.0219 3.31984 16.1594 3.81497C17.2969 4.31011 18.2865 4.97852 19.1281 5.82018C19.9698 6.66185 20.6382 7.65143 21.1333 8.78893C21.6285 9.92643 21.8757 11.1459 21.875 12.4473H19.7917ZM15.625 12.4473C15.625 11.5792 15.3212 10.8414 14.7135 10.2337C14.1059 9.62608 13.3681 9.32227 12.5 9.32227V7.23893C13.941 7.23893 15.1694 7.74692 16.1854 8.76289C17.2014 9.77886 17.709 11.007 17.7083 12.4473H15.625ZM20.7812 21.8743C18.5417 21.8743 16.3583 21.375 14.2312 20.3764C12.1042 19.3778 10.2205 18.0584 8.58021 16.4181C6.93993 14.7778 5.62049 12.8941 4.62188 10.7671C3.62326 8.63997 3.12431 6.45699 3.125 4.2181C3.125 3.9056 3.22917 3.64518 3.4375 3.43685C3.64583 3.22852 3.90625 3.12435 4.21875 3.12435H8.4375C8.68056 3.12435 8.89757 3.20247 9.08854 3.35872C9.27951 3.51497 9.39236 3.71463 9.42708 3.95768L10.1042 7.60352C10.1389 7.84657 10.1344 8.0681 10.0906 8.2681C10.0469 8.4681 9.94722 8.64588 9.79167 8.80143L7.29167 11.3535C8.02083 12.6035 8.93229 13.7754 10.026 14.8691C11.1198 15.9629 12.3264 16.9091 13.6458 17.7077L16.0938 15.2598C16.25 15.1035 16.4542 14.9865 16.7063 14.9087C16.9583 14.8309 17.2056 14.8091 17.4479 14.8431L21.0417 15.5723C21.2847 15.6243 21.4844 15.7417 21.6406 15.9243C21.7969 16.107 21.875 16.3195 21.875 16.5618V20.7806C21.875 21.0931 21.7708 21.3535 21.5625 21.5618C21.3542 21.7702 21.0938 21.8743 20.7812 21.8743Z" fill="white"/>
</g>
</svg>
