<svg width="14" height="14" viewBox="0 0 14 14" fill="none" xmlns="http://www.w3.org/2000/svg">
<g id="solar:copy-bold">
<g id="Group">
<path id="Vector" d="M8.89 1.1665H6.6185C5.5895 1.1665 4.774 1.1665 4.13642 1.25284C3.47958 1.3415 2.94817 1.52817 2.52933 1.94875C2.10992 2.36934 1.92383 2.90309 1.83575 3.56225C1.75 4.20275 1.75 5.02117 1.75 6.05425V9.45975C1.75 10.3394 2.28667 11.0931 3.04908 11.4093C3.01 10.8784 3.01 10.1347 3.01 9.51517V6.59267C3.01 5.84542 3.01 5.20084 3.07883 4.68517C3.15292 4.13217 3.31975 3.6025 3.74792 3.17259C4.17608 2.74267 4.704 2.57525 5.25467 2.50059C5.768 2.43175 6.40967 2.43175 7.15458 2.43175H8.94542C9.68975 2.43175 10.3303 2.43175 10.8442 2.50059C10.6902 2.10764 10.4214 1.77019 10.0728 1.53223C9.72422 1.29427 9.31205 1.16682 8.89 1.1665Z" fill="white"/>
<path id="Vector_2" d="M3.8501 6.64832C3.8501 5.05815 3.8501 4.26307 4.34243 3.76899C4.83418 3.2749 5.62576 3.2749 7.2101 3.2749H8.8901C10.4738 3.2749 11.266 3.2749 11.7583 3.76899C12.2501 4.26307 12.2501 5.05815 12.2501 6.64832V9.45999C12.2501 11.0502 12.2501 11.8452 11.7583 12.3393C11.266 12.8334 10.4738 12.8334 8.8901 12.8334H7.2101C5.62635 12.8334 4.83418 12.8334 4.34243 12.3393C3.8501 11.8452 3.8501 11.0502 3.8501 9.45999V6.64832Z" fill="white"/>
</g>
</g>
</svg>
