<?xml version="1.0" encoding="utf-8"?>
<!-- Generator: Adobe Illustrator 27.7.0, SVG Export Plug-In . SVG Version: 6.00 Build 0)  -->
<svg version="1.1" id="Layer_1" xmlns="http://www.w3.org/2000/svg" xmlns:xlink="http://www.w3.org/1999/xlink" x="0px" y="0px"
	 viewBox="0 0 116 26" style="enable-background:new 0 0 116 26;" xml:space="preserve">
<style type="text/css">
	.st0{fill:#FFFFFF;}
</style>
<path class="st0" d="M7.3,25.2c-1.3,0-2.3-0.2-3.2-0.7c-0.9-0.5-1.6-1.1-2.1-1.8C1.4,22,1,21.3,0.7,20.6c-0.3-0.7-0.4-1.4-0.4-1.9
	V6.9c0-0.5,0.1-1.2,0.4-1.9C1,4.2,1.4,3.5,1.9,2.8C2.5,2.1,3.2,1.5,4,1.1c0.9-0.5,2-0.7,3.2-0.7v4.2C6.7,4.6,6.3,4.7,6,4.9
	C5.6,5.1,5.4,5.3,5.2,5.6C5,5.8,4.8,6.1,4.7,6.3C4.6,6.6,4.6,6.8,4.6,6.9v11.8c0,0.1,0,0.3,0.1,0.6C4.8,19.5,5,19.7,5.2,20
	c0.2,0.3,0.5,0.5,0.8,0.7c0.3,0.2,0.8,0.3,1.3,0.3V25.2z M9.1,25.2v-4.2c0.3,0,0.5-0.1,0.8-0.2c0.3-0.1,0.6-0.3,0.8-0.5
	c0.3-0.2,0.4-0.5,0.5-0.8c0.1-0.2,0.2-0.4,0.2-0.6c0-0.2,0-0.5,0-0.7c0-0.1,0-0.2,0-0.2c0-0.1,0-0.2,0-0.2l4.1,1
	c0,1.2-0.3,2.4-0.9,3.4c-0.6,1-1.4,1.8-2.5,2.3C11.2,24.9,10.2,25.2,9.1,25.2z M11.5,8c0-0.1,0-0.2,0-0.3s0-0.2,0-0.3
	c0-0.2,0-0.4-0.1-0.6c0-0.2,0-0.4-0.1-0.6c-0.1-0.3-0.3-0.6-0.5-0.8c-0.2-0.2-0.4-0.4-0.6-0.5C10,4.9,9.7,4.8,9.5,4.7
	C9.3,4.6,9.2,4.6,9.1,4.6V0.3c0.8,0,1.6,0.2,2.4,0.6c0.8,0.4,1.5,0.9,2.1,1.5C14.2,3,14.7,3.7,15,4.5c0.4,0.8,0.6,1.6,0.6,2.5
	L11.5,8z M29.3,25l-0.5-6.2c-0.1-0.9-0.2-1.7-0.5-2.3c-0.2-0.6-0.5-1-1-1.3c-0.5-0.3-1.1-0.4-1.9-0.4H24V11h1.4c1.1,0,2-0.3,2.5-0.9
	c0.5-0.6,0.8-1.4,0.8-2.3c0-1-0.3-1.9-0.9-2.4c-0.6-0.6-1.4-0.8-2.5-0.8H24v-4h1.7c1.4,0,2.7,0.3,3.7,0.8c1.1,0.5,1.9,1.3,2.4,2.3
	c0.6,1,0.9,2.2,0.9,3.6c0,1.3-0.2,2.4-0.7,3.3c-0.4,0.9-1,1.6-1.7,2.2c0.7,0.4,1.3,1.1,1.7,2c0.4,0.9,0.6,1.8,0.7,2.7l0.6,7.6H29.3z
	 M17.9,25V0.5h4.3V25H17.9z M35.6,25V0.5h12.7v4.2h-8.5v6h5.2V15h-5.2v5.8h8.5V25H35.6z M50.8,25v-4.2l8.1-16h-8.1V0.5h12.8v4.1
	l-8.1,16h8.1V25H50.8z M77.6,25l-0.7-3.3h-4.2l0.9-4.2h2.1l-3.8-17h4.2L81.8,25H77.6z M65.8,25l4.5-20.5H71l1.8,8.2L70,25H65.8z
	 M84,25V0.5h4.3V25H84z M90.1,13.9V9.7H92c0.4,0,0.7,0,1.1-0.1c0.4-0.1,0.7-0.4,0.9-0.7c0.3-0.4,0.4-0.9,0.4-1.7
	c0-0.7-0.1-1.3-0.4-1.6c-0.2-0.4-0.5-0.6-0.9-0.7c-0.3-0.1-0.7-0.2-1.1-0.2h-1.9V0.5h2.2c1.6,0,2.8,0.3,3.8,0.8
	c1,0.5,1.6,1.3,2.1,2.3c0.4,1,0.6,2.2,0.6,3.6c0,1.5-0.2,2.8-0.7,3.7c-0.4,1-1.1,1.7-2.1,2.1c-0.9,0.5-2.2,0.7-3.7,0.7H90.1z
	 M100.8,25V0.5h4.3V25H100.8z M106.9,13.9V9.7h1.9c0.4,0,0.7,0,1.1-0.1c0.4-0.1,0.7-0.4,0.9-0.7c0.3-0.4,0.4-0.9,0.4-1.7
	c0-0.7-0.1-1.3-0.4-1.6c-0.2-0.4-0.5-0.6-0.9-0.7c-0.3-0.1-0.7-0.2-1.1-0.2h-1.9V0.5h2.2c1.6,0,2.8,0.3,3.8,0.8
	c1,0.5,1.6,1.3,2.1,2.3c0.4,1,0.6,2.2,0.6,3.6c0,1.5-0.2,2.8-0.7,3.7c-0.4,1-1.1,1.7-2.1,2.1c-0.9,0.5-2.2,0.7-3.7,0.7H106.9z"/>
</svg>
