<svg width="116" height="26" viewBox="0 0 116 26" fill="none" xmlns="http://www.w3.org/2000/svg">
<path d="M7.26 25.175C6 25.175 4.92667 24.9417 4.04 24.475C3.17667 24.0083 2.465 23.425 1.905 22.725C1.36833 22.0017 0.971667 21.2783 0.715 20.555C0.458333 19.8083 0.33 19.1783 0.33 18.665V6.87C0.33 6.33333 0.458333 5.70333 0.715 4.98C0.971667 4.23333 1.36833 3.51 1.905 2.81C2.465 2.11 3.17667 1.52667 4.04 1.06C4.92667 0.569999 6 0.324998 7.26 0.324998V4.56C6.74667 4.56 6.315 4.665 5.965 4.875C5.63833 5.06167 5.37 5.295 5.16 5.575C4.97333 5.83167 4.83333 6.08833 4.74 6.345C4.64667 6.57833 4.6 6.75333 4.6 6.87V18.665C4.6 18.7817 4.64667 18.9683 4.74 19.225C4.83333 19.4583 4.97333 19.715 5.16 19.995C5.37 20.2517 5.63833 20.4733 5.965 20.66C6.315 20.8467 6.74667 20.94 7.26 20.94V25.175ZM9.08 25.175V20.94C9.33667 20.8933 9.605 20.8117 9.885 20.695C10.1883 20.5783 10.4683 20.415 10.725 20.205C10.9817 19.9717 11.1567 19.6917 11.25 19.365C11.3433 19.1783 11.4017 18.98 11.425 18.77C11.4483 18.5367 11.46 18.315 11.46 18.105C11.46 18.0117 11.46 17.93 11.46 17.86C11.46 17.7667 11.46 17.6967 11.46 17.65L15.59 18.63C15.59 19.8667 15.275 20.9867 14.645 21.99C14.015 22.97 13.1983 23.7517 12.195 24.335C11.215 24.895 10.1767 25.175 9.08 25.175ZM11.46 8.025C11.46 7.93167 11.46 7.83833 11.46 7.745C11.46 7.65167 11.46 7.55833 11.46 7.465C11.4367 7.27833 11.4133 7.08 11.39 6.87C11.39 6.63667 11.3433 6.43833 11.25 6.275C11.1333 5.94833 10.9817 5.68 10.795 5.47C10.6083 5.26 10.3983 5.09667 10.165 4.98C9.955 4.86333 9.745 4.77 9.535 4.7C9.34833 4.63 9.19667 4.58333 9.08 4.56V0.324998C9.92 0.324998 10.7133 0.511666 11.46 0.885C12.23 1.25833 12.93 1.76 13.56 2.39C14.19 2.99667 14.68 3.69667 15.03 4.49C15.4033 5.28333 15.59 6.1 15.59 6.94L11.46 8.025ZM29.3466 25L28.8216 18.77C28.7516 17.8367 28.6 17.0783 28.3666 16.495C28.1566 15.9117 27.8183 15.48 27.3516 15.2C26.885 14.92 26.2433 14.78 25.4266 14.78H23.9916V10.965H25.4266C26.57 10.965 27.3983 10.6617 27.9116 10.055C28.4483 9.425 28.7166 8.655 28.7166 7.745C28.7166 6.695 28.4016 5.89 27.7716 5.33C27.165 4.77 26.325 4.49 25.2516 4.49H23.9916V0.499998H25.6716C27.1183 0.499998 28.3666 0.779998 29.4166 1.34C30.4666 1.87666 31.2716 2.64667 31.8316 3.65C32.415 4.65333 32.7066 5.86667 32.7066 7.29C32.7066 8.57333 32.485 9.67 32.0416 10.58C31.6216 11.49 31.05 12.225 30.3266 12.785C31.05 13.205 31.61 13.8583 32.0066 14.745C32.4033 15.6083 32.6366 16.495 32.7066 17.405L33.3016 25H29.3466ZM17.9016 25V0.499998H22.1716V25H17.9016ZM35.6067 25V0.499998H48.3467V4.735H39.8417V10.685H45.0567V14.955H39.8417V20.765H48.3467V25H35.6067ZM50.8085 25V20.765L58.8935 4.735H50.8085V0.499998H63.6185V4.63L55.4985 20.66H63.6185V25H50.8085ZM77.5725 25L76.8375 21.71H72.6375L73.5475 17.51H75.6825L71.9025 0.499998H76.1375L81.8075 25H77.5725ZM65.8475 25L70.3975 4.525H70.9575L72.7075 12.75L70.0125 25H65.8475ZM84.0052 25V0.499998H88.2752V25H84.0052ZM90.0952 13.905V9.74H92.0202C92.3935 9.74 92.7668 9.69333 93.1402 9.6C93.5135 9.48333 93.8168 9.23833 94.0502 8.865C94.3068 8.49167 94.4352 7.93167 94.4352 7.185C94.4352 6.46167 94.3068 5.925 94.0502 5.575C93.8168 5.20167 93.5135 4.95667 93.1402 4.84C92.7902 4.72333 92.4168 4.665 92.0202 4.665H90.0952V0.499998H92.3002C93.8868 0.499998 95.1468 0.779998 96.0802 1.34C97.0368 1.87666 97.7252 2.65833 98.1452 3.685C98.5652 4.68833 98.7752 5.90167 98.7752 7.325C98.7752 8.84167 98.5418 10.09 98.0752 11.07C97.6318 12.0267 96.9318 12.7383 95.9752 13.205C95.0418 13.6717 93.8168 13.905 92.3002 13.905H90.0952ZM100.822 25V0.499998H105.092V25H100.822ZM106.912 13.905V9.74H108.837C109.21 9.74 109.583 9.69333 109.957 9.6C110.33 9.48333 110.633 9.23833 110.867 8.865C111.123 8.49167 111.252 7.93167 111.252 7.185C111.252 6.46167 111.123 5.925 110.867 5.575C110.633 5.20167 110.33 4.95667 109.957 4.84C109.607 4.72333 109.233 4.665 108.837 4.665H106.912V0.499998H109.117C110.703 0.499998 111.963 0.779998 112.897 1.34C113.853 1.87666 114.542 2.65833 114.962 3.685C115.382 4.68833 115.592 5.90167 115.592 7.325C115.592 8.84167 115.358 10.09 114.892 11.07C114.448 12.0267 113.748 12.7383 112.792 13.205C111.858 13.6717 110.633 13.905 109.117 13.905H106.912Z" fill="#5744FE"/>
</svg>
