<svg width="22" height="22" viewBox="0 0 22 22" fill="none" xmlns="http://www.w3.org/2000/svg">
<g id="delivery 1">
<g id="Group">
<g id="Group_2">
<path id="Vector" d="M16.6169 13.0781C15.0877 13.0781 13.8438 14.3221 13.8438 15.8512C13.8438 17.3804 15.0877 18.6244 16.6169 18.6244C18.1463 18.6244 19.39 17.3804 19.39 15.8512C19.39 14.3221 18.146 13.0781 16.6169 13.0781ZM16.6169 17.2378C15.8522 17.2378 15.2303 16.6159 15.2303 15.8512C15.2303 15.0866 15.8522 14.4647 16.6169 14.4647C17.3815 14.4647 18.0034 15.0866 18.0034 15.8512C18.0034 16.616 17.3815 17.2378 16.6169 17.2378Z" fill="#ED1B2E"/>
</g>
</g>
<g id="Group_3">
<g id="Group_4">
<path id="Vector_2" d="M7.1403 13.0781C5.61118 13.0781 4.36719 14.3221 4.36719 15.8512C4.36719 17.3804 5.61118 18.6244 7.1403 18.6244C8.66943 18.6244 9.91342 17.3804 9.91342 15.8512C9.91342 14.3221 8.66943 13.0781 7.1403 13.0781ZM7.1403 17.2378C6.37563 17.2378 5.75375 16.6159 5.75375 15.8512C5.75375 15.0866 6.37563 14.4647 7.1403 14.4647C7.90476 14.4647 8.52686 15.0866 8.52686 15.8512C8.52686 16.616 7.90498 17.2378 7.1403 17.2378Z" fill="#ED1B2E"/>
</g>
</g>
<g id="Group_5">
<g id="Group_6">
<path id="Vector_3" d="M18.4818 5.1435C18.3639 4.9094 18.1243 4.76172 17.8622 4.76172H14.2109V6.14828H17.4347L19.3225 9.90306L20.5616 9.28001L18.4818 5.1435Z" fill="#ED1B2E"/>
</g>
</g>
<g id="Group_7">
<g id="Group_8">
<path id="Vector_4" d="M14.5349 15.1836H9.28906V16.5702H14.5349V15.1836Z" fill="#ED1B2E"/>
</g>
</g>
<g id="Group_9">
<g id="Group_10">
<path id="Vector_5" d="M5.05752 15.1836H2.6542C2.27126 15.1836 1.96094 15.494 1.96094 15.8769C1.96094 16.2598 2.2713 16.5701 2.6542 16.5701H5.05757C5.4405 16.5701 5.75082 16.2597 5.75082 15.8769C5.75082 15.4939 5.44046 15.1836 5.05752 15.1836Z" fill="#ED1B2E"/>
</g>
</g>
<g id="Group_11">
<g id="Group_12">
<path id="Vector_6" d="M21.851 10.9456L20.4874 9.18927C20.3564 9.02011 20.1542 8.92119 19.9399 8.92119H14.9021V4.06826C14.9021 3.68532 14.5917 3.375 14.2088 3.375H2.6542C2.27126 3.375 1.96094 3.68536 1.96094 4.06826C1.96094 4.45115 2.2713 4.76152 2.6542 4.76152H13.5155V9.61445C13.5155 9.99739 13.8259 10.3077 14.2088 10.3077H19.6004L20.6101 11.6083V15.1838H18.692C18.309 15.1838 17.9987 15.4941 17.9987 15.877C17.9987 16.26 18.3091 16.5703 18.692 16.5703H21.3033C21.6863 16.5703 21.9966 16.2599 21.9966 15.877V11.3708C21.9966 11.2169 21.9453 11.0671 21.851 10.9456Z" fill="#ED1B2E"/>
</g>
</g>
<g id="Group_13">
<g id="Group_14">
<path id="Vector_7" d="M5.01517 11.6719H1.82607C1.44313 11.6719 1.13281 11.9822 1.13281 12.3651C1.13281 12.7481 1.44318 13.0584 1.82607 13.0584H5.01513C5.39806 13.0584 5.70838 12.748 5.70838 12.3651C5.70843 11.9822 5.39806 11.6719 5.01517 11.6719Z" fill="#ED1B2E"/>
</g>
</g>
<g id="Group_15">
<g id="Group_16">
<path id="Vector_8" d="M6.60924 8.94141H0.693258C0.310363 8.94141 0 9.25177 0 9.63471C0 10.0176 0.310363 10.328 0.693258 10.328H6.60924C6.99218 10.328 7.3025 10.0176 7.3025 9.63471C7.3025 9.25181 6.99218 8.94141 6.60924 8.94141Z" fill="#ED1B2E"/>
</g>
</g>
<g id="Group_17">
<g id="Group_18">
<path id="Vector_9" d="M7.74205 6.21484H1.82607C1.44313 6.21484 1.13281 6.52521 1.13281 6.9081C1.13281 7.29104 1.44318 7.60136 1.82607 7.60136H7.74205C8.12499 7.60136 8.43531 7.291 8.43531 6.9081C8.43535 6.52521 8.12499 6.21484 7.74205 6.21484Z" fill="#ED1B2E"/>
</g>
</g>
</g>
</svg>
