<svg width="27" height="27" viewBox="0 0 27 27" fill="none" xmlns="http://www.w3.org/2000/svg">
<g clip-path="url(#clip0_1_194051)">
<path fill-rule="evenodd" clip-rule="evenodd" d="M15.75 2.25V8.4375C15.75 8.88505 15.9278 9.31428 16.2443 9.63074C16.5607 9.94721 16.9899 10.125 17.4375 10.125H23.625V18C23.625 18.5967 23.3879 19.169 22.966 19.591C22.544 20.0129 21.9717 20.25 21.375 20.25H19.125V22.5C19.125 23.0967 18.8879 23.669 18.466 24.091C18.044 24.5129 17.4717 24.75 16.875 24.75H6.75C6.15326 24.75 5.58097 24.5129 5.15901 24.091C4.73705 23.669 4.5 23.0967 4.5 22.5V9C4.5 8.40326 4.73705 7.83097 5.15901 7.40901C5.58097 6.98705 6.15326 6.75 6.75 6.75H9V4.5C9 3.90326 9.23705 3.33097 9.65901 2.90901C10.081 2.48705 10.6533 2.25 11.25 2.25H15.75ZM9 9H6.75V22.5H16.875V20.25H11.25C10.6533 20.25 10.081 20.0129 9.65901 19.591C9.23705 19.169 9 18.5967 9 18V9ZM18 2.29837C18.4262 2.38877 18.8171 2.60099 19.125 2.90925L22.9658 6.75C23.274 7.05794 23.4862 7.44876 23.5766 7.875H18V2.29837Z" fill="#6470FF"/>
</g>
<defs>
<clipPath id="clip0_1_194051">
<rect width="27" height="27" fill="white"/>
</clipPath>
</defs>
</svg>
