<?xml version="1.0" encoding="UTF-8"?><svg id="Layer_2" xmlns="http://www.w3.org/2000/svg" viewBox="0 0 30 30"><defs><style>.cls-1{fill:#fff;}</style></defs><path class="cls-1" d="m22.26,28.97c-1.12,0-2.17-.42-2.97-1.2-.8-.77-1.25-1.84-1.25-2.94s.46-2.17,1.25-2.94c.79-.77,1.85-1.19,2.97-1.19s2.18.42,2.97,1.19c.8.77,1.25,1.84,1.25,2.94s-.46,2.17-1.25,2.94c-.79.77-1.85,1.2-2.97,1.2Zm0-5.62c-.42,0-.84.16-1.13.45-.29.28-.45.65-.45,1.04s.16.76.45,1.04c.6.57,1.68.57,2.27,0,.29-.28.45-.65.45-1.04s-.16-.76-.45-1.04c-.3-.29-.71-.45-1.14-.45Zm-15.97,5.62c-1.12,0-2.17-.42-2.97-1.2-.8-.77-1.25-1.84-1.25-2.94s.46-2.16,1.25-2.94c.8-.77,1.85-1.19,2.97-1.19s2.18.42,2.97,1.19c.8.77,1.25,1.84,1.25,2.94s-.46,2.17-1.25,2.94c-.8.77-1.85,1.2-2.97,1.2Zm0-5.62c-.43,0-.84.16-1.14.45-.29.28-.45.65-.45,1.04s.16.76.45,1.04c.59.57,1.68.57,2.27,0,.29-.28.45-.65.45-1.04s-.16-.76-.45-1.04c-.3-.29-.71-.45-1.14-.45Z"/><path class="cls-1" d="m22.26,23.35H6.29c-.73,0-1.32-.59-1.32-1.32V3.67h-1.58c-.73,0-1.32-.59-1.32-1.32s.59-1.32,1.32-1.32h2.9c.73,0,1.32.59,1.32,1.32v18.36h14.65c.73,0,1.32.59,1.32,1.32s-.59,1.32-1.32,1.32Z"/><path class="cls-1" d="m25.16,17.72H6.29c-.73,0-1.32-.59-1.32-1.32s.59-1.32,1.32-1.32h17.74l1.08-7.3-18.9-1.31c-.73-.05-1.27-.68-1.22-1.41.05-.73.69-1.28,1.41-1.22l20.33,1.41c.37.03.71.2.94.49.23.29.33.66.28,1.02l-1.45,9.84c-.1.65-.65,1.13-1.3,1.13Z"/></svg>