<svg width="14" height="14" viewBox="0 0 14 14" fill="none" xmlns="http://www.w3.org/2000/svg">
<g id="mingcute:mail-send-line" clip-path="url(#clip0_1_199119)">
<rect width="14" height="14" fill="white"/>
<g id="Group">
<path id="Vector" d="M11.6667 2.3335C11.961 2.3334 12.2445 2.44457 12.4603 2.6447C12.6761 2.84484 12.8083 3.11916 12.8304 3.41266L12.8333 3.50016V10.5002C12.8334 10.7945 12.7223 11.078 12.5221 11.2938C12.322 11.5096 12.0477 11.6418 11.7542 11.6639L11.6667 11.6668H2.33333C2.039 11.6669 1.7555 11.5558 1.53968 11.3556C1.32386 11.1555 1.19166 10.8812 1.16958 10.5877L1.16667 10.5002V9.91683H2.33333V10.5002H11.6667V4.325L7.61833 8.37333C7.46521 8.52643 7.26076 8.61731 7.04451 8.62841C6.82826 8.63951 6.61558 8.57003 6.44758 8.43341L6.38108 8.37333L2.33333 4.325V4.66683H1.16667V3.50016C1.16657 3.20583 1.27774 2.92233 1.47787 2.70651C1.67801 2.49069 1.95233 2.35849 2.24583 2.33641L2.33333 2.3335H11.6667ZM3.5 7.58349C3.65471 7.58349 3.80308 7.64495 3.91248 7.75435C4.02188 7.86375 4.08333 8.01212 4.08333 8.16683C4.08333 8.32154 4.02188 8.46991 3.91248 8.57931C3.80308 8.6887 3.65471 8.75016 3.5 8.75016H0.583333C0.428624 8.75016 0.280251 8.6887 0.170854 8.57931C0.0614582 8.46991 0 8.32154 0 8.16683C0 8.01212 0.0614582 7.86375 0.170854 7.75435C0.280251 7.64495 0.428624 7.58349 0.583333 7.58349H3.5ZM10.8418 3.50016H3.15817L7 7.342L10.8418 3.50016ZM2.91667 5.8335C3.06535 5.83366 3.20835 5.89059 3.31647 5.99266C3.42458 6.09472 3.48964 6.23422 3.49835 6.38264C3.50706 6.53107 3.45877 6.67722 3.36335 6.79123C3.26792 6.90524 3.13256 6.97852 2.98492 6.99608L2.91667 7.00016H1.16667C1.01799 7 0.874981 6.94307 0.766869 6.841C0.658756 6.73893 0.593696 6.59944 0.584983 6.45101C0.57627 6.30259 0.62456 6.15644 0.719988 6.04243C0.815416 5.92841 0.950778 5.85514 1.09842 5.83758L1.16667 5.8335H2.91667Z" fill="#7A7A7A"/>
</g>
</g>
<defs>
<clipPath id="clip0_1_199119">
<rect width="14" height="14" fill="white"/>
</clipPath>
</defs>
</svg>
