<svg width="23" height="26" viewBox="0 0 23 26" fill="none" xmlns="http://www.w3.org/2000/svg">
<g id="fa-brands:facebook-square" clip-path="url(#clip0_1_216580)">
<path id="Vector" d="M20.3125 1.625H2.4375C1.79103 1.625 1.17105 1.88181 0.713927 2.33893C0.256807 2.79605 0 3.41603 0 4.0625L0 21.9375C0 22.584 0.256807 23.204 0.713927 23.6611C1.17105 24.1182 1.79103 24.375 2.4375 24.375H9.40723V16.6405H6.20801V13H9.40723V10.2253C9.40723 7.06926 11.2861 5.32594 14.1639 5.32594C15.5421 5.32594 16.9833 5.57172 16.9833 5.57172V8.66937H15.3954C13.8308 8.66937 13.3428 9.64031 13.3428 10.6361V13H16.8355L16.2769 16.6405H13.3428V24.375H20.3125C20.959 24.375 21.579 24.1182 22.0361 23.6611C22.4932 23.204 22.75 22.584 22.75 21.9375V4.0625C22.75 3.41603 22.4932 2.79605 22.0361 2.33893C21.579 1.88181 20.959 1.625 20.3125 1.625Z" fill="white"/>
</g>
<defs>
<clipPath id="clip0_1_216580">
<rect width="22.75" height="26" fill="white"/>
</clipPath>
</defs>
</svg>
