<svg width="31" height="36" viewBox="0 0 31 36" fill="none" xmlns="http://www.w3.org/2000/svg">
<g id="fa-brands:facebook-square" clip-path="url(#clip0_1_217253)">
<path id="Vector" d="M27.4554 2.19727H3.29464C2.42085 2.19727 1.58284 2.54438 0.964979 3.16224C0.347113 3.78011 0 4.61811 0 5.49191L0 29.6526C0 30.5264 0.347113 31.3644 0.964979 31.9823C1.58284 32.6002 2.42085 32.9473 3.29464 32.9473H12.7153V22.493H8.39104V17.5723H12.7153V13.8219C12.7153 9.55599 15.2549 7.19963 19.1446 7.19963C21.0075 7.19963 22.9554 7.53184 22.9554 7.53184V11.7188H20.8091C18.6944 11.7188 18.0347 13.0311 18.0347 14.3771V17.5723H22.7557L22.0007 22.493H18.0347V32.9473H27.4554C28.3292 32.9473 29.1672 32.6002 29.785 31.9823C30.4029 31.3644 30.75 30.5264 30.75 29.6526V5.49191C30.75 4.61811 30.4029 3.78011 29.785 3.16224C29.1672 2.54438 28.3292 2.19727 27.4554 2.19727Z" fill="#5943FE"/>
</g>
<defs>
<clipPath id="clip0_1_217253">
<rect width="30.75" height="35.1429" fill="white"/>
</clipPath>
</defs>
</svg>
