<svg width="45" height="45" viewBox="0 0 45 45" fill="none" xmlns="http://www.w3.org/2000/svg">
<g id="fluent-emoji-high-contrast:money-bag">
<g id="Group">
<path id="Vector" d="M22.2752 27.2027H22.3736C24.483 27.259 26.1705 28.9746 26.1705 31.084C26.1705 32.884 24.9471 34.3887 23.2877 34.8387V36.4137C23.2877 36.9762 22.8377 37.4262 22.2752 37.4262C21.7127 37.4262 21.2627 36.9762 21.2627 36.4137V34.8387C20.4364 34.6165 19.7063 34.1284 19.1852 33.4497C18.6642 32.771 18.3811 31.9396 18.3799 31.084C18.3799 30.5215 18.8299 30.0715 19.3924 30.0715C19.9549 30.0715 20.4049 30.5215 20.4049 31.084C20.4049 32.1246 21.2346 32.9543 22.2611 32.9543C23.2877 32.9543 24.1314 32.1105 24.1314 31.084C24.1314 30.0574 23.2877 29.2137 22.2611 29.2137H22.1627C21.1511 29.1862 20.19 28.7654 19.4836 28.0407C18.7773 27.316 18.3813 26.3444 18.3799 25.3324C18.3799 23.5324 19.6033 22.0277 21.2627 21.5777V20.0027C21.2627 19.4402 21.7127 18.9902 22.2752 18.9902C22.8377 18.9902 23.2877 19.4402 23.2877 20.0027V21.5777C24.9471 22.0277 26.1705 23.5324 26.1705 25.3324C26.1705 25.8949 25.7205 26.3449 25.158 26.3449C24.5955 26.3449 24.1455 25.8949 24.1455 25.3324C24.1455 24.3059 23.3018 23.4621 22.2752 23.4621C21.2486 23.4621 20.4049 24.3059 20.4049 25.3324C20.4049 26.359 21.2486 27.2027 22.2752 27.2027Z" fill="white"/>
<path id="Vector_2" d="M14.8106 7.17153L18.7284 11.7559L18.3052 12.2284C10.2417 14.0368 4.21875 21.2382 4.21875 29.8473C4.21875 37.4158 10.3613 43.5583 17.9297 43.5583H26.6063C34.1747 43.5583 40.3172 37.4172 40.3172 29.8487C40.3313 21.2382 34.3083 14.0368 26.2449 12.2284C26.2776 11.9312 26.2239 11.6309 26.0902 11.3636L29.423 7.5484L29.6381 7.21653C29.8894 6.66855 29.9536 6.05322 29.8211 5.46515C29.6885 4.87709 29.3664 4.34886 28.9043 3.96172C28.4422 3.57458 27.8657 3.34995 27.2635 3.32239C26.6613 3.29483 26.0668 3.46586 25.5713 3.80918L24.3858 2.40293C24.1199 2.10534 23.7942 1.86713 23.4301 1.70381C23.0659 1.5405 22.6714 1.45575 22.2724 1.45508C21.8733 1.45442 21.4785 1.53786 21.1138 1.69996C20.7491 1.86207 20.4227 2.0992 20.1558 2.3959L18.9141 3.78246C18.4198 3.432 17.8239 3.25415 17.2184 3.27642C16.613 3.29869 16.0317 3.51984 15.5646 3.90566C15.0974 4.29148 14.7704 4.82048 14.6341 5.41082C14.4978 6.00117 14.5599 6.61998 14.8106 7.17153ZM20.153 9.11918L17.768 6.36293C18.3221 6.62992 18.949 6.70574 19.5508 6.57851C20.1525 6.45129 20.6951 6.12821 21.0938 5.65981L22.2188 4.20012L23.4675 5.6795C23.8569 6.13228 24.3821 6.44713 24.9649 6.57713C25.5478 6.70713 26.157 6.64532 26.7019 6.4009L24.3281 9.11918H20.153ZM7.03125 29.8473C7.03125 21.4267 13.8544 14.6036 22.275 14.6036C30.6956 14.6036 37.5188 21.4267 37.5047 29.8445V29.8473C37.5036 32.7374 36.355 35.5088 34.3114 37.5524C32.2678 39.5961 29.4964 40.7446 26.6063 40.7458H17.9297C15.0396 40.7446 12.2682 39.5961 10.2246 37.5524C8.18095 35.5088 7.03237 32.7374 7.03125 29.8473Z" fill="white"/>
</g>
</g>
</svg>
