<svg width="14" height="14" viewBox="0 0 14 14" fill="none" xmlns="http://www.w3.org/2000/svg">
<g id="ion:game-controller">
<path id="Vector" d="M13.2096 6.70964C12.6297 4.08765 11.7569 2.6882 10.4621 2.30593C10.19 2.2261 9.90768 2.18622 9.62406 2.18753C9.24918 2.18753 8.92269 2.27886 8.57734 2.37566C8.16117 2.49241 7.6884 2.62503 6.99906 2.62503C6.30972 2.62503 5.83668 2.49269 5.41968 2.37593C5.07406 2.27886 4.74785 2.18753 4.37406 2.18753C4.08078 2.18651 3.78878 2.22627 3.50644 2.30566C2.21855 2.68628 1.34629 4.08519 0.757848 6.708C0.125114 9.53042 0.436559 11.3124 1.63121 11.7259C1.79496 11.7836 1.96726 11.8133 2.1409 11.8139C2.95929 11.8139 3.61554 11.1322 4.06398 10.5741C4.57066 9.94249 5.16375 9.62202 6.99906 9.62202C8.63832 9.62202 9.31672 9.84433 9.90269 10.5741C10.271 11.033 10.6191 11.354 10.9664 11.556C11.4282 11.8246 11.8898 11.8842 12.3379 11.7302C13.0439 11.4893 13.4486 10.8525 13.5411 9.83694C13.6113 9.05819 13.503 8.03526 13.2096 6.70964ZM5.68656 6.56253H4.81156V7.43753C4.81156 7.55356 4.76547 7.66484 4.68342 7.74689C4.60137 7.82894 4.49009 7.87503 4.37406 7.87503C4.25803 7.87503 4.14675 7.82894 4.0647 7.74689C3.98265 7.66484 3.93656 7.55356 3.93656 7.43753V6.56253H3.06156C2.94553 6.56253 2.83425 6.51644 2.7522 6.43439C2.67015 6.35234 2.62406 6.24106 2.62406 6.12503C2.62406 6.009 2.67015 5.89772 2.7522 5.81567C2.83425 5.73362 2.94553 5.68753 3.06156 5.68753H3.93656V4.81253C3.93656 4.6965 3.98265 4.58522 4.0647 4.50317C4.14675 4.42112 4.25803 4.37503 4.37406 4.37503C4.49009 4.37503 4.60137 4.42112 4.68342 4.50317C4.76547 4.58522 4.81156 4.6965 4.81156 4.81253V5.68753H5.68656C5.80259 5.68753 5.91387 5.73362 5.99592 5.81567C6.07797 5.89772 6.12406 6.009 6.12406 6.12503C6.12406 6.24106 6.07797 6.35234 5.99592 6.43439C5.91387 6.51644 5.80259 6.56253 5.68656 6.56253ZM7.98343 6.67191C7.87527 6.67191 7.76954 6.63983 7.67961 6.57974C7.58967 6.51965 7.51958 6.43424 7.47819 6.33431C7.4368 6.23438 7.42597 6.12442 7.44707 6.01834C7.46817 5.91226 7.52025 5.81481 7.59674 5.73833C7.67322 5.66185 7.77066 5.60977 7.87674 5.58866C7.98283 5.56756 8.09279 5.57839 8.19271 5.61978C8.29264 5.66118 8.37805 5.73127 8.43814 5.8212C8.49824 5.91114 8.53031 6.01687 8.53031 6.12503C8.53031 6.27007 8.47269 6.40917 8.37013 6.51173C8.26758 6.61429 8.12847 6.67191 7.98343 6.67191ZM9.18656 7.87503C9.07834 7.87503 8.97255 7.84292 8.88259 7.78277C8.79263 7.72262 8.72253 7.63713 8.68118 7.53712C8.63983 7.43711 8.62908 7.32708 8.6503 7.22096C8.67151 7.11484 8.72373 7.0174 8.80035 6.94097C8.87697 6.86455 8.97454 6.81257 9.08071 6.79162C9.18688 6.77068 9.29688 6.7817 9.39679 6.8233C9.49669 6.8649 9.58201 6.93521 9.64193 7.02532C9.70186 7.11544 9.73371 7.2213 9.73343 7.32952C9.73307 7.47433 9.6753 7.61307 9.57278 7.71534C9.47026 7.8176 9.33136 7.87503 9.18656 7.87503ZM9.18656 5.46878C9.0784 5.46878 8.97266 5.43671 8.88273 5.37662C8.7928 5.31652 8.7227 5.23111 8.68131 5.13119C8.63992 5.03126 8.62909 4.9213 8.65019 4.81522C8.67129 4.70913 8.72338 4.61169 8.79986 4.53521C8.87634 4.45873 8.97379 4.40664 9.07987 4.38554C9.18595 4.36444 9.29591 4.37527 9.39584 4.41666C9.49577 4.45805 9.58118 4.52815 9.64127 4.61808C9.70136 4.70801 9.73343 4.81374 9.73343 4.92191C9.73343 5.06695 9.67582 5.20605 9.57326 5.30861C9.4707 5.41116 9.3316 5.46878 9.18656 5.46878ZM10.3897 6.67191C10.2815 6.67191 10.1758 6.63983 10.0859 6.57974C9.99592 6.51965 9.92583 6.43424 9.88444 6.33431C9.84305 6.23438 9.83222 6.12442 9.85332 6.01834C9.87442 5.91226 9.9265 5.81481 10.003 5.73833C10.0795 5.66185 10.1769 5.60977 10.283 5.58866C10.3891 5.56756 10.499 5.57839 10.599 5.61978C10.6989 5.66118 10.7843 5.73127 10.8444 5.8212C10.9045 5.91114 10.9366 6.01687 10.9366 6.12503C10.9366 6.27007 10.8789 6.40917 10.7764 6.51173C10.6738 6.61429 10.5347 6.67191 10.3897 6.67191Z" fill="white"/>
</g>
</svg>
