<svg width="13" height="13" viewBox="0 0 13 13" fill="none" xmlns="http://www.w3.org/2000/svg">
<g id="material-symbols:arrow-downward-rounded">
<path id="Vector" d="M6.49954 2.3968C6.57176 2.3968 6.63947 2.40799 6.70267 2.43038C6.76586 2.45277 6.82454 2.49123 6.87871 2.54575L10.4537 6.12075C10.562 6.22909 10.6162 6.35764 10.6162 6.50642C10.6162 6.6552 10.562 6.78393 10.4537 6.89263C10.3454 7.00096 10.219 7.05513 10.0745 7.05513C9.9301 7.05513 9.80371 7.00096 9.69538 6.89263L7.04121 4.23846L7.04121 10.3051C7.04121 10.4586 6.98921 10.585 6.88521 10.6843C6.78121 10.7836 6.65265 10.8333 6.49954 10.8333C6.34607 10.8333 6.21733 10.7813 6.11333 10.6773C6.00933 10.5733 5.95752 10.4447 5.95788 10.2916L5.95788 4.23846L3.30371 6.89263C3.19538 7.00096 3.06899 7.05513 2.92454 7.05513C2.7801 7.05513 2.65371 7.00096 2.54538 6.89263C2.43704 6.7843 2.38287 6.65556 2.38287 6.50642C2.38287 6.35728 2.43704 6.22873 2.54538 6.12075L6.12038 2.54575C6.17454 2.49159 6.23322 2.45313 6.29642 2.43038C6.35961 2.40763 6.42732 2.39643 6.49954 2.3968Z" fill="#00D82F"/>
</g>
</svg>
