<svg width="14" height="14" viewBox="0 0 14 14" fill="none" xmlns="http://www.w3.org/2000/svg">
<g id="tabler:hand-click">
<g id="Group">
<path id="Vector" d="M4.6665 7.58333V2.625C4.6665 2.39294 4.75869 2.17038 4.92279 2.00628C5.08688 1.84219 5.30944 1.75 5.5415 1.75C5.77357 1.75 5.99613 1.84219 6.16022 2.00628C6.32432 2.17038 6.4165 2.39294 6.4165 2.625V7M6.4165 6.70833V5.54167C6.4165 5.3096 6.50869 5.08704 6.67279 4.92295C6.83688 4.75885 7.05944 4.66667 7.2915 4.66667C7.52357 4.66667 7.74613 4.75885 7.91022 4.92295C8.07432 5.08704 8.1665 5.3096 8.1665 5.54167V7M8.1665 6.125C8.1665 5.89294 8.25869 5.67038 8.42279 5.50628C8.58688 5.34219 8.80944 5.25 9.0415 5.25C9.27357 5.25 9.49613 5.34219 9.66022 5.50628C9.82432 5.67038 9.9165 5.89294 9.9165 6.125V7" stroke="white" stroke-linecap="round" stroke-linejoin="round"/>
<path id="Vector_2" d="M9.91667 6.70817C9.91667 6.47611 10.0089 6.25355 10.173 6.08945C10.337 5.92536 10.5596 5.83317 10.7917 5.83317C11.0237 5.83317 11.2463 5.92536 11.4104 6.08945C11.5745 6.25355 11.6667 6.47611 11.6667 6.70817V9.33317C11.6667 10.2614 11.2979 11.1517 10.6415 11.808C9.98517 12.4644 9.09493 12.8332 8.16667 12.8332H7H7.12133C6.5417 12.8333 5.97111 12.6894 5.46081 12.4145C4.95051 12.1396 4.51647 11.7423 4.19767 11.2582L4.08333 11.0832C3.90133 10.8038 3.26258 9.69017 2.1665 7.74184C2.05476 7.54323 2.02492 7.30887 2.08331 7.08859C2.1417 6.86832 2.28372 6.67951 2.47917 6.56234C2.68735 6.43743 2.93129 6.38565 3.17226 6.41525C3.41323 6.44484 3.6374 6.5541 3.80917 6.72567L4.66667 7.58317M2.91667 1.74984L2.33333 1.1665M2.33333 4.08317H1.75M8.16667 1.74984L8.75 1.1665M8.75 3.49984H9.33334" stroke="white" stroke-linecap="round" stroke-linejoin="round"/>
</g>
</g>
</svg>
