<svg width="85" height="85" viewBox="0 0 85 85" fill="none" xmlns="http://www.w3.org/2000/svg">
<g id="healthicons:money-bag-outline">
<g id="Group">
<path id="Vector" fill-rule="evenodd" clip-rule="evenodd" d="M50.9501 43.6812C50.4616 42.2999 49.557 41.1041 48.3608 40.2583C47.1645 39.4125 45.7355 38.9584 44.2705 38.9583V37.1875H40.7288V38.9583C38.8502 38.9583 37.0486 39.7046 35.7202 41.033C34.3918 42.3614 33.6455 44.1631 33.6455 46.0417C33.6455 47.9203 34.3918 49.722 35.7202 51.0504C37.0486 52.3787 38.8502 53.125 40.7288 53.125V60.2084C39.1882 60.2084 37.876 59.2255 37.3873 57.8478C37.3148 57.6224 37.1978 57.4139 37.0433 57.2345C36.8887 57.0551 36.6998 56.9085 36.4876 56.8034C36.2755 56.6983 36.0444 56.6368 35.808 56.6225C35.5717 56.6083 35.3349 56.6416 35.1116 56.7205C34.8884 56.7993 34.6832 56.9222 34.5082 57.0817C34.3333 57.2413 34.1921 57.4343 34.0931 57.6494C33.994 57.8645 33.9391 58.0972 33.9316 58.3339C33.9241 58.5705 33.9641 58.8063 34.0493 59.0272C34.5377 60.4084 35.4423 61.6042 36.6386 62.45C37.8348 63.2958 39.2638 63.75 40.7288 63.75V65.5209H44.2705V63.75C46.1491 63.75 47.9508 63.0037 49.2792 61.6754C50.6076 60.347 51.3538 58.5453 51.3538 56.6667C51.3538 54.7881 50.6076 52.9864 49.2792 51.658C47.9508 50.3296 46.1491 49.5833 44.2705 49.5833V42.5C45.0029 42.4998 45.7174 42.7267 46.3156 43.1495C46.9137 43.5722 47.366 44.17 47.6103 44.8605C47.7667 45.3034 48.0926 45.666 48.5164 45.8686C48.7262 45.9689 48.9537 46.0269 49.186 46.0393C49.4182 46.0517 49.6506 46.0182 49.8699 45.9407C50.0892 45.8633 50.2911 45.7434 50.464 45.588C50.637 45.4325 50.7777 45.2445 50.878 45.0347C50.9783 44.8248 51.0363 44.5973 51.0486 44.3651C51.061 44.1328 51.0275 43.9004 50.9501 43.6812ZM40.7288 42.5C39.7895 42.5 38.8887 42.8731 38.2245 43.5373C37.5603 44.2015 37.1872 45.1024 37.1872 46.0417C37.1872 46.981 37.5603 47.8818 38.2245 48.546C38.8887 49.2102 39.7895 49.5833 40.7288 49.5833V42.5ZM44.2705 60.2084C45.2098 60.2084 46.1107 59.8352 46.7748 59.171C47.439 58.5068 47.8122 57.606 47.8122 56.6667C47.8122 55.7274 47.439 54.8265 46.7748 54.1623C46.1107 53.4982 45.2098 53.125 44.2705 53.125V60.2084Z" fill="#5943FE"/>
<path id="Vector_2" fill-rule="evenodd" clip-rule="evenodd" d="M23.2914 15.2664C27.637 13.1396 34.7664 10.625 42.5687 10.625C50.2081 10.625 57.1498 13.0351 61.4724 15.1335L61.7168 15.2522C63.0201 15.8968 64.072 16.5059 64.8122 17L58.2707 26.5625C73.3511 41.9794 84.9997 74.3697 42.5687 74.3697C0.137756 74.3697 11.4729 42.5673 26.6843 26.5625L20.1854 17C20.6865 16.6724 21.3222 16.2917 22.0802 15.8879C22.4556 15.686 22.8593 15.4771 23.2914 15.2664ZM54.0667 26.435L59.3031 18.7797C54.4333 19.1303 48.6391 20.2743 43.061 21.8893C39.0766 23.0403 34.6495 22.865 30.5501 22.1089C29.517 21.9173 28.4911 21.6894 27.4741 21.4253L30.8741 26.4315C38.1611 29.0257 46.778 29.0257 54.0667 26.435ZM28.8288 29.449C37.3554 32.7427 47.6032 32.7427 56.1298 29.4454C59.6889 33.1973 62.6662 37.4609 64.9627 42.0945C67.3569 46.9785 68.6602 51.8607 68.4477 56.0682C68.2423 60.1287 66.645 63.5978 62.9971 66.1761C59.1951 68.8624 52.8006 70.8281 42.567 70.8281C32.3227 70.8281 25.8981 68.8961 22.0607 66.2398C18.3862 63.6934 16.773 60.2721 16.5445 56.2665C16.3055 52.105 17.5805 47.2476 19.9658 42.33C22.2413 37.6409 25.4164 33.127 28.8288 29.449ZM26.7924 17.5596C28.209 17.981 29.6894 18.3476 31.1911 18.6256C34.9984 19.3269 38.8163 19.4296 42.0747 18.4857C45.8717 17.3796 49.7336 16.5096 53.6382 15.8808C50.3799 14.8998 46.569 14.1667 42.567 14.1667C36.4664 14.1667 30.7767 15.8684 26.7924 17.5596Z" fill="#5943FE"/>
</g>
</g>
</svg>
