<svg width="20" height="20" viewBox="0 0 20 20" fill="none" xmlns="http://www.w3.org/2000/svg">
<g id="ic:baseline-location-on">
<path id="Vector" d="M10.0003 1.66602C6.77533 1.66602 4.16699 4.27435 4.16699 7.49935C4.16699 11.8743 10.0003 18.3327 10.0003 18.3327C10.0003 18.3327 15.8337 11.8743 15.8337 7.49935C15.8337 4.27435 13.2253 1.66602 10.0003 1.66602ZM10.0003 9.58268C9.44779 9.58268 8.91789 9.36319 8.52719 8.97249C8.13649 8.58179 7.91699 8.05188 7.91699 7.49935C7.91699 6.94681 8.13649 6.41691 8.52719 6.02621C8.91789 5.63551 9.44779 5.41601 10.0003 5.41601C10.5529 5.41601 11.0828 5.63551 11.4735 6.02621C11.8642 6.41691 12.0837 6.94681 12.0837 7.49935C12.0837 8.05188 11.8642 8.58179 11.4735 8.97249C11.0828 9.36319 10.5529 9.58268 10.0003 9.58268Z" fill="white"/>
</g>
</svg>
