<svg width="25" height="25" viewBox="0 0 25 25" fill="none" xmlns="http://www.w3.org/2000/svg">
<path d="M12.5003 9.37508C13.0732 9.37508 13.542 8.90633 13.542 8.33341V6.25008H15.6253C16.1982 6.25008 16.667 5.78133 16.667 5.20841C16.667 4.6355 16.1982 4.16675 15.6253 4.16675H13.542V2.08341C13.542 1.5105 13.0732 1.04175 12.5003 1.04175C11.9274 1.04175 11.4587 1.5105 11.4587 2.08341V4.16675H9.37533C8.80241 4.16675 8.33366 4.6355 8.33366 5.20841C8.33366 5.78133 8.80241 6.25008 9.37533 6.25008H11.4587V8.33341C11.4587 8.90633 11.9274 9.37508 12.5003 9.37508ZM7.29199 18.7501C6.14616 18.7501 5.21908 19.6876 5.21908 20.8334C5.21908 21.9792 6.14616 22.9167 7.29199 22.9167C8.43783 22.9167 9.37533 21.9792 9.37533 20.8334C9.37533 19.6876 8.43783 18.7501 7.29199 18.7501ZM17.7087 18.7501C16.5628 18.7501 15.6357 19.6876 15.6357 20.8334C15.6357 21.9792 16.5628 22.9167 17.7087 22.9167C18.8545 22.9167 19.792 21.9792 19.792 20.8334C19.792 19.6876 18.8545 18.7501 17.7087 18.7501ZM8.43783 13.5417H16.1982C16.9795 13.5417 17.667 13.1147 18.0212 12.4688L21.3962 6.073C21.5234 5.83214 21.5511 5.55094 21.4732 5.2899C21.3953 5.02886 21.218 4.80883 20.9795 4.67716C20.8587 4.611 20.7259 4.56956 20.589 4.55524C20.452 4.54092 20.3135 4.55402 20.1816 4.59378C20.0498 4.63353 19.9271 4.69914 19.8209 4.78679C19.7147 4.87443 19.6269 4.98235 19.5628 5.10425L16.1982 11.4584H8.88574L4.44824 2.08341H2.08366C1.51074 2.08341 1.04199 2.55216 1.04199 3.12508C1.04199 3.698 1.51074 4.16675 2.08366 4.16675H3.12533L6.87533 12.073L5.46908 14.6147C4.70866 16.0105 5.70866 17.7084 7.29199 17.7084H18.7503C19.3232 17.7084 19.792 17.2397 19.792 16.6667C19.792 16.0938 19.3232 15.6251 18.7503 15.6251H7.29199L8.43783 13.5417Z" fill="#2C50EE"/>
</svg>
