<svg width="28" height="28" viewBox="0 0 28 28" fill="none" xmlns="http://www.w3.org/2000/svg">
<g id="jam:twitter-square">
<g id="Group">
<path id="Vector" d="M19.8327 10.4388C19.4033 10.6255 18.9425 10.7538 18.4583 10.8098C18.953 10.5182 19.331 10.0562 19.5107 9.50666C19.0393 9.78137 18.525 9.97464 17.9893 10.0783C17.764 9.84217 17.493 9.65437 17.1927 9.5264C16.8924 9.39843 16.5693 9.33296 16.2429 9.334C14.921 9.334 13.85 10.3898 13.85 11.6907C13.85 11.875 13.871 12.0547 13.9118 12.2273C12.9637 12.1823 12.0354 11.9401 11.1861 11.5163C10.3368 11.0925 9.58518 10.4962 8.97918 9.76566C8.76634 10.1239 8.65428 10.5331 8.65485 10.9498C8.65485 11.7665 9.07835 12.4898 9.72002 12.911C9.3402 12.8991 8.96852 12.798 8.63502 12.6158V12.645C8.63862 13.1927 8.83195 13.7222 9.18209 14.1434C9.53222 14.5646 10.0175 14.8514 10.5553 14.955C10.2023 15.0484 9.83282 15.0619 9.47385 14.9947C9.63033 15.4658 9.92964 15.8766 10.3302 16.1699C10.7308 16.4633 11.2127 16.6246 11.7092 16.6315C10.8575 17.2878 9.81176 17.6424 8.73652 17.6395C8.54402 17.6395 8.35385 17.6278 8.16602 17.6068C9.26323 18.3013 10.5355 18.6692 11.834 18.6673C16.237 18.6673 18.6438 15.0763 18.6438 11.9613L18.6357 11.6557C19.105 11.3258 19.5106 10.9135 19.8327 10.4388Z" fill="white"/>
<path id="Vector_2" d="M6.99967 4.66732C6.38084 4.66732 5.78734 4.91315 5.34976 5.35074C4.91217 5.78832 4.66634 6.38181 4.66634 7.00065V21.0007C4.66634 21.6195 4.91217 22.213 5.34976 22.6506C5.78734 23.0882 6.38084 23.334 6.99967 23.334H20.9997C21.6185 23.334 22.212 23.0882 22.6496 22.6506C23.0872 22.213 23.333 21.6195 23.333 21.0007V7.00065C23.333 6.38181 23.0872 5.78832 22.6496 5.35074C22.212 4.91315 21.6185 4.66732 20.9997 4.66732H6.99967ZM6.99967 2.33398H20.9997C22.2374 2.33398 23.4243 2.82565 24.2995 3.70082C25.1747 4.57599 25.6663 5.76297 25.6663 7.00065V21.0007C25.6663 22.2383 25.1747 23.4253 24.2995 24.3005C23.4243 25.1757 22.2374 25.6673 20.9997 25.6673H6.99967C5.762 25.6673 4.57501 25.1757 3.69984 24.3005C2.82467 23.4253 2.33301 22.2383 2.33301 21.0007V7.00065C2.33301 5.76297 2.82467 4.57599 3.69984 3.70082C4.57501 2.82565 5.762 2.33398 6.99967 2.33398Z" fill="white"/>
</g>
</g>
</svg>
