<?xml version="1.0" encoding="UTF-8"?><svg id="Layer_2" xmlns="http://www.w3.org/2000/svg" viewBox="0 0 30 30"><defs><style>.cls-1{fill:#fff;}</style></defs><path class="cls-1" d="m20.81,24.69l2.33,2.29c.65.65,1.55.13,1.55-.63v-5.53l3.62-4.39c.14-.19.23-.42.25-.66.02-.24-.02-.48-.13-.69-.11-.21-.27-.4-.48-.52-.2-.13-.44-.19-.68-.19h-9.04c-1.03,0-1.68,1.29-1.03,2.07l3.62,4.39v3.88Zm-2.58-1.29H1.44v-3.88c0-3.49,6.85-5.17,10.33-5.17.78,0,1.68.13,2.71.26-.26.78-.13,1.68.13,2.45-.9-.13-1.94-.26-2.84-.26-3.88,0-7.88,1.94-7.88,2.71v1.42h13.69l.65.78v1.68ZM11.77,2.73c-2.84,0-5.17,2.33-5.17,5.17s2.33,5.17,5.17,5.17,5.17-2.33,5.17-5.17-2.33-5.17-5.17-5.17Zm0,7.75c-1.42,0-2.58-1.16-2.58-2.58s1.16-2.58,2.58-2.58,2.58,1.16,2.58,2.58-1.16,2.58-2.58,2.58Z"/></svg>