<?xml version="1.0" encoding="UTF-8"?><svg id="Layer_2" xmlns="http://www.w3.org/2000/svg" viewBox="0 0 30 30"><defs><style>.cls-1{fill:#fff;}</style></defs><path class="cls-1" d="m20.3,21.63v-3.98h-9.28v-5.3h9.28v-3.98l6.63,6.63-6.63,6.63ZM17.65,1.75c.7,0,1.38.28,1.87.78.5.5.78,1.17.78,1.87v2.65h-2.65v-2.65H5.72v21.2h11.93v-2.65h2.65v2.65c0,.7-.28,1.38-.78,1.87-.5.5-1.17.78-1.87.78H5.72c-.7,0-1.38-.28-1.87-.78-.5-.5-.78-1.17-.78-1.87V4.4c0-.7.28-1.38.78-1.87.5-.5,1.17-.78,1.87-.78h11.93Z"/></svg>