<?xml version="1.0" encoding="UTF-8"?><svg id="Layer_1" xmlns="http://www.w3.org/2000/svg" width="731" height="109" viewBox="0 0 731 109"><defs><style>.cls-1{fill:#1f1424;}.cls-1,.cls-2{stroke-width:0px;}.cls-2{fill:#ff3e78;}</style></defs><polygon class="cls-1" points="174 21.99 150.5 77.86 157.53 77.86 173.84 37.95 189.52 77.86 197.72 77.86 174.45 21.99 174 21.99"/><polygon class="cls-1" points="201.2 31.11 215.22 31.11 215.22 77.86 222.41 77.86 222.41 31.11 236.83 31.11 236.83 24.21 201.2 24.21 201.2 31.11"/><path class="cls-1" d="m282.18,25.84c-3.31-1.49-6.91-2.25-10.54-2.21-3.67-.03-7.31.72-10.67,2.21-3.29,1.4-6.28,3.42-8.8,5.96-2.51,2.51-4.53,5.48-5.93,8.75-1.41,3.33-2.11,6.92-2.08,10.54,0,3.76.74,7.48,2.21,10.94,1.39,3.25,3.41,6.19,5.93,8.67,2.5,2.46,5.44,4.43,8.67,5.8,3.34,1.38,6.92,2.09,10.54,2.08,3.62.03,7.21-.68,10.54-2.08,3.3-1.4,6.32-3.41,8.88-5.93,2.55-2.5,4.59-5.47,6.01-8.75,1.45-3.37,2.18-7,2.16-10.67.03-3.63-.71-7.22-2.16-10.54-2.92-6.58-8.18-11.84-14.76-14.76Zm7.77,33.26c-1.01,2.35-2.43,4.5-4.19,6.35-2.75,2.92-6.34,4.91-10.27,5.71-3.93.8-8.01.36-11.68-1.26-2.39-1.07-4.55-2.58-6.38-4.45-1.82-1.87-3.28-4.06-4.3-6.46-1.04-2.5-1.57-5.19-1.55-7.91l-.03.08c-.02-2.72.49-5.43,1.5-7.96.98-2.47,2.45-4.71,4.32-6.59,1.82-1.88,3.99-3.39,6.38-4.45,2.47-1.08,5.13-1.63,7.83-1.63s5.36.56,7.83,1.63c2.35,1.03,4.47,2.52,6.25,4.37,2.82,2.94,4.73,6.64,5.49,10.64.76,4,.35,8.14-1.19,11.92Z"/><polygon class="cls-1" points="338.99 60 312.59 22.52 312.59 77.86 312.59 77.97 319.58 77.97 319.58 44.34 338.87 71.22 339.03 71.22 358.76 43.11 358.76 77.86 365.88 77.86 365.88 22.52 365.72 22.52 338.99 60"/><rect class="cls-1" x="382.9" y="24.21" width="7.2" height="53.65"/><path class="cls-1" d="m438.14,70.27c-2.32.88-4.79,1.31-7.27,1.26-2.8.04-5.58-.48-8.17-1.55-2.36-.98-4.48-2.45-6.25-4.3-1.71-1.87-3.04-4.06-3.93-6.43-.91-2.63-1.36-5.39-1.34-8.17-.1-5.43,1.92-10.69,5.64-14.65,1.74-1.85,3.84-3.34,6.17-4.37,2.33-1.04,4.85-1.57,7.41-1.55,2.4-.03,4.77.42,6.98,1.34,1.9.77,3.71,1.71,5.43,2.82l2.95-6.54c-2.11-1.29-4.38-2.31-6.75-3.03-6.37-2-13.24-1.74-19.45.74-3.17,1.35-6.02,3.34-8.38,5.85-2.43,2.5-4.35,5.46-5.64,8.7-1.32,3.54-1.97,7.29-1.92,11.07-.02,3.54.6,7.06,1.85,10.38,1.25,3.16,3.08,6.06,5.4,8.54,2.39,2.51,5.27,4.5,8.46,5.85,3.58,1.47,7.41,2.23,11.28,2.21,2.24.02,4.48-.23,6.67-.74,1.87-.42,3.69-1.04,5.43-1.84,1.26-.59,2.47-1.26,3.64-2l-2.92-6.4c-1.62,1.17-3.4,2.12-5.27,2.82Z"/><polygon class="cls-1" points="497.87 56.2 459.75 21.15 459.3 21.15 459.3 77.89 470.21 77.89 469.98 45.6 508.19 80.1 508.48 80.1 508.48 23.26 497.65 23.26 497.87 56.2"/><path class="cls-1" d="m568.17,31.06c-2.55-2.61-5.57-4.7-8.91-6.17-3.41-1.47-7.08-2.23-10.79-2.23s-7.38.76-10.79,2.23c-6.69,2.95-11.99,8.34-14.84,15.07-1.44,3.37-2.17,7.01-2.16,10.67-.02,3.72.71,7.41,2.16,10.83,1.37,3.33,3.39,6.35,5.94,8.9,2.55,2.55,5.57,4.56,8.9,5.94,3.42,1.42,7.09,2.15,10.79,2.15s7.37-.73,10.79-2.15c3.32-1.4,6.34-3.41,8.91-5.93,2.6-2.54,4.67-5.56,6.09-8.91,1.5-3.41,2.26-7.1,2.24-10.83.01-3.68-.75-7.31-2.24-10.67-1.42-3.34-3.49-6.37-6.09-8.91Zm-4.14,26.41c-.81,2.04-1.98,3.93-3.45,5.56-1.48,1.59-3.28,2.85-5.27,3.72-2.03.9-4.23,1.36-6.46,1.34-2.32.02-4.61-.44-6.75-1.34-2.02-.89-3.85-2.15-5.4-3.72-1.53-1.63-2.76-3.51-3.64-5.56-.85-2.17-1.28-4.49-1.27-6.83,0-2.36.44-4.71,1.32-6.9.81-2.07,2.01-3.96,3.56-5.56,2.31-2.45,5.32-4.13,8.62-4.81,3.3-.68,6.73-.32,9.82,1.02,2.01.88,3.8,2.17,5.27,3.79,1.54,1.6,2.75,3.49,3.56,5.56.91,2.19,1.36,4.54,1.34,6.9.01,2.33-.42,4.65-1.27,6.83Z"/><path class="cls-1" d="m622.3,54.43c1.51-1.78,2.62-3.85,3.27-6.09.68-2.16,1.02-4.41,1.03-6.67.05-2.59-.43-5.16-1.4-7.56-.91-2.24-2.34-4.22-4.16-5.8-1.92-1.71-4.2-2.98-6.67-3.72-2.95-.93-6.03-1.39-9.12-1.34h-16.55v54.63h10.75v-17.37h7.16l11.55,17.37h12.54l-12.71-19.83c1.63-.95,3.09-2.17,4.31-3.63Zm-23.01-4.3v-16.52h7.72c1.54-.07,3.08.26,4.45.97,1.08.53,1.99,1.35,2.64,2.37.58.85.99,1.79,1.21,2.79.18.73.27,1.47.29,2.21-.01.9-.16,1.79-.45,2.64-.27.96-.73,1.85-1.34,2.64-.68.91-1.59,1.63-2.64,2.08-1.28.58-2.68.86-4.09.82h-7.8Z"/><polygon class="cls-1" points="636.24 33.64 649.2 33.64 649.2 77.86 659.95 77.86 659.95 33.64 673.13 33.64 673.13 23.26 636.24 23.26 636.24 33.64"/><polygon class="cls-1" points="720.2 45.29 695.79 45.29 695.79 23.26 685.04 23.26 685.04 77.86 695.79 77.86 695.79 55.67 720.09 55.67 720.09 77.86 730.84 77.86 730.84 23.26 720.2 23.26 720.2 45.29"/><path class="cls-1" d="m52.78,12.82l-.21.42c-1.79-1.55-3.61-3-5.27-4.27,1.53.95,3.14,2,4.74,3.22l.74.63Z"/><path class="cls-1" d="m26.11,71.22c-.34.92-.63,1.84-.92,2.64-.29.79-.58,1.84-.84,2.64-.13.45-.26.87-.37,1.32-.26.95-.5,1.9-.74,2.82-.24.92-.45,1.9-.63,2.82-.32,1.58-.58,3.14-.79,4.64-1.13,8.22-.53,15.18,1.92,19.84-3.79-3.93-5.27-10.83-4.85-19.53,0-1.9.32-3.87.63-5.96,0-.92.29-1.9.5-2.87.21-.97.34-1.9.58-2.87,0-.55.24-1.08.37-1.63.24-.95.47-1.9.74-2.85s.53-1.87.82-2.82c2.82-9.08,6.59-17.83,11.25-26.12,5.19-9.54,11.54-18.39,18.92-26.35.66-.71,1.34-1.4,2-2.08l.45-.42c.54-.54,1.1-1.07,1.66-1.58l.45-.42c.74-.69,1.45-1.32,2.16-1.92C69.8,1.65,79.79-2.01,86.54,1.75c4.43,2.45,6.88,7.75,7.48,14.92.32,5.54-.11,11.1-1.29,16.52.74-5.32.2-10.74-1.58-15.81-1.02-2.61-2.87-4.81-5.27-6.25-5.27-3.03-12.89-1.13-21.08,4.48-.79.53-1.58,1.11-2.37,1.74-.25.17-.49.35-.71.55-.53.4-1.03.82-1.55,1.27l-.71.58c-.71.63-1.42,1.26-2.13,1.95-8.6,8.25-15.9,17.74-21.66,28.17-3.82,6.81-7.01,13.96-9.54,21.35Z"/><path class="cls-1" d="m46.95,8.74c-6.54-4.69-12.62-7.27-17.89-7.3,5.27-1.55,12.49.47,20.19,5.27,1.98,1.23,3.89,2.58,5.72,4.03l-.32.29-1.87,1.79-.95-.74c-1.61-1.21-3.22-2.27-4.74-3.22l-.13-.13Z"/><path class="cls-1" d="m123.22,59.81c-1.37,5.27-6.38,10.17-13.97,14.26l-.37.18h-.16c-2.56,1.33-5.2,2.51-7.91,3.5v-.5c-.24-.76-.42-1.45-.61-2.24v-.47c2.64-.84,5.03-1.77,7.27-2.64,7.46-3.32,13.02-7.56,15.73-12.1Z"/><path class="cls-1" d="m88.25,81.76c-8.33,1.92-16.83,3.06-25.38,3.4-12.4.65-24.84-.53-36.89-3.5.21-.92.47-1.87.74-2.82.08-.38.19-.75.32-1.11.24-.9.53-1.82.82-2.64,12.77,4,26.16,5.71,39.53,5.03,6.78-.21,13.54-.95,20.21-2.21l.24.69v.16c0,.61.18,1.19.26,1.74.08.55.13.76.16,1.26Z"/><path class="cls-1" d="m98.69,81.76c2.11,11.91.4,21.24-5.61,25.11-4.24,2.64-10.07,2.4-16.63-.45-5.06-2.29-9.78-5.27-14.02-8.85,4.37,3.18,9.44,5.27,14.78,6.09,2.75.35,5.53-.23,7.91-1.66,4.72-3,6.69-9.51,6.14-18.03,0-.95,0-1.9-.24-2.9v-1c0-.34-.18-1.24-.29-1.9l-.16-.95c-.18-.92-.37-1.87-.61-2.85-3.12-12.4-8.29-24.19-15.28-34.89-3.9-6.15-8.31-11.96-13.18-17.37l.82-.69c.45-.4.93-.78,1.42-1.13l.37-.32.47-.34c6.27,6.46,11.88,13.52,16.76,21.08,6.49,9.88,11.58,20.61,15.13,31.89.28.95.54,1.83.79,2.64l.32.74c.18.74.37,1.45.53,2.16v.69c.24.97.42,1.92.58,2.93Z"/><path class="cls-1" d="m19.1,70.98c-.29.95-.58,1.92-.76,2.87-.18.95-.32,1.29-.47,1.92-.16.63-.42,1.92-.61,2.87C6.79,74.44.26,68.59.07,61.66c-.32-5.06,2.93-9.94,8.72-14.15,4.54-3.16,9.48-5.68,14.71-7.48-4.91,2.13-9.24,5.41-12.62,9.57-1.73,2.21-2.66,4.94-2.64,7.75.13,5.22,4.14,9.91,10.86,13.65Z"/><path class="cls-2" d="m59.02,72.51c8.67,0,15.71-7.03,15.71-15.71s-7.03-15.71-15.71-15.71-15.71,7.03-15.71,15.71,7.03,15.71,15.71,15.71Z"/></svg>