<svg width="75" height="75" viewBox="0 0 75 75" fill="none" xmlns="http://www.w3.org/2000/svg">
<g id="material-symbols:home-work-outline-rounded">
<path id="Vector" d="M53.125 28.125H59.375V21.875H53.125V28.125ZM53.125 40.625H59.375V34.375H53.125V40.625ZM53.125 53.125H59.375V46.875H53.125V53.125ZM53.125 65.625V59.375H65.625V15.625H37.5V20L31.25 15.4687C31.25 13.8021 31.8625 12.3698 33.0875 11.1719C34.3125 9.97396 35.7834 9.375 37.5 9.375H65.625C67.3438 9.375 68.8157 9.9875 70.0406 11.2125C71.2656 12.4375 71.8771 13.9083 71.875 15.625V59.375C71.875 61.0938 71.2625 62.5656 70.0375 63.7906C68.8125 65.0156 67.3417 65.6271 65.625 65.625H53.125ZM3.12501 62.5V37.5781C3.12501 36.5365 3.35939 35.5729 3.82814 34.6875C4.29689 33.8021 4.94793 33.0729 5.78126 32.5L21.4063 21.3281C22.5 20.5469 23.6979 20.1562 25 20.1562C26.3021 20.1562 27.5 20.5469 28.5938 21.3281L44.2188 32.5C45.0521 33.0729 45.7031 33.8021 46.1719 34.6875C46.6406 35.5729 46.875 36.5365 46.875 37.5781V62.5C46.875 63.3854 46.575 64.1281 45.975 64.7281C45.375 65.3281 44.6334 65.6271 43.75 65.625H28.125V50H21.875V65.625H6.25001C5.36459 65.625 4.62189 65.325 4.02189 64.725C3.42189 64.125 3.12293 63.3833 3.12501 62.5ZM9.37501 59.375H15.625V43.75H34.375V59.375H40.625V37.5L25 26.4062L9.37501 37.5V59.375Z" fill="#5943FE"/>
</g>
</svg>
