<svg width="20" height="20" viewBox="0 0 20 20" fill="none" xmlns="http://www.w3.org/2000/svg">
<g id="material-symbols:mail">
<path id="Vector" d="M3.33366 16.6673C2.87533 16.6673 2.4831 16.5043 2.15699 16.1782C1.83033 15.8515 1.66699 15.459 1.66699 15.0007V5.00065C1.66699 4.54232 1.83033 4.1501 2.15699 3.82398C2.4831 3.49732 2.87533 3.33398 3.33366 3.33398H16.667C17.1253 3.33398 17.5178 3.49732 17.8445 3.82398C18.1706 4.1501 18.3337 4.54232 18.3337 5.00065V15.0007C18.3337 15.459 18.1706 15.8515 17.8445 16.1782C17.5178 16.5043 17.1253 16.6673 16.667 16.6673H3.33366ZM10.0003 10.834L16.667 6.66732V5.00065L10.0003 9.16732L3.33366 5.00065V6.66732L10.0003 10.834Z" fill="white"/>
</g>
</svg>
