<svg width="45" height="45" viewBox="0 0 45 45" fill="none" xmlns="http://www.w3.org/2000/svg">
<g id="material-symbols:other-admission-outline-rounded">
<path id="Vector" d="M28.5938 35.1563C28.9688 35.1563 29.2969 35.0156 29.5781 34.7344C29.8594 34.4531 30 34.125 30 33.75C30 33.375 29.8594 33.0469 29.5781 32.7656C29.2969 32.4844 28.9688 32.3438 28.5938 32.3438C28.2188 32.3438 27.8906 32.4844 27.6094 32.7656C27.3281 33.0469 27.1875 33.375 27.1875 33.75C27.1875 34.125 27.3281 34.4531 27.6094 34.7344C27.8906 35.0156 28.2188 35.1563 28.5938 35.1563ZM33.75 35.1563C34.125 35.1563 34.4531 35.0156 34.7344 34.7344C35.0156 34.4531 35.1563 34.125 35.1563 33.75C35.1563 33.375 35.0156 33.0469 34.7344 32.7656C34.4531 32.4844 34.125 32.3438 33.75 32.3438C33.375 32.3438 33.0469 32.4844 32.7656 32.7656C32.4844 33.0469 32.3438 33.375 32.3438 33.75C32.3438 34.125 32.4844 34.4531 32.7656 34.7344C33.0469 35.0156 33.375 35.1563 33.75 35.1563ZM38.9063 35.1563C39.2813 35.1563 39.6094 35.0156 39.8906 34.7344C40.1719 34.4531 40.3125 34.125 40.3125 33.75C40.3125 33.375 40.1719 33.0469 39.8906 32.7656C39.6094 32.4844 39.2813 32.3438 38.9063 32.3438C38.5313 32.3438 38.2031 32.4844 37.9219 32.7656C37.6406 33.0469 37.5 33.375 37.5 33.75C37.5 34.125 37.6406 34.4531 37.9219 34.7344C38.2031 35.0156 38.5313 35.1563 38.9063 35.1563ZM9.375 39.375C8.34375 39.375 7.46063 39.0075 6.72563 38.2725C5.99063 37.5375 5.62375 36.655 5.625 35.625V9.375C5.625 8.34375 5.9925 7.46063 6.7275 6.72563C7.4625 5.99063 8.345 5.62375 9.375 5.625H35.625C36.6563 5.625 37.5394 5.9925 38.2744 6.7275C39.0094 7.4625 39.3763 8.345 39.375 9.375V21.9375C38.7813 21.6563 38.1719 21.4138 37.5469 21.21C36.9219 21.0063 36.2813 20.8581 35.625 20.7656V9.375H9.375V35.625H20.7188C20.8125 36.3125 20.9613 36.9688 21.165 37.5938C21.3688 38.2188 21.6106 38.8125 21.8906 39.375H9.375ZM9.375 33.75V35.625V9.375V20.7656V20.625V33.75ZM13.125 30C13.125 30.5313 13.305 30.9769 13.665 31.3369C14.025 31.6969 14.47 31.8763 15 31.875H20.7656C20.8594 31.2188 21.0081 30.5781 21.2119 29.9531C21.4156 29.3281 21.6419 28.7188 21.8906 28.125H15C14.4688 28.125 14.0231 28.305 13.6631 28.665C13.3031 29.025 13.1238 29.47 13.125 30ZM13.125 22.5C13.125 23.0313 13.305 23.4769 13.665 23.8369C14.025 24.1969 14.47 24.3763 15 24.375H24.5625C25.5625 23.4375 26.68 22.6563 27.915 22.0313C29.15 21.4063 30.47 20.9844 31.875 20.7656C31.5938 20.7031 31.2813 20.6638 30.9375 20.6475C30.5938 20.6313 30.2813 20.6238 30 20.625H15C14.4688 20.625 14.0231 20.805 13.6631 21.165C13.3031 21.525 13.1238 21.97 13.125 22.5ZM13.125 15C13.125 15.5313 13.305 15.9769 13.665 16.3369C14.025 16.6969 14.47 16.8763 15 16.875H30C30.5313 16.875 30.9769 16.695 31.3369 16.335C31.6969 15.975 31.8763 15.53 31.875 15C31.875 14.4688 31.695 14.0231 31.335 13.6631C30.975 13.3031 30.53 13.1238 30 13.125H15C14.4688 13.125 14.0231 13.305 13.6631 13.665C13.3031 14.025 13.1238 14.47 13.125 15ZM33.75 43.125C31.1563 43.125 28.945 42.2106 27.1163 40.3819C25.2875 38.5531 24.3738 36.3425 24.375 33.75C24.375 31.1563 25.2894 28.945 27.1181 27.1163C28.9469 25.2875 31.1575 24.3738 33.75 24.375C36.3438 24.375 38.555 25.2894 40.3838 27.1181C42.2125 28.9469 43.1263 31.1575 43.125 33.75C43.125 36.3438 42.2106 38.555 40.3819 40.3838C38.5531 42.2125 36.3425 43.1263 33.75 43.125Z" fill="white"/>
</g>
</svg>
