<svg width="80" height="80" viewBox="0 0 80 80" fill="none" xmlns="http://www.w3.org/2000/svg">
<g id="material-symbols:model-training-outline-rounded">
<path id="Vector" d="M36.6667 61.6666C36.6667 60.3889 36.2356 59.1255 35.3733 57.8766C34.5111 56.6278 33.5533 55.3222 32.5 53.96C31.4444 52.5977 30.4856 51.1811 29.6233 49.71C28.7611 48.2389 28.3311 46.6689 28.3333 45C28.3333 41.7778 29.4722 39.0278 31.75 36.75C34.0278 34.4722 36.7778 33.3333 40 33.3333C43.2222 33.3333 45.9722 34.4722 48.25 36.75C50.5278 39.0278 51.6667 41.7778 51.6667 45C51.6667 46.6666 51.2356 48.2366 50.3733 49.71C49.5111 51.1833 48.5533 52.5989 47.5 53.9566C46.4444 55.3189 45.4856 56.6244 44.6233 57.8733C43.7611 59.1222 43.3311 60.3866 43.3333 61.6666H36.6667ZM40 70C39.0556 70 38.2633 69.68 37.6233 69.04C36.9833 68.4 36.6644 67.6089 36.6667 66.6666V65H43.3333V66.6666C43.3333 67.6111 43.0133 68.4033 42.3733 69.0433C41.7333 69.6833 40.9422 70.0022 40 70ZM60 60C59.5 59.5 59.2078 58.8611 59.1233 58.0833C59.0389 57.3055 59.22 56.6111 59.6667 56C60.8333 54.1666 61.7367 52.18 62.3767 50.04C63.0167 47.9 63.3356 45.6644 63.3333 43.3333C63.3333 40.2778 62.7911 37.4022 61.7067 34.7066C60.6222 32.0111 59.1089 29.6089 57.1667 27.5C56.5556 26.7778 56.2367 25.9855 56.21 25.1233C56.1833 24.2611 56.5022 23.4978 57.1667 22.8333C57.8333 22.1667 58.6389 21.8333 59.5833 21.8333C60.5278 21.8333 61.3056 22.1667 61.9167 22.8333C64.4167 25.5 66.3889 28.5833 67.8333 32.0833C69.2778 35.5833 70 39.3333 70 43.3333C70 46.3333 69.5833 49.2089 68.75 51.96C67.9167 54.7111 66.75 57.2522 65.25 59.5833C64.6389 60.5277 63.8056 61.0277 62.75 61.0833C61.6944 61.1389 60.7778 60.7777 60 60ZM14.75 59.5833C13.25 57.25 12.0833 54.7077 11.25 51.9566C10.4167 49.2055 10 46.3311 10 43.3333C10 35 12.9167 27.9167 18.75 22.0833C24.5833 16.25 31.6667 13.3333 40 13.3333H40.6667L37.6667 10.3333C37.0556 9.72222 36.75 8.94444 36.75 8C36.75 7.05555 37.0556 6.27778 37.6667 5.66667C38.2778 5.05556 39.0556 4.75 40 4.75C40.9444 4.75 41.7222 5.05556 42.3333 5.66667L51 14.3333C51.3333 14.6667 51.5689 15.0278 51.7067 15.4167C51.8444 15.8055 51.9144 16.2222 51.9167 16.6667C51.9167 17.1111 51.8467 17.5278 51.7067 17.9167C51.5667 18.3055 51.3311 18.6667 51 19L42.3333 27.6667C41.6667 28.3333 40.8889 28.6533 40 28.6267C39.1111 28.6 38.3333 28.2522 37.6667 27.5833C37 26.9167 36.6667 26.1244 36.6667 25.2067C36.6667 24.2889 37 23.4978 37.6667 22.8333L40.5 20H40C33.5556 20 28.0556 22.2778 23.5 26.8333C18.9444 31.3889 16.6667 36.8889 16.6667 43.3333C16.6667 45.6666 16.9867 47.9033 17.6267 50.0433C18.2667 52.1833 19.1689 54.1689 20.3333 56C20.7778 56.6111 20.9589 57.3055 20.8767 58.0833C20.7944 58.8611 20.5022 59.5 20 60C19.2222 60.7777 18.3056 61.1389 17.25 61.0833C16.1944 61.0277 15.3611 60.5277 14.75 59.5833Z" fill="#5943FE"/>
</g>
</svg>
