<svg width="20" height="20" viewBox="0 0 20 20" fill="none" xmlns="http://www.w3.org/2000/svg">
<g id="material-symbols:phone-in-talk-sharp">
<path id="Vector" d="M15.8333 9.95898C15.8333 8.33398 15.2672 6.95537 14.135 5.82315C13.0033 4.69148 11.625 4.12565 10 4.12565V2.45898C11.0417 2.45898 12.0175 2.65676 12.9275 3.05232C13.8369 3.44843 14.6286 3.98343 15.3025 4.65732C15.9758 5.33065 16.5106 6.12232 16.9067 7.03232C17.3022 7.94176 17.5 8.91732 17.5 9.95898H15.8333ZM12.5 9.95898C12.5 9.26454 12.2569 8.67426 11.7708 8.18815C11.2847 7.70204 10.6944 7.45898 10 7.45898V5.79232C11.1528 5.79232 12.1356 6.19843 12.9483 7.01065C13.7606 7.82343 14.1667 8.80621 14.1667 9.95898H12.5ZM16.625 17.5007C14.8333 17.5007 13.0869 17.1048 11.3858 16.3132C9.68417 15.5215 8.17722 14.4659 6.865 13.1465C5.55222 11.827 4.49667 10.3165 3.69833 8.61482C2.89944 6.91371 2.5 5.16732 2.5 3.37565V2.93815C2.5 2.78537 2.51389 2.63954 2.54167 2.50065H7.41667L8.1875 6.68815L5.8125 9.08398C6.39583 10.084 7.12861 11.0215 8.01083 11.8965C8.8925 12.7715 9.86111 13.5284 10.9167 14.1673L13.3333 11.7507L17.5 12.584V17.459C17.3611 17.4729 17.2153 17.4834 17.0625 17.4907C16.9097 17.4973 16.7639 17.5007 16.625 17.5007Z" fill="white"/>
</g>
</svg>
