<svg width="23" height="23" viewBox="0 0 23 23" fill="none" xmlns="http://www.w3.org/2000/svg">
<g id="material-symbols:arrow-downward-rounded">
<path id="Vector" d="M18.7595 11.4999C18.7595 11.6276 18.7397 11.7474 18.7001 11.8592C18.6605 11.971 18.5925 12.0749 18.496 12.1707L12.171 18.4957C11.9793 18.6874 11.7519 18.7832 11.4887 18.7832C11.2254 18.7832 10.9977 18.6874 10.8054 18.4957C10.6137 18.304 10.5179 18.0804 10.5179 17.8249C10.5179 17.5693 10.6137 17.3457 10.8054 17.154L15.5012 12.4582L4.76787 12.4582C4.49634 12.4582 4.27273 12.3662 4.09704 12.1822C3.92134 11.9982 3.8335 11.7708 3.8335 11.4999C3.8335 11.2283 3.9255 11.0006 4.1095 10.8166C4.2935 10.6326 4.52094 10.5409 4.79183 10.5415L15.5012 10.5415L10.8054 5.8457C10.6137 5.65404 10.5179 5.43042 10.5179 5.17487C10.5179 4.91931 10.6137 4.6957 10.8054 4.50404C10.997 4.31237 11.2248 4.21654 11.4887 4.21654C11.7525 4.21654 11.98 4.31237 12.171 4.50404L18.496 10.829C18.5918 10.9249 18.6599 11.0287 18.7001 11.1405C18.7404 11.2523 18.7602 11.3721 18.7595 11.4999Z" fill="white"/>
</g>
</svg>
