<svg width="55" height="55" viewBox="0 0 55 55" fill="none" xmlns="http://www.w3.org/2000/svg">
<g id="mdi:teach-poll" clip-path="url(#clip0_1_216823)">
<path id="Vector" d="M41.2962 34.375C43.8171 34.375 45.8796 32.3125 45.8796 29.7917V4.58333C45.8796 2.0625 43.8171 0 41.2962 0H17.2337C17.9212 1.375 18.3796 2.97917 18.3796 4.58333H41.2962V29.7917H20.6712V34.375M29.8379 11.4583V16.0417H16.0879V45.8333H11.5046V32.0833H6.92123V45.8333H2.33789V27.5H-1.09961V16.0417C-1.09961 13.5208 0.962891 11.4583 3.48373 11.4583H29.8379ZM13.7962 4.58333C13.7962 7.10416 11.7337 9.16666 9.21289 9.16666C6.69206 9.16666 4.62956 7.10416 4.62956 4.58333C4.62956 2.0625 6.69206 0 9.21289 0C11.7337 0 13.7962 2.0625 13.7962 4.58333ZM34.4212 9.16666H39.0046V27.5H34.4212V9.16666ZM27.5462 18.3333H32.1296V27.5H27.5462V18.3333ZM20.6712 18.3333H25.2546V27.5H20.6712V18.3333Z" fill="white"/>
</g>
<defs>
<clipPath id="clip0_1_216823">
<rect width="55" height="55" fill="white"/>
</clipPath>
</defs>
</svg>
