<svg width="80" height="70" viewBox="0 0 80 70" fill="none" xmlns="http://www.w3.org/2000/svg">
<g id="ri:motorbike-fill">
<path id="Vector" d="M27.8833 29.1667L37.3333 23.3333H48.9734L45.3334 14.5833H36.6667V8.75H50L53.64 17.5H66.6667V26.25H57.28L62.1333 37.9225C65.8159 38.025 69.3265 39.3097 71.9959 41.5319C74.6652 43.754 76.3065 46.758 76.6068 49.9711C76.9071 53.1843 75.8454 56.3817 73.6241 58.9538C71.4028 61.5259 68.1774 63.2926 64.5628 63.9172C60.9482 64.5418 57.1973 63.9805 54.0254 62.3404C50.8535 60.7002 48.4823 58.096 47.3642 55.0242C46.246 51.9524 46.459 48.6279 47.9626 45.6847C49.4662 42.7415 52.1551 40.3855 55.5167 39.0659L51.3967 29.1667H48.24L42.9667 46.2875L33.2167 49.4054C33.5686 51.862 33.1192 54.3555 31.9206 56.5981C30.7219 58.8407 28.8228 60.741 26.4424 62.0794C24.0621 63.4179 21.2977 64.1399 18.4684 64.1623C15.6391 64.1846 12.8602 63.5062 10.4527 62.2056C8.04519 60.9049 6.10721 59.0349 4.86251 56.8116C3.61781 54.5883 3.11716 52.1022 3.41838 49.6405C3.71959 47.1788 4.81038 44.8419 6.5648 42.8995C8.31922 40.9572 10.6657 39.4886 13.3333 38.6633V35H6.66668V29.1667H27.8833ZM18.3333 58.3334C20.5435 58.3334 22.6631 57.5651 24.2259 56.1977C25.7887 54.8302 26.6667 52.9756 26.6667 51.0417C26.6667 49.1078 25.7887 47.2532 24.2259 45.8857C22.6631 44.5182 20.5435 43.75 18.3333 43.75C16.1232 43.75 14.0036 44.5182 12.4408 45.8857C10.878 47.2532 10 49.1078 10 51.0417C10 52.9756 10.878 54.8302 12.4408 56.1977C14.0036 57.5651 16.1232 58.3334 18.3333 58.3334ZM61.6667 58.3334C63.8768 58.3334 65.9964 57.5651 67.5592 56.1977C69.122 54.8302 70 52.9756 70 51.0417C70 49.1078 69.122 47.2532 67.5592 45.8857C65.9964 44.5182 63.8768 43.75 61.6667 43.75C59.4565 43.75 57.3369 44.5182 55.7741 45.8857C54.2113 47.2532 53.3333 49.1078 53.3333 51.0417C53.3333 52.9756 54.2113 54.8302 55.7741 56.1977C57.3369 57.5651 59.4565 58.3334 61.6667 58.3334Z" fill="url(#paint0_linear_1_200183)"/>
</g>
<defs>
<linearGradient id="paint0_linear_1_200183" x1="67.7334" y1="16.8" x2="12.7132" y2="68.8387" gradientUnits="userSpaceOnUse">
<stop stop-color="#2C50EE"/>
<stop offset="0.94189" stop-color="#6470FF"/>
</linearGradient>
</defs>
</svg>
