<svg width="22" height="22" viewBox="0 0 22 22" fill="none" xmlns="http://www.w3.org/2000/svg">
<g id="number-3 1">
<g id="Group">
<path id="Vector" fill-rule="evenodd" clip-rule="evenodd" d="M11 3.4375C6.82335 3.4375 3.4375 6.82335 3.4375 11C3.4375 15.1766 6.82335 18.5625 11 18.5625C15.1766 18.5625 18.5625 15.1766 18.5625 11C18.5625 6.82335 15.1766 3.4375 11 3.4375ZM2.0625 11C2.0625 6.06396 6.06396 2.0625 11 2.0625C15.936 2.0625 19.9375 6.06396 19.9375 11C19.9375 15.936 15.936 19.9375 11 19.9375C6.06396 19.9375 2.0625 15.936 2.0625 11Z" fill="#ED1B2E"/>
<path id="Vector_2" fill-rule="evenodd" clip-rule="evenodd" d="M8.25 7.21875C8.25 6.83906 8.55779 6.53125 8.9375 6.53125H13.0625C13.3189 6.53125 13.5539 6.67388 13.6723 6.90126C13.7907 7.12862 13.7728 7.403 13.6257 7.61303L11.8181 10.1953C11.9191 10.2362 12.018 10.2825 12.1146 10.3342C12.5633 10.574 12.9459 10.9208 13.2285 11.3438C13.5112 11.7668 13.6851 12.253 13.7349 12.7593C13.7848 13.2657 13.709 13.7764 13.5143 14.2464C13.3196 14.7165 13.012 15.1313 12.6187 15.454C12.2255 15.7768 11.7587 15.9975 11.2597 16.0968C10.7608 16.1961 10.245 16.1708 9.7581 16.0231C9.27128 15.8754 8.82832 15.61 8.46856 15.2502C8.20009 14.9817 8.20009 14.5465 8.46856 14.2779C8.73702 14.0095 9.17228 14.0095 9.44082 14.2779C9.64067 14.4777 9.88673 14.6253 10.1572 14.7073C10.4277 14.7893 10.7142 14.8034 10.9914 14.7483C11.2686 14.693 11.5279 14.5704 11.7464 14.3911C11.9649 14.2118 12.1358 13.9814 12.244 13.7202C12.3522 13.4591 12.3942 13.1754 12.3665 12.8941C12.3388 12.6128 12.2422 12.3427 12.0852 12.1077C11.9282 11.8726 11.7156 11.68 11.4664 11.5468C11.2171 11.4135 10.9388 11.3438 10.6562 11.3438C10.3999 11.3438 10.1648 11.2011 10.0464 10.9737C9.92805 10.7464 9.94599 10.472 10.0931 10.262L11.742 7.90625H8.9375C8.55779 7.90625 8.25 7.59846 8.25 7.21875Z" fill="#ED1B2E"/>
</g>
</g>
</svg>
