<svg width="16" height="16" viewBox="0 0 16 16" fill="none" xmlns="http://www.w3.org/2000/svg">
<g clip-path="url(#clip0_1_217019)">
<path d="M10.4547 7.99998C9.82399 7.99998 9.2141 7.71835 8.73675 7.20725C8.27258 6.70872 7.98912 6.04392 7.93911 5.33587C7.88573 4.58057 8.11612 3.88601 8.58765 3.37982C9.05918 2.87362 9.71845 2.60059 10.4547 2.60059C11.1858 2.60059 11.8469 2.87853 12.3169 3.3835C12.7915 3.89337 13.0225 4.5867 12.9691 5.33556C12.9179 6.04454 12.6347 6.70903 12.1715 7.20694C11.6954 7.71835 11.0858 7.99998 10.4547 7.99998ZM14.4991 13.3994H6.41071C6.28067 13.4001 6.1522 13.3709 6.03519 13.3142C5.91819 13.2574 5.81576 13.1746 5.73579 13.072C5.65096 12.9609 5.59239 12.8319 5.56444 12.6949C5.5365 12.5579 5.53991 12.4163 5.57442 12.2808C5.83273 11.2436 6.47268 10.3834 7.42494 9.79343C8.27013 9.27006 9.34602 8.98168 10.4547 8.98168C11.5852 8.98168 12.6329 9.25779 13.483 9.78085C14.4374 10.3677 15.0783 11.2329 15.3354 12.2827C15.3695 12.4183 15.3725 12.5598 15.3442 12.6968C15.316 12.8337 15.2571 12.9625 15.1721 13.0736C15.0923 13.1756 14.9901 13.2581 14.8734 13.3145C14.7567 13.371 14.6287 13.4 14.4991 13.3994ZM4.65653 8.12269C3.57695 8.12269 2.62777 7.11889 2.53972 5.88532C2.49616 5.25334 2.69311 4.66892 3.09193 4.24034C3.48645 3.81606 4.04296 3.58229 4.65653 3.58229C5.27009 3.58229 5.8223 3.81729 6.21897 4.24403C6.62086 4.67598 6.8172 5.25917 6.77118 5.88593C6.68314 7.1192 5.73426 8.12269 4.65653 8.12269ZM6.67087 9.08752C6.13123 8.82369 5.43085 8.69177 4.65683 8.69177C3.75305 8.69177 2.87534 8.92738 2.18508 9.35504C1.40247 9.84068 0.876031 10.5478 0.66343 11.4016C0.632318 11.5244 0.629375 11.6526 0.654822 11.7767C0.680269 11.9008 0.733448 12.0176 0.81038 12.1182C0.883378 12.212 0.976897 12.2877 1.08374 12.3396C1.19059 12.3915 1.30792 12.4182 1.42671 12.4177H4.83201C4.88948 12.4177 4.94513 12.3975 4.98925 12.3606C5.03337 12.3238 5.06317 12.2727 5.07344 12.2161C5.07682 12.1968 5.08111 12.1774 5.08602 12.1584C5.34617 11.1135 5.95575 10.2306 6.85647 9.58697C6.8896 9.56309 6.91624 9.53132 6.93399 9.49454C6.95174 9.45776 6.96003 9.41713 6.95811 9.37634C6.95619 9.33555 6.94413 9.29588 6.923 9.26093C6.90188 9.22598 6.87237 9.19685 6.83714 9.17618C6.78898 9.14796 6.73376 9.1182 6.67087 9.08752Z" fill="white"/>
</g>
<defs>
<clipPath id="clip0_1_217019">
<rect width="15.7073" height="15.7073" fill="white" transform="translate(0.146484 0.146484)"/>
</clipPath>
</defs>
</svg>
