<?xml version="1.0" encoding="UTF-8"?><svg id="Layer_2" xmlns="http://www.w3.org/2000/svg" viewBox="0 0 30 30"><defs><style>.cls-1{fill:#fff;}</style></defs><path class="cls-1" d="m24.43,20.24c-.78,0-1.49.23-2.12.59l-2.13-2.13-1.48,1.48,2.13,2.13c-.39.64-.59,1.37-.59,2.12,0,2.31,1.88,4.19,4.19,4.19.37,0,.73-.06,1.07-.16l-2.55-2.55c-.19-.19-.35-.43-.46-.68-.11-.25-.16-.53-.16-.8,0-.41.12-.82.36-1.16.23-.34.56-.61.94-.77.38-.16.8-.2,1.21-.12.41.08.78.28,1.07.57l2.55,2.55c.1-.35.15-.71.16-1.07,0-2.31-1.88-4.19-4.19-4.19Zm-4.25-8.95l3.94-3.95c.41.2.86.31,1.35.31.62,0,1.23-.18,1.75-.53.52-.35.92-.84,1.16-1.41.24-.57.3-1.21.18-1.82-.12-.61-.42-1.17-.86-1.61-.44-.44-1-.74-1.61-.86-.61-.12-1.24-.06-1.82.18-.57.24-1.07.64-1.41,1.16-.35.52-.53,1.13-.53,1.75,0,.48.12.94.31,1.35l-3.95,3.95,1.48,1.48h0Zm5.29-7.82c.58,0,1.05.47,1.05,1.05s-.47,1.05-1.05,1.05-1.05-.47-1.05-1.05.47-1.05,1.05-1.05Zm-10.48,7.34c-1.11,0-2.18.44-2.96,1.23-.79.79-1.23,1.85-1.23,2.96,0,.78.23,1.49.59,2.12l-5.53,5.53c-.42-.2-.88-.31-1.35-.31-.62,0-1.23.18-1.75.53-.52.35-.92.84-1.16,1.41-.24.57-.3,1.21-.18,1.82.12.61.42,1.17.86,1.61.44.44,1,.74,1.61.86s1.24.06,1.82-.18c.57-.24,1.07-.64,1.41-1.16.35-.52.53-1.13.53-1.75,0-.48-.12-.94-.31-1.35l5.53-5.53c.64.38,1.37.59,2.12.59,1.11,0,2.18-.44,2.96-1.23s1.23-1.85,1.23-2.96-.44-2.18-1.23-2.96c-.79-.79-1.85-1.23-2.96-1.23Zm-10.48,15.72c-.27-.01-.52-.13-.71-.32-.19-.2-.29-.46-.29-.73s.1-.53.29-.73c.19-.2.44-.31.71-.32.27.01.52.13.71.32.19.2.29.46.29.73s-.1.53-.29.73c-.19.2-.44.31-.71.32Zm10.48-9.43c-1.16,0-2.1-.94-2.1-2.1s.94-2.1,2.1-2.1,2.1.94,2.1,2.1-.94,2.1-2.1,2.1Zm-9.43-7.34c.78,0,1.49-.23,2.12-.59l2.13,2.13,1.48-1.48-2.13-2.13c.37-.62.59-1.34.59-2.12,0-2.31-1.88-4.19-4.19-4.19-.37,0-.73.06-1.07.16l2.55,2.55c.29.29.49.67.57,1.07.08.41.04.83-.12,1.21-.16.38-.43.71-.77.94-.34.23-.75.35-1.16.36-.28,0-.55-.05-.8-.16-.25-.11-.49-.26-.68-.46l-2.55-2.55c-.1.35-.15.71-.16,1.07,0,2.31,1.88,4.19,4.19,4.19Z"/></svg>