<svg width="13" height="13" viewBox="0 0 13 13" fill="none" xmlns="http://www.w3.org/2000/svg">
<g id="material-symbols:arrow-downward-rounded">
<path id="Vector" d="M6.50046 10.6032C6.42823 10.6032 6.36052 10.592 6.29733 10.5696C6.23414 10.5472 6.17546 10.5088 6.12129 10.4542L2.54629 6.87925C2.43795 6.77091 2.38379 6.64236 2.38379 6.49358C2.38379 6.3448 2.43795 6.21607 2.54629 6.10737C2.65462 5.99904 2.78101 5.94487 2.92546 5.94487C3.0699 5.94487 3.19629 5.99904 3.30462 6.10737L5.95879 8.76154L5.95879 2.69487C5.95879 2.5414 6.01079 2.41501 6.11479 2.31571C6.21879 2.2164 6.34735 2.16675 6.50046 2.16675C6.65393 2.16675 6.78267 2.21875 6.88666 2.32275C6.99066 2.42675 7.04248 2.5553 7.04212 2.70842L7.04212 8.76154L9.69629 6.10737C9.80462 5.99904 9.93101 5.94487 10.0755 5.94487C10.2199 5.94487 10.3463 5.99904 10.4546 6.10737C10.563 6.21571 10.6171 6.34444 10.6171 6.49358C10.6171 6.64272 10.563 6.77128 10.4546 6.87925L6.87962 10.4542C6.82546 10.5084 6.76677 10.5469 6.70358 10.5696C6.64039 10.5924 6.57268 10.6036 6.50046 10.6032Z" fill="#FF0000"/>
</g>
</svg>
