<svg width="46" height="46" viewBox="0 0 46 46" fill="none" xmlns="http://www.w3.org/2000/svg">
<g id="ri:bank-fill">
<path id="Vector" d="M3.83301 38.334H42.1663V42.1673H3.83301V38.334ZM7.66634 23.0007H11.4997V36.4173H7.66634V23.0007ZM17.2497 23.0007H21.083V36.4173H17.2497V23.0007ZM24.9163 23.0007H28.7497V36.4173H24.9163V23.0007ZM34.4997 23.0007H38.333V36.4173H34.4997V23.0007ZM3.83301 13.4173L22.9997 3.83398L42.1663 13.4173V21.084H3.83301V13.4173ZM22.9997 15.334C23.508 15.334 23.9955 15.132 24.355 14.7726C24.7144 14.4132 24.9163 13.9256 24.9163 13.4173C24.9163 12.909 24.7144 12.4215 24.355 12.062C23.9955 11.7026 23.508 11.5007 22.9997 11.5007C22.4913 11.5007 22.0038 11.7026 21.6444 12.062C21.2849 12.4215 21.083 12.909 21.083 13.4173C21.083 13.9256 21.2849 14.4132 21.6444 14.7726C22.0038 15.132 22.4913 15.334 22.9997 15.334Z" fill="white"/>
</g>
</svg>
