<svg width="15" height="15" viewBox="0 0 15 15" fill="none" xmlns="http://www.w3.org/2000/svg">
<g id="material-symbols:arrow-downward-rounded">
<path id="Vector" d="M12.2344 7.5C12.2344 7.58333 12.2215 7.66146 12.1956 7.73437C12.1698 7.80729 12.1254 7.875 12.0625 7.9375L7.9375 12.0625C7.8125 12.1875 7.66417 12.25 7.4925 12.25C7.32083 12.25 7.17229 12.1875 7.04687 12.0625C6.92187 11.9375 6.85937 11.7917 6.85937 11.625C6.85937 11.4583 6.92187 11.3125 7.04687 11.1875L10.1094 8.125L3.10937 8.125C2.93229 8.125 2.78646 8.065 2.67187 7.945C2.55729 7.825 2.5 7.67667 2.5 7.5C2.5 7.32292 2.56 7.17437 2.68 7.05437C2.8 6.93437 2.94833 6.87458 3.125 6.875L10.1094 6.875L7.04687 3.8125C6.92187 3.6875 6.85937 3.54166 6.85937 3.375C6.85937 3.20833 6.92187 3.0625 7.04687 2.9375C7.17187 2.8125 7.32042 2.75 7.4925 2.75C7.66458 2.75 7.81291 2.8125 7.9375 2.9375L12.0625 7.0625C12.125 7.125 12.1694 7.19271 12.1956 7.26562C12.2219 7.33854 12.2348 7.41667 12.2344 7.5Z" fill="#414141"/>
</g>
</svg>
