<svg width="24" height="24" viewBox="0 0 24 24" fill="none" xmlns="http://www.w3.org/2000/svg">
<g id="Icon Box">
<g id="Icon">
<mask id="path-1-inside-1_1136_24687" fill="white">
<path fill-rule="evenodd" clip-rule="evenodd" d="M2.99802 12.7498H2.99805L3.00079 12.7498C3.09864 12.7497 3.19553 12.7304 3.28594 12.6929C3.37694 12.6552 3.45958 12.5998 3.52911 12.5301L5.02911 11.0301C5.16573 10.8886 5.24133 10.6992 5.23962 10.5025C5.23791 10.3059 5.15903 10.1178 5.01998 9.9787C4.88092 9.83965 4.69281 9.76077 4.49616 9.75906C4.31886 9.75752 4.1474 9.81883 4.0117 9.93104C4.24215 9.04152 4.62082 8.19197 5.13644 7.41958C6.04165 6.06356 7.32835 5.00616 8.83408 4.38089C10.3398 3.75561 11.9971 3.5905 13.5965 3.9064C15.196 4.22231 16.6661 5.00505 17.821 6.15582C17.9619 6.2963 18.1527 6.37508 18.3517 6.37484C18.5506 6.37459 18.7413 6.29534 18.8817 6.15451C19.0222 6.01368 19.101 5.82281 19.1008 5.62389C19.1005 5.42497 19.0213 5.2343 18.8804 5.09382C17.5155 3.73364 15.7782 2.80839 13.8878 2.4349C11.9975 2.06142 10.0388 2.25645 8.25919 2.99537C6.47958 3.73429 4.95883 4.98396 3.88896 6.58658C3.13081 7.72226 2.62317 8.99909 2.39171 10.3324L2.02885 9.96957C1.88739 9.83295 1.69794 9.75735 1.5013 9.75906C1.30465 9.76077 1.11654 9.83965 0.977482 9.9787C0.838426 10.1178 0.75955 10.3059 0.757841 10.5025C0.756132 10.6992 0.831728 10.8886 0.968346 11.0301L2.44865 12.5104C2.45487 12.5171 2.46123 12.5237 2.46772 12.5301C2.54527 12.6077 2.63806 12.6665 2.73905 12.7037C2.82189 12.7342 2.90957 12.7499 2.99802 12.7498ZM19.4979 13.8748C19.3496 13.8748 19.2046 13.8308 19.0813 13.7484C18.958 13.666 18.8619 13.5488 18.8051 13.4118C18.7484 13.2748 18.7335 13.124 18.7624 12.9785C18.7914 12.8331 18.8628 12.6995 18.9676 12.5946L20.4676 11.0946C20.6091 10.9579 20.7985 10.8824 20.9952 10.8841L20.9979 10.8841L21.0006 10.8841C21.1972 10.8824 21.3867 10.9579 21.5281 11.0946L23.0281 12.5946C23.133 12.6995 23.2044 12.8331 23.2333 12.9785C23.2622 13.124 23.2474 13.2748 23.1906 13.4118C23.1339 13.5488 23.0378 13.666 22.9145 13.7484C22.7912 13.8308 22.6462 13.8748 22.4979 13.8748C22.3994 13.875 22.3018 13.8556 22.2108 13.8179C22.1198 13.7802 22.0371 13.7248 21.9676 13.6551L21.6542 13.3416C21.3619 15.4307 20.398 17.3823 18.8894 18.8909C17.0616 20.7188 14.5833 21.7469 11.9983 21.7498C10.7146 21.7534 9.44295 21.5017 8.25732 21.0095C7.07169 20.5173 5.99572 19.7943 5.09196 18.8826C5.0224 18.8128 4.96726 18.73 4.9297 18.6389C4.89214 18.5478 4.87289 18.4502 4.87305 18.3517C4.87321 18.2532 4.89277 18.1556 4.93062 18.0647C4.96847 17.9737 5.02386 17.8911 5.09365 17.8215C5.16343 17.7519 5.24623 17.6968 5.33731 17.6593C5.4284 17.6217 5.526 17.6024 5.62453 17.6026C5.72306 17.6028 5.82059 17.6223 5.91156 17.6602C6.00253 17.698 6.08515 17.7534 6.15471 17.8232C7.30735 18.9798 8.77728 19.7683 10.3784 20.089C11.9795 20.4096 13.6397 20.2479 15.1488 19.6243C16.658 19.0008 17.9481 17.9434 18.8559 16.5861C19.4656 15.6746 19.8843 14.6553 20.0937 13.5895L20.0281 13.6551C19.9586 13.7248 19.876 13.7802 19.785 13.8179C19.694 13.8556 19.5964 13.875 19.4979 13.8748ZM10.123 13.8748H11.9938L11.998 13.8748L11.9998 13.8748H13.873C14.2709 13.8748 14.6524 14.0328 14.9337 14.3141C15.215 14.5954 15.373 14.9769 15.373 15.3748V16.8748C15.373 17.0737 15.4521 17.2644 15.5927 17.4051C15.7334 17.5457 15.9241 17.6248 16.123 17.6248C16.322 17.6248 16.5127 17.5457 16.6534 17.4051C16.794 17.2644 16.873 17.0737 16.873 16.8748V15.3748C16.8722 14.5794 16.5558 13.8168 15.9934 13.2544C15.6713 12.9324 15.2836 12.691 14.8617 12.5433C15.431 11.8695 15.7471 11.0135 15.748 10.1248C15.748 9.38308 15.5281 8.65805 15.1161 8.04137C14.704 7.42469 14.1183 6.94404 13.4331 6.66021C12.7479 6.37638 11.9939 6.30212 11.2665 6.44681C10.539 6.59151 9.87085 6.94866 9.3464 7.47311C8.82195 7.99755 8.4648 8.66574 8.3201 9.39317C8.17541 10.1206 8.24967 10.8746 8.5335 11.5598C8.68216 11.9187 8.8848 12.2503 9.13271 12.5439C8.71145 12.6916 8.32435 12.9328 8.00271 13.2544C7.4403 13.8168 7.12394 14.5794 7.12305 15.3748V16.8748C7.12305 17.0737 7.20206 17.2644 7.34272 17.4051C7.48337 17.5457 7.67413 17.6248 7.87305 17.6248C8.07196 17.6248 8.26272 17.5457 8.40338 17.4051C8.54403 17.2644 8.62305 17.0737 8.62305 16.8748V15.3748C8.62305 14.9769 8.78108 14.5954 9.06239 14.3141C9.34369 14.0328 9.72522 13.8748 10.123 13.8748ZM12.8591 12.2035C12.586 12.3166 12.2947 12.3742 12.0019 12.3748H11.9941C11.8487 12.3745 11.7031 12.3602 11.5591 12.3315C11.1226 12.2447 10.7217 12.0304 10.4071 11.7157C10.0924 11.4011 9.8781 11.0002 9.79128 10.5637C9.70446 10.1273 9.74902 9.67485 9.91932 9.26372C10.0896 8.85259 10.378 8.50118 10.748 8.25395C11.118 8.00672 11.553 7.87476 11.998 7.87476C12.5946 7.87535 13.1666 8.1126 13.5884 8.53443C14.0102 8.95625 14.2475 9.5282 14.248 10.1248C14.248 10.5698 14.1161 11.0048 13.8689 11.3748C13.6216 11.7448 13.2702 12.0332 12.8591 12.2035Z"/>
</mask>
<path fill-rule="evenodd" clip-rule="evenodd" d="M2.99802 12.7498H2.99805L3.00079 12.7498C3.09864 12.7497 3.19553 12.7304 3.28594 12.6929C3.37694 12.6552 3.45958 12.5998 3.52911 12.5301L5.02911 11.0301C5.16573 10.8886 5.24133 10.6992 5.23962 10.5025C5.23791 10.3059 5.15903 10.1178 5.01998 9.9787C4.88092 9.83965 4.69281 9.76077 4.49616 9.75906C4.31886 9.75752 4.1474 9.81883 4.0117 9.93104C4.24215 9.04152 4.62082 8.19197 5.13644 7.41958C6.04165 6.06356 7.32835 5.00616 8.83408 4.38089C10.3398 3.75561 11.9971 3.5905 13.5965 3.9064C15.196 4.22231 16.6661 5.00505 17.821 6.15582C17.9619 6.2963 18.1527 6.37508 18.3517 6.37484C18.5506 6.37459 18.7413 6.29534 18.8817 6.15451C19.0222 6.01368 19.101 5.82281 19.1008 5.62389C19.1005 5.42497 19.0213 5.2343 18.8804 5.09382C17.5155 3.73364 15.7782 2.80839 13.8878 2.4349C11.9975 2.06142 10.0388 2.25645 8.25919 2.99537C6.47958 3.73429 4.95883 4.98396 3.88896 6.58658C3.13081 7.72226 2.62317 8.99909 2.39171 10.3324L2.02885 9.96957C1.88739 9.83295 1.69794 9.75735 1.5013 9.75906C1.30465 9.76077 1.11654 9.83965 0.977482 9.9787C0.838426 10.1178 0.75955 10.3059 0.757841 10.5025C0.756132 10.6992 0.831728 10.8886 0.968346 11.0301L2.44865 12.5104C2.45487 12.5171 2.46123 12.5237 2.46772 12.5301C2.54527 12.6077 2.63806 12.6665 2.73905 12.7037C2.82189 12.7342 2.90957 12.7499 2.99802 12.7498ZM19.4979 13.8748C19.3496 13.8748 19.2046 13.8308 19.0813 13.7484C18.958 13.666 18.8619 13.5488 18.8051 13.4118C18.7484 13.2748 18.7335 13.124 18.7624 12.9785C18.7914 12.8331 18.8628 12.6995 18.9676 12.5946L20.4676 11.0946C20.6091 10.9579 20.7985 10.8824 20.9952 10.8841L20.9979 10.8841L21.0006 10.8841C21.1972 10.8824 21.3867 10.9579 21.5281 11.0946L23.0281 12.5946C23.133 12.6995 23.2044 12.8331 23.2333 12.9785C23.2622 13.124 23.2474 13.2748 23.1906 13.4118C23.1339 13.5488 23.0378 13.666 22.9145 13.7484C22.7912 13.8308 22.6462 13.8748 22.4979 13.8748C22.3994 13.875 22.3018 13.8556 22.2108 13.8179C22.1198 13.7802 22.0371 13.7248 21.9676 13.6551L21.6542 13.3416C21.3619 15.4307 20.398 17.3823 18.8894 18.8909C17.0616 20.7188 14.5833 21.7469 11.9983 21.7498C10.7146 21.7534 9.44295 21.5017 8.25732 21.0095C7.07169 20.5173 5.99572 19.7943 5.09196 18.8826C5.0224 18.8128 4.96726 18.73 4.9297 18.6389C4.89214 18.5478 4.87289 18.4502 4.87305 18.3517C4.87321 18.2532 4.89277 18.1556 4.93062 18.0647C4.96847 17.9737 5.02386 17.8911 5.09365 17.8215C5.16343 17.7519 5.24623 17.6968 5.33731 17.6593C5.4284 17.6217 5.526 17.6024 5.62453 17.6026C5.72306 17.6028 5.82059 17.6223 5.91156 17.6602C6.00253 17.698 6.08515 17.7534 6.15471 17.8232C7.30735 18.9798 8.77728 19.7683 10.3784 20.089C11.9795 20.4096 13.6397 20.2479 15.1488 19.6243C16.658 19.0008 17.9481 17.9434 18.8559 16.5861C19.4656 15.6746 19.8843 14.6553 20.0937 13.5895L20.0281 13.6551C19.9586 13.7248 19.876 13.7802 19.785 13.8179C19.694 13.8556 19.5964 13.875 19.4979 13.8748ZM10.123 13.8748H11.9938L11.998 13.8748L11.9998 13.8748H13.873C14.2709 13.8748 14.6524 14.0328 14.9337 14.3141C15.215 14.5954 15.373 14.9769 15.373 15.3748V16.8748C15.373 17.0737 15.4521 17.2644 15.5927 17.4051C15.7334 17.5457 15.9241 17.6248 16.123 17.6248C16.322 17.6248 16.5127 17.5457 16.6534 17.4051C16.794 17.2644 16.873 17.0737 16.873 16.8748V15.3748C16.8722 14.5794 16.5558 13.8168 15.9934 13.2544C15.6713 12.9324 15.2836 12.691 14.8617 12.5433C15.431 11.8695 15.7471 11.0135 15.748 10.1248C15.748 9.38308 15.5281 8.65805 15.1161 8.04137C14.704 7.42469 14.1183 6.94404 13.4331 6.66021C12.7479 6.37638 11.9939 6.30212 11.2665 6.44681C10.539 6.59151 9.87085 6.94866 9.3464 7.47311C8.82195 7.99755 8.4648 8.66574 8.3201 9.39317C8.17541 10.1206 8.24967 10.8746 8.5335 11.5598C8.68216 11.9187 8.8848 12.2503 9.13271 12.5439C8.71145 12.6916 8.32435 12.9328 8.00271 13.2544C7.4403 13.8168 7.12394 14.5794 7.12305 15.3748V16.8748C7.12305 17.0737 7.20206 17.2644 7.34272 17.4051C7.48337 17.5457 7.67413 17.6248 7.87305 17.6248C8.07196 17.6248 8.26272 17.5457 8.40338 17.4051C8.54403 17.2644 8.62305 17.0737 8.62305 16.8748V15.3748C8.62305 14.9769 8.78108 14.5954 9.06239 14.3141C9.34369 14.0328 9.72522 13.8748 10.123 13.8748ZM12.8591 12.2035C12.586 12.3166 12.2947 12.3742 12.0019 12.3748H11.9941C11.8487 12.3745 11.7031 12.3602 11.5591 12.3315C11.1226 12.2447 10.7217 12.0304 10.4071 11.7157C10.0924 11.4011 9.8781 11.0002 9.79128 10.5637C9.70446 10.1273 9.74902 9.67485 9.91932 9.26372C10.0896 8.85259 10.378 8.50118 10.748 8.25395C11.118 8.00672 11.553 7.87476 11.998 7.87476C12.5946 7.87535 13.1666 8.1126 13.5884 8.53443C14.0102 8.95625 14.2475 9.5282 14.248 10.1248C14.248 10.5698 14.1161 11.0048 13.8689 11.3748C13.6216 11.7448 13.2702 12.0332 12.8591 12.2035Z" fill="#888888"/>
<path d="M2.99805 12.7498V14.2498L3.00066 14.2498L2.99805 12.7498ZM2.99802 12.7498V11.2498H2.997L2.99802 12.7498ZM3.00079 12.7498L2.9991 11.2498L2.99817 11.2498L3.00079 12.7498ZM3.28594 12.6929L2.71166 11.3072H2.71166L3.28594 12.6929ZM3.52911 12.5301L2.46845 11.4694L2.46653 11.4713L3.52911 12.5301ZM5.02911 11.0301L6.08977 12.0907L6.09899 12.0815L6.10805 12.0721L5.02911 11.0301ZM5.01998 9.9787L6.08064 8.91804L6.08064 8.91804L5.01998 9.9787ZM4.49616 9.75906L4.48313 11.259H4.48313L4.49616 9.75906ZM4.0117 9.93104L2.55964 9.55485L1.39791 14.039L4.96763 11.087L4.0117 9.93104ZM5.13644 7.41958L6.384 8.25239L5.13644 7.41958ZM8.83408 4.38089L9.40935 5.76619V5.76619L8.83408 4.38089ZM13.5965 3.9064L13.3059 5.37798L13.5965 3.9064ZM17.821 6.15582L18.8804 5.09385L18.8798 5.09323L17.821 6.15582ZM18.8817 6.15451L17.8198 5.09516L17.8198 5.09517L18.8817 6.15451ZM19.1008 5.62389L20.6008 5.62203L19.1008 5.62389ZM18.8804 5.09382L19.9398 4.03185L19.9392 4.03133L18.8804 5.09382ZM13.8878 2.4349L13.5971 3.90646L13.8878 2.4349ZM8.25919 2.99537L7.68399 1.61004L8.25919 2.99537ZM3.88896 6.58658L5.13651 7.41941L3.88896 6.58658ZM2.39171 10.3324L1.33104 11.3931L3.37516 13.4372L3.8696 10.589L2.39171 10.3324ZM2.02885 9.96957L3.08951 8.90891L3.08029 8.89969L3.07091 8.89063L2.02885 9.96957ZM1.5013 9.75906L1.48826 8.25912H1.48826L1.5013 9.75906ZM0.977482 9.9787L2.03814 11.0394L0.977482 9.9787ZM0.757841 10.5025L-0.742103 10.4895L0.757841 10.5025ZM0.968346 11.0301L-0.110587 12.0721L-0.101531 12.0815L-0.0923142 12.0907L0.968346 11.0301ZM2.44865 12.5104L3.54739 11.4892L3.52871 11.4691L3.50931 11.4497L2.44865 12.5104ZM2.46772 12.5301L1.40706 13.5908L1.40706 13.5908L2.46772 12.5301ZM2.73905 12.7037L3.25804 11.2963L3.25707 11.296L2.73905 12.7037ZM19.0813 13.7484L18.2478 14.9955L18.2478 14.9955L19.0813 13.7484ZM19.4979 13.8748L19.5001 12.3748H19.4982L19.4979 13.8748ZM18.8051 13.4118L20.191 12.8378L20.191 12.8378L18.8051 13.4118ZM18.7624 12.9785L17.2913 12.686L17.2913 12.686L18.7624 12.9785ZM18.9676 12.5946L17.907 11.5339L17.9068 11.5341L18.9676 12.5946ZM20.4676 11.0946L19.4256 10.0156L19.4162 10.0247L19.407 10.0339L20.4676 11.0946ZM20.9952 10.8841L21.0106 9.38414L21.0082 9.38412L20.9952 10.8841ZM20.9979 10.8841L20.9824 12.384L20.9979 12.3842L21.0133 12.384L20.9979 10.8841ZM21.0006 10.8841L20.9875 9.38412L20.9851 9.38414L21.0006 10.8841ZM21.5281 11.0946L22.5888 10.0339L22.5796 10.0247L22.5702 10.0156L21.5281 11.0946ZM23.0281 12.5946L24.0889 11.5341L24.0888 11.5339L23.0281 12.5946ZM23.2333 12.9785L21.7621 13.2711L21.7621 13.2711L23.2333 12.9785ZM22.9145 13.7484L22.0809 12.5013L22.0809 12.5013L22.9145 13.7484ZM22.4979 13.8748L22.4975 12.3748L22.4957 12.3748L22.4979 13.8748ZM22.2108 13.8179L21.6365 15.2036L21.6365 15.2036L22.2108 13.8179ZM21.9676 13.6551L23.0302 12.5963L23.0283 12.5944L21.9676 13.6551ZM21.6542 13.3416L22.7149 12.281L20.5859 10.152L20.1687 13.1338L21.6542 13.3416ZM18.8894 18.8909L17.8288 17.8303L18.8894 18.8909ZM11.9983 21.7498L11.9967 20.2498L11.9942 20.2498L11.9983 21.7498ZM8.25732 21.0095L8.83247 19.6241L8.25732 21.0095ZM5.09196 18.8826L6.15725 17.8266L6.1543 17.8236L5.09196 18.8826ZM4.9297 18.6389L6.31644 18.0671L6.31643 18.0671L4.9297 18.6389ZM4.87305 18.3517L3.37305 18.3493V18.3493L4.87305 18.3517ZM4.93062 18.0647L3.54572 17.4884L3.54571 17.4884L4.93062 18.0647ZM5.09365 17.8215L4.03468 16.7592L4.03467 16.7592L5.09365 17.8215ZM5.33731 17.6593L5.90913 19.046L5.90914 19.046L5.33731 17.6593ZM5.91156 17.6602L6.48779 16.2753L6.48778 16.2753L5.91156 17.6602ZM6.15471 17.8232L7.21719 16.7644L7.21705 16.7642L6.15471 17.8232ZM10.3784 20.089L10.6729 18.6182H10.6729L10.3784 20.089ZM18.8559 16.5861L17.6091 15.7522L18.8559 16.5861ZM20.0937 13.5895L21.5656 13.8786L22.5145 9.04738L19.033 12.5289L20.0937 13.5895ZM20.0281 13.6551L18.9675 12.5944L18.9655 12.5963L20.0281 13.6551ZM19.785 13.8179L20.3592 15.2036L20.3592 15.2036L19.785 13.8179ZM11.9938 13.8748L11.9945 12.3748H11.9938V13.8748ZM11.998 13.8748L11.9974 15.3748L11.9997 15.3748L11.998 13.8748ZM11.9998 13.8748V12.3748L11.9982 12.3748L11.9998 13.8748ZM14.9337 14.3141L13.873 15.3748L13.873 15.3748L14.9337 14.3141ZM16.6534 17.4051L17.714 18.4657L17.714 18.4657L16.6534 17.4051ZM16.873 15.3748H18.373L18.373 15.3731L16.873 15.3748ZM15.9934 13.2544L17.054 12.1938L17.054 12.1938L15.9934 13.2544ZM14.8617 12.5433L13.7159 11.5753L12.3099 13.2395L14.3662 13.9591L14.8617 12.5433ZM15.748 10.1248L17.248 10.1264V10.1248H15.748ZM15.1161 8.04137L13.8689 8.87472L13.8689 8.87473L15.1161 8.04137ZM13.4331 6.66021L12.8591 8.04603V8.04603L13.4331 6.66021ZM11.2665 6.44681L10.9738 4.97563L10.9738 4.97563L11.2665 6.44681ZM9.3464 7.47311L8.28574 6.41245L8.28574 6.41245L9.3464 7.47311ZM8.3201 9.39317L6.84893 9.10053V9.10053L8.3201 9.39317ZM8.5335 11.5598L9.91932 10.9858V10.9858L8.5335 11.5598ZM9.13271 12.5439L9.62903 13.9594L11.6829 13.2393L10.2788 11.5763L9.13271 12.5439ZM8.00271 13.2544L6.94205 12.1938L6.94205 12.1938L8.00271 13.2544ZM7.12305 15.3748L5.62305 15.3731V15.3748H7.12305ZM7.34272 17.4051L8.40338 16.3444L8.40338 16.3444L7.34272 17.4051ZM8.40338 17.4051L7.34272 16.3444L7.34271 16.3444L8.40338 17.4051ZM12.0019 12.3748V13.8748L12.0046 13.8748L12.0019 12.3748ZM12.8591 12.2035L13.4331 13.5893L13.4331 13.5893L12.8591 12.2035ZM11.9941 12.3748L11.9915 13.8748H11.9941V12.3748ZM11.5591 12.3315L11.2665 13.8027H11.2665L11.5591 12.3315ZM9.79128 10.5637L8.3201 10.8563H8.3201L9.79128 10.5637ZM9.91932 9.26372L8.5335 8.68969L8.5335 8.6897L9.91932 9.26372ZM10.748 8.25395L9.91466 7.00675L10.748 8.25395ZM11.998 7.87476L11.9995 6.37476H11.998V7.87476ZM13.5884 8.53443L14.649 7.47377L14.649 7.47376L13.5884 8.53443ZM14.248 10.1248H15.748L15.748 10.1233L14.248 10.1248ZM13.8689 11.3748L15.1161 12.2081L15.1161 12.2081L13.8689 11.3748ZM2.99805 11.2498H2.99802V14.2498H2.99805V11.2498ZM2.99817 11.2498L2.99544 11.2498L3.00066 14.2498L3.0034 14.2498L2.99817 11.2498ZM2.71166 11.3072C2.80284 11.2694 2.90051 11.2499 2.9991 11.2498L3.00247 14.2498C3.29677 14.2495 3.58821 14.1913 3.86022 14.0786L2.71166 11.3072ZM2.46653 11.4713C2.53662 11.401 2.61992 11.3452 2.71166 11.3072L3.86022 14.0786C4.13395 13.9652 4.38255 13.7987 4.5917 13.5888L2.46653 11.4713ZM3.96845 9.96941L2.46845 11.4694L4.58977 13.5907L6.08977 12.0907L3.96845 9.96941ZM3.73968 10.5156C3.73797 10.3189 3.81357 10.1294 3.95018 9.988L6.10805 12.0721C6.5179 11.6478 6.74469 11.0794 6.73956 10.4895L3.73968 10.5156ZM3.95932 11.0394C3.82026 10.9003 3.74138 10.7122 3.73968 10.5156L6.73956 10.4895C6.73444 9.89954 6.49781 9.33521 6.08064 8.91804L3.95932 11.0394ZM4.48313 11.259C4.28648 11.2573 4.09838 11.1784 3.95932 11.0394L6.08064 8.91804C5.66347 8.50087 5.09914 8.26425 4.5092 8.25912L4.48313 11.259ZM4.96763 11.087C4.8319 11.1992 4.66047 11.2605 4.48313 11.259L4.5092 8.25912C3.97724 8.25449 3.4629 8.43842 3.05577 8.7751L4.96763 11.087ZM3.88887 6.58676C3.27951 7.4996 2.83199 8.50363 2.55964 9.55485L5.46376 10.3072C5.65232 9.57942 5.96214 8.88435 6.384 8.25239L3.88887 6.58676ZM8.25882 2.99558C6.47932 3.73454 4.95867 4.9842 3.88887 6.58676L6.384 8.25239C7.12463 7.14292 8.17739 6.27778 9.40935 5.76619L8.25882 2.99558ZM13.8872 2.43483C11.9969 2.06149 10.0383 2.25662 8.25882 2.99558L9.40935 5.76619C10.6413 5.2546 11.9972 5.11951 13.3059 5.37798L13.8872 2.43483ZM18.8798 5.09323C17.5148 3.73324 15.7775 2.80817 13.8872 2.43483L13.3059 5.37798C14.6146 5.63644 15.8174 6.27687 16.7623 7.21841L18.8798 5.09323ZM18.3498 4.87484C18.5487 4.87459 18.7396 4.95337 18.8804 5.09385L16.7617 7.21779C17.1842 7.63923 17.7568 7.87557 18.3535 7.87484L18.3498 4.87484ZM17.8198 5.09517C17.9602 4.95433 18.1509 4.87508 18.3498 4.87484L18.3535 7.87484C18.9503 7.8741 19.5223 7.63634 19.9437 7.21384L17.8198 5.09517ZM17.6008 5.62574C17.6005 5.42683 17.6793 5.23598 17.8198 5.09516L19.9437 7.21385C20.3651 6.79137 20.6015 6.21878 20.6008 5.62203L17.6008 5.62574ZM17.8211 6.15579C17.6803 6.01531 17.601 5.82465 17.6008 5.62574L20.6008 5.62203C20.6 5.02529 20.3623 4.45328 19.9398 4.03185L17.8211 6.15579ZM13.5971 3.90646C15.1966 4.22248 16.6667 5.00538 17.8216 6.15631L19.9392 4.03133C18.3644 2.46189 16.3598 1.39429 14.1786 0.963347L13.5971 3.90646ZM8.8344 4.3807C10.3402 3.75546 11.9976 3.59043 13.5971 3.90646L14.1786 0.963347C11.9974 0.532404 9.73738 0.75744 7.68399 1.61004L8.8344 4.3807ZM5.13651 7.41941C6.04178 6.06335 7.32858 5.00594 8.8344 4.3807L7.68399 1.61004C5.63059 2.46264 3.87587 3.90457 2.64141 5.75374L5.13651 7.41941ZM3.8696 10.589C4.06546 9.46075 4.495 8.38036 5.13651 7.41941L2.64141 5.75374C1.76661 7.06416 1.18088 8.53743 0.913809 10.0759L3.8696 10.589ZM0.968186 11.0302L1.33104 11.3931L3.45237 9.27177L3.08951 8.90891L0.968186 11.0302ZM1.51433 11.259C1.31768 11.2607 1.12823 11.1851 0.986781 11.0485L3.07091 8.89063C2.64656 8.48078 2.0782 8.25399 1.48826 8.25912L1.51433 11.259ZM2.03814 11.0394C1.89909 11.1784 1.71098 11.2573 1.51433 11.259L1.48826 8.25912C0.898319 8.26425 0.333991 8.50087 -0.0831783 8.91804L2.03814 11.0394ZM2.25778 10.5155C2.25608 10.7122 2.1772 10.9003 2.03814 11.0394L-0.0831782 8.91804C-0.500346 9.33521 -0.736976 9.89954 -0.742103 10.4895L2.25778 10.5155ZM2.04728 9.988C2.1839 10.1294 2.25949 10.3189 2.25778 10.5155L-0.742103 10.4895C-0.747229 11.0794 -0.520441 11.6478 -0.110587 12.0721L2.04728 9.988ZM3.50931 11.4497L2.02901 9.96941L-0.0923142 12.0907L1.38799 13.571L3.50931 11.4497ZM3.52838 11.4695C3.53486 11.476 3.5412 11.4825 3.54739 11.4892L1.34991 13.5315C1.36855 13.5516 1.3876 13.5714 1.40706 13.5908L3.52838 11.4695ZM3.25707 11.296C3.35796 11.3331 3.45081 11.3919 3.52837 11.4695L1.40706 13.5908C1.63973 13.8235 1.91816 13.9999 2.22103 14.1114L3.25707 11.296ZM2.997 11.2498C3.08617 11.2498 3.17454 11.2655 3.25804 11.2963L2.22006 14.111C2.46924 14.2029 2.73297 14.25 2.99904 14.2498L2.997 11.2498ZM18.2478 14.9955C18.6177 15.2427 19.0526 15.3747 19.4976 15.3748L19.4982 12.3748C19.6465 12.3748 19.7915 12.4189 19.9148 12.5013L18.2478 14.9955ZM17.4193 13.9858C17.5895 14.3969 17.8779 14.7482 18.2478 14.9955L19.9148 12.5013C20.0381 12.5837 20.1342 12.7008 20.191 12.8378L17.4193 13.9858ZM17.2913 12.686C17.2045 13.1224 17.249 13.5747 17.4193 13.9858L20.191 12.8378C20.2477 12.9748 20.2626 13.1256 20.2336 13.2711L17.2913 12.686ZM17.9068 11.5341C17.5922 11.8487 17.378 12.2496 17.2913 12.686L20.2336 13.2711C20.2047 13.4165 20.1333 13.5502 20.0285 13.6551L17.9068 11.5341ZM19.407 10.0339L17.907 11.5339L20.0283 13.6552L21.5283 12.1552L19.407 10.0339ZM21.0082 9.38412C20.4183 9.37899 19.8499 9.60578 19.4256 10.0156L21.5097 12.1735C21.3683 12.3101 21.1788 12.3857 20.9822 12.384L21.0082 9.38412ZM21.0133 9.38417L21.0106 9.38414L20.9798 12.384L20.9824 12.384L21.0133 9.38417ZM20.9851 9.38414L20.9825 9.38417L21.0133 12.384L21.016 12.384L20.9851 9.38414ZM22.5702 10.0156C22.1458 9.60578 21.5775 9.37899 20.9875 9.38412L21.0136 12.384C20.817 12.3857 20.6275 12.3101 20.486 12.1735L22.5702 10.0156ZM24.0888 11.5339L22.5888 10.0339L20.4675 12.1552L21.9675 13.6552L24.0888 11.5339ZM24.7045 12.686C24.6177 12.2496 24.4035 11.8487 24.0889 11.5341L21.9673 13.6551C21.8624 13.5502 21.791 13.4165 21.7621 13.2711L24.7045 12.686ZM24.5765 13.9858C24.7467 13.5747 24.7913 13.1224 24.7045 12.686L21.7621 13.2711C21.7332 13.1256 21.748 12.9748 21.8048 12.8378L24.5765 13.9858ZM23.748 14.9955C24.1179 14.7482 24.4062 14.3969 24.5765 13.9858L21.8048 12.8378C21.8615 12.7008 21.9576 12.5837 22.0809 12.5013L23.748 14.9955ZM22.4982 15.3748C22.9431 15.3747 23.378 15.2427 23.748 14.9955L22.0809 12.5013C22.2043 12.4189 22.3492 12.3748 22.4975 12.3748L22.4982 15.3748ZM21.6365 15.2036C21.9102 15.3171 22.2037 15.3752 22.5 15.3748L22.4957 12.3748C22.595 12.3747 22.6933 12.3942 22.7851 12.4322L21.6365 15.2036ZM20.905 14.7138C21.1142 14.9237 21.3628 15.0902 21.6365 15.2036L22.7851 12.4322C22.8768 12.4702 22.9601 12.526 23.0302 12.5963L20.905 14.7138ZM20.5935 14.4023L20.907 14.7157L23.0283 12.5944L22.7149 12.281L20.5935 14.4023ZM19.9501 19.9516C21.6906 18.2111 22.8025 15.9595 23.1397 13.5495L20.1687 13.1338C19.9213 14.9018 19.1055 16.5535 17.8288 17.8303L19.9501 19.9516ZM12 23.2498C14.9822 23.2465 17.8414 22.0603 19.9501 19.9516L17.8288 17.8303C16.2818 19.3772 14.1844 20.2474 11.9967 20.2498L12 23.2498ZM7.68218 22.3948C9.0514 22.9633 10.5199 23.2539 12.0025 23.2498L11.9942 20.2498C10.9092 20.2528 9.8345 20.0401 8.83247 19.6241L7.68218 22.3948ZM4.02667 19.9386C5.07038 20.9915 6.31296 21.8264 7.68218 22.3948L8.83247 19.6241C7.83043 19.2081 6.92107 18.5971 6.15725 17.8266L4.02667 19.9386ZM3.54297 19.2107C3.65562 19.4839 3.82098 19.7322 4.02962 19.9415L6.1543 17.8236C6.22381 17.8933 6.27891 17.9761 6.31644 18.0671L3.54297 19.2107ZM3.37305 18.3493C3.37258 18.6448 3.43032 18.9375 3.54298 19.2107L6.31643 18.0671C6.35397 18.1581 6.3732 18.2556 6.37305 18.3541L3.37305 18.3493ZM3.54571 17.4884C3.43219 17.7613 3.37352 18.0538 3.37305 18.3493L6.37305 18.3541C6.37289 18.4525 6.35334 18.55 6.31552 18.6409L3.54571 17.4884ZM4.03467 16.7592C3.82539 16.9678 3.65924 17.2156 3.54572 17.4884L6.31552 18.6409C6.2777 18.7318 6.22234 18.8143 6.15262 18.8838L4.03467 16.7592ZM4.7655 16.2725C4.49229 16.3852 4.24396 16.5505 4.03468 16.7592L6.15261 18.8839C6.08289 18.9534 6.00016 19.0084 5.90913 19.046L4.7655 16.2725ZM5.62691 16.1026C5.33141 16.1021 5.0387 16.1599 4.76549 16.2725L5.90914 19.046C5.81811 19.0835 5.72059 19.1027 5.62215 19.1026L5.62691 16.1026ZM6.48778 16.2753C6.21495 16.1617 5.92242 16.1031 5.62691 16.1026L5.62215 19.1026C5.52369 19.1024 5.42623 19.0829 5.33534 19.0451L6.48778 16.2753ZM7.21705 16.7642C7.00843 16.5549 6.76062 16.3888 6.48779 16.2753L5.33532 19.0451C5.24443 19.0072 5.16187 18.9519 5.09236 18.8822L7.21705 16.7642ZM10.6729 18.6182C9.36293 18.3558 8.16025 17.7107 7.21719 16.7644L5.09223 18.882C6.45444 20.2489 8.19164 21.1808 10.0838 21.5598L10.6729 18.6182ZM14.576 18.238C13.3413 18.7482 11.9829 18.8805 10.6729 18.6182L10.0838 21.5598C11.976 21.9387 13.9381 21.7476 15.7216 21.0106L14.576 18.238ZM17.6091 15.7522C16.8663 16.8627 15.8107 17.7278 14.576 18.238L15.7216 21.0106C17.5052 20.2737 19.0299 19.0241 20.1027 17.42L17.6091 15.7522ZM18.6218 13.3004C18.4505 14.1725 18.1079 15.0064 17.6091 15.7522L20.1027 17.42C20.8232 16.3428 21.3182 15.1382 21.5656 13.8786L18.6218 13.3004ZM21.0888 14.7157L21.1543 14.6502L19.033 12.5289L18.9675 12.5944L21.0888 14.7157ZM20.3592 15.2036C20.633 15.0902 20.8816 14.9237 21.0907 14.7138L18.9655 12.5963C19.0356 12.526 19.119 12.4702 19.2107 12.4322L20.3592 15.2036ZM19.4957 15.3748C19.792 15.3752 20.0855 15.3171 20.3592 15.2036L19.2107 12.4322C19.3024 12.3942 19.4008 12.3747 19.5001 12.3748L19.4957 15.3748ZM11.9938 12.3748H10.123V15.3748H11.9938V12.3748ZM11.9987 12.3748L11.9945 12.3748L11.9931 15.3748L11.9974 15.3748L11.9987 12.3748ZM11.9982 12.3748L11.9964 12.3748L11.9997 15.3748L12.0014 15.3748L11.9982 12.3748ZM13.873 12.3748H11.9998V15.3748H13.873V12.3748ZM15.9944 13.2534C15.4318 12.6908 14.6687 12.3748 13.873 12.3748V15.3748L13.873 15.3748L15.9944 13.2534ZM16.873 15.3748C16.873 14.5791 16.557 13.816 15.9944 13.2534L13.873 15.3748H13.873H16.873ZM16.873 16.8748V15.3748H13.873V16.8748H16.873ZM16.6534 16.3444C16.794 16.4851 16.873 16.6758 16.873 16.8748H13.873C13.873 17.4715 14.1101 18.0438 14.5321 18.4657L16.6534 16.3444ZM16.123 16.1248C16.322 16.1248 16.5127 16.2038 16.6534 16.3444L14.5321 18.4657C14.954 18.8877 15.5263 19.1248 16.123 19.1248V16.1248ZM15.5927 16.3444C15.7334 16.2038 15.9241 16.1248 16.123 16.1248V19.1248C16.7198 19.1248 17.2921 18.8877 17.714 18.4657L15.5927 16.3444ZM15.373 16.8748C15.373 16.6758 15.4521 16.4851 15.5927 16.3444L17.714 18.4657C18.136 18.0438 18.373 17.4715 18.373 16.8748H15.373ZM15.373 15.3748V16.8748H18.373V15.3748H15.373ZM14.9327 14.3151C15.2142 14.5966 15.3726 14.9783 15.373 15.3764L18.373 15.3731C18.3717 14.1805 17.8973 13.0371 17.054 12.1938L14.9327 14.3151ZM14.3662 13.9591C14.5775 14.0331 14.7715 14.1539 14.9327 14.3151L17.054 12.1938C16.5711 11.7108 15.9897 11.3489 15.3572 11.1275L14.3662 13.9591ZM14.248 10.1231C14.2475 10.6567 14.0577 11.1707 13.7159 11.5753L16.0075 13.5114C16.8043 12.5683 17.2467 11.3703 17.248 10.1264L14.248 10.1231ZM13.8689 8.87473C14.1161 9.24473 14.248 9.67975 14.248 10.1248H17.248C17.248 9.08641 16.9401 8.07137 16.3633 7.20801L13.8689 8.87473ZM12.8591 8.04603C13.2702 8.21633 13.6216 8.50471 13.8689 8.87472L16.3633 7.20801C15.7864 6.34466 14.9665 5.67175 14.0071 5.27439L12.8591 8.04603ZM11.5591 7.91799C11.9956 7.83117 12.448 7.87573 12.8591 8.04603L14.0071 5.27439C13.0478 4.87703 11.9922 4.77306 10.9738 4.97563L11.5591 7.91799ZM10.4071 8.53377C10.7217 8.2191 11.1226 8.00481 11.5591 7.91799L10.9738 4.97563C9.95542 5.17821 9.01996 5.67822 8.28574 6.41245L10.4071 8.53377ZM9.79128 9.68581C9.8781 9.24935 10.0924 8.84844 10.4071 8.53377L8.28574 6.41245C7.55151 7.14667 7.0515 8.08213 6.84893 9.10053L9.79128 9.68581ZM9.91932 10.9858C9.74902 10.5747 9.70446 10.1223 9.79128 9.6858L6.84893 9.10053C6.64635 10.1189 6.75032 11.1745 7.14768 12.1338L9.91932 10.9858ZM10.2788 11.5763C10.1301 11.4001 10.0085 11.2011 9.91932 10.9858L7.14768 12.1338C7.3558 12.6363 7.63952 13.1005 7.98657 13.5116L10.2788 11.5763ZM9.06337 14.3151C9.22436 14.1541 9.41805 14.0334 9.62903 13.9594L8.63638 11.1284C8.00485 11.3498 7.42435 11.7115 6.94205 12.1938L9.06337 14.3151ZM8.62305 15.3764C8.62349 14.9783 8.78185 14.5966 9.06337 14.3151L6.94205 12.1938C6.09875 13.0371 5.62439 14.1805 5.62305 15.3731L8.62305 15.3764ZM8.62305 16.8748V15.3748H5.62305V16.8748H8.62305ZM8.40338 16.3444C8.54403 16.4851 8.62305 16.6758 8.62305 16.8748H5.62305C5.62305 17.4715 5.8601 18.0438 6.28206 18.4657L8.40338 16.3444ZM7.87305 16.1248C8.07196 16.1248 8.26272 16.2038 8.40338 16.3444L6.28206 18.4657C6.70402 18.8877 7.27631 19.1248 7.87305 19.1248V16.1248ZM7.34271 16.3444C7.48337 16.2038 7.67414 16.1248 7.87305 16.1248V19.1248C8.46978 19.1248 9.04208 18.8877 9.46404 18.4657L7.34271 16.3444ZM7.12305 16.8748C7.12305 16.6758 7.20206 16.4851 7.34272 16.3444L9.46404 18.4657C9.88599 18.0438 10.123 17.4715 10.123 16.8748H7.12305ZM7.12305 15.3748V16.8748H10.123V15.3748H7.12305ZM8.00173 13.2534C7.43912 13.816 7.12305 14.5791 7.12305 15.3748H10.123H10.123L8.00173 13.2534ZM10.123 12.3748C9.3274 12.3748 8.56434 12.6908 8.00173 13.2534L10.123 15.3748H10.123V12.3748ZM12.0046 13.8748C12.4924 13.8739 12.9779 13.7778 13.4331 13.5893L12.2851 10.8177C12.194 10.8554 12.0969 10.8746 11.9993 10.8748L12.0046 13.8748ZM11.9941 13.8748H12.0019V10.8748H11.9941V13.8748ZM11.2665 13.8027C11.5064 13.8504 11.7492 13.8743 11.9915 13.8748L11.9967 10.8748C11.9483 10.8747 11.8997 10.8699 11.8517 10.8603L11.2665 13.8027ZM9.3464 12.7764C9.87085 13.3009 10.539 13.658 11.2665 13.8027L11.8517 10.8603C11.7062 10.8314 11.5726 10.76 11.4677 10.6551L9.3464 12.7764ZM8.3201 10.8563C8.4648 11.5838 8.82195 12.252 9.3464 12.7764L11.4677 10.6551C11.3628 10.5502 11.2914 10.4166 11.2625 10.2711L8.3201 10.8563ZM8.5335 8.6897C8.24967 9.37492 8.17541 10.1289 8.3201 10.8563L11.2625 10.2711C11.2335 10.1256 11.2484 9.97479 11.3051 9.83774L8.5335 8.6897ZM9.91466 7.00675C9.29798 7.4188 8.81733 8.00447 8.5335 8.68969L11.3051 9.83775C11.3619 9.7007 11.458 9.58357 11.5814 9.50116L9.91466 7.00675ZM11.998 6.37476C11.2564 6.37476 10.5313 6.59469 9.91466 7.00675L11.5814 9.50116C11.7047 9.41874 11.8497 9.37476 11.998 9.37476V6.37476ZM14.649 7.47376C13.9463 6.771 12.9934 6.37575 11.9995 6.37476L11.9966 9.37476C12.1958 9.37496 12.3868 9.4542 12.5277 9.59509L14.649 7.47376ZM15.748 10.1233C15.7471 9.1294 15.3518 8.17653 14.649 7.47377L12.5277 9.59508C12.6686 9.73598 12.7479 9.92701 12.748 10.1263L15.748 10.1233ZM15.1161 12.2081C15.5281 11.5915 15.748 10.8664 15.748 10.1248H12.748C12.748 10.2731 12.7041 10.4181 12.6217 10.5414L15.1161 12.2081ZM13.4331 13.5893C14.1183 13.3055 14.704 12.8248 15.1161 12.2081L12.6217 10.5414C12.5392 10.6648 12.4221 10.7609 12.2851 10.8177L13.4331 13.5893Z" fill="#888888" mask="url(#path-1-inside-1_1136_24687)"/>
</g>
</g>
</svg>
