<?xml version="1.0" encoding="UTF-8"?><svg id="Layer_3" xmlns="http://www.w3.org/2000/svg" viewBox="0 0 30 30"><defs><style>.cls-1{fill:#fff;}</style></defs><path class="cls-1" d="m8.33,1.65H2.99c-.35,0-.69.14-.94.39-.25.25-.39.59-.39.94v24.03c0,.35.14.69.39.94.25.25.59.39.94.39h5.34c.35,0,.69-.14.94-.39.25-.25.39-.59.39-.94V2.99c0-.35-.14-.69-.39-.94-.25-.25-.59-.39-.94-.39Zm-2.67,25.36c-.53,0-1.04-.16-1.48-.45-.44-.29-.78-.71-.98-1.2-.2-.49-.25-1.02-.15-1.54.1-.52.36-.99.73-1.37.37-.37.85-.63,1.37-.73.52-.1,1.05-.05,1.54.15.49.2.9.54,1.2.98s.45.96.45,1.48c0,.71-.28,1.39-.78,1.89-.5.5-1.18.78-1.89.78Zm2.67-12.01H2.99V2.99h5.34v12.01Z"/><path class="cls-1" d="m5.67,25.69c.74,0,1.33-.6,1.33-1.33s-.6-1.33-1.33-1.33-1.33.6-1.33,1.33.6,1.33,1.33,1.33Z"/><path class="cls-1" d="m17.67,1.65h10.68v2.7h-10.68V1.65Zm-5.34,0h2.68v2.7h-2.68V1.65Zm5.34,5.34h10.68v2.7h-10.68v-2.7Zm-5.34,0h2.68v2.7h-2.68v-2.7Zm5.34,5.34h10.68v2.7h-10.68v-2.7Zm-5.34,0h2.68v2.7h-2.68v-2.7Z"/></svg>