<svg width="15" height="15" viewBox="0 0 15 15" fill="none" xmlns="http://www.w3.org/2000/svg">
<g clip-path="url(#clip0_1_217024)">
<path d="M11.8418 12.7832H9.54492C9.36445 12.7832 9.2168 12.6355 9.2168 12.4551V11.3613C9.2168 11.1809 9.36445 11.0332 9.54492 11.0332H11.8418C12.3258 11.0332 12.7168 10.6422 12.7168 10.1582V4.9082C12.7168 4.42422 12.3258 4.0332 11.8418 4.0332H9.54492C9.36445 4.0332 9.2168 3.88555 9.2168 3.70508V2.61133C9.2168 2.43086 9.36445 2.2832 9.54492 2.2832H11.8418C13.291 2.2832 14.4668 3.45898 14.4668 4.9082V10.1582C14.4668 11.6074 13.291 12.7832 11.8418 12.7832ZM10.5566 7.28711L5.96289 2.69336C5.55273 2.2832 4.8418 2.57031 4.8418 3.1582V5.7832H1.12305C0.759375 5.7832 0.466797 6.07578 0.466797 6.43945V9.06445C0.466797 9.42812 0.759375 9.7207 1.12305 9.7207H4.8418V12.3457C4.8418 12.9336 5.55273 13.2207 5.96289 12.8105L10.5566 8.2168C10.8109 7.95977 10.8109 7.54414 10.5566 7.28711Z" fill="white"/>
</g>
<defs>
<clipPath id="clip0_1_217024">
<rect width="14" height="14" fill="white" transform="translate(0.466797 0.533203)"/>
</clipPath>
</defs>
</svg>
