<svg width="45" height="45" viewBox="0 0 45 45" fill="none" xmlns="http://www.w3.org/2000/svg">
<g id="simple-icons:webmoney" clip-path="url(#clip0_1_216809)">
<path id="Vector" d="M22.3933 0.341797C25.9033 0.341797 29.2445 1.14805 32.2408 2.58617C32.7114 2.79805 33.1839 3.05117 33.6526 3.30617L31.5976 5.12492L28.517 1.95242L23.207 6.60804L20.0814 3.26305L10.3183 11.9405L16.5695 18.7562L14.1283 20.8712L20.297 27.6868L17.8558 29.8018L26.6758 39.4955L31.8976 34.7537L36.437 39.8349C35.537 40.5118 34.5526 41.1905 33.4839 41.783C30.1086 43.6723 26.3045 44.6627 22.4364 44.6593C10.0614 44.6574 0.000138117 34.7105 0.000138117 22.4818C-0.0429869 10.3318 10.0183 0.341797 22.3933 0.341797ZM18.2814 21.128L23.6345 16.3862L28.4308 21.6774L23.0776 26.4193L18.2814 21.128ZM22.0933 30.2705L27.4033 25.4893L32.2408 30.7787L26.8876 35.5205L22.0933 30.2705ZM14.4751 12.113L19.8264 7.37117L24.6208 12.6624L19.2695 17.4024L14.4751 12.113ZM24.2776 9.57242L28.2601 6.01742L31.8583 9.95304L27.8758 13.5512L24.2776 9.57242ZM31.3876 25.868L35.3683 22.313L38.9645 26.2899L34.982 29.8487L31.3876 25.868ZM34.8976 33.8687L38.8801 30.3118L42.4745 34.2493L38.4939 37.8455L34.8976 33.8687ZM36.5251 15.5818L39.1783 13.2118L41.5764 15.8368L38.9214 18.2068L36.5251 15.5818ZM33.0995 7.75179L35.7545 5.34055L38.1545 8.00679L35.4958 10.3768L33.0995 7.75179ZM39.9058 23.4137L42.5608 21.0437L45.002 23.6687L42.3058 26.0387L39.9058 23.4137ZM27.962 17.5299L31.9445 13.9749L35.5408 17.9105L31.5583 21.4674L27.962 17.5299Z" fill="white"/>
</g>
<defs>
<clipPath id="clip0_1_216809">
<rect width="45" height="45" fill="white"/>
</clipPath>
</defs>
</svg>
