<svg width="50" height="50" viewBox="0 0 50 50" fill="none" xmlns="http://www.w3.org/2000/svg">
<g id="solar:money-bag-linear">
<g id="Group">
<path id="Vector" d="M33.3337 12.4993C33.3337 8.57018 33.3337 6.60768 32.1128 5.38685C30.892 4.16602 28.9295 4.16602 25.0003 4.16602C21.0712 4.16602 19.1087 4.16602 17.8878 5.38685C16.667 6.60768 16.667 8.57018 16.667 12.4993M4.16699 29.166C4.16699 21.3098 4.16699 17.3806 6.60866 14.941C9.04824 12.4993 12.9774 12.4993 20.8337 12.4993H29.167C37.0232 12.4993 40.9524 12.4993 43.392 14.941C45.8337 17.3806 45.8337 21.3098 45.8337 29.166C45.8337 37.0223 45.8337 40.9514 43.392 43.391C40.9524 45.8327 37.0232 45.8327 29.167 45.8327H20.8337C12.9774 45.8327 9.04824 45.8327 6.60866 43.391C4.16699 40.9514 4.16699 37.0223 4.16699 29.166Z" stroke="white" stroke-width="3.5"/>
<path id="Vector_2" d="M25.0006 36.1091C27.3027 36.1091 29.1673 34.5549 29.1673 32.6383C29.1673 30.7216 27.3027 29.1654 25.0006 29.1654C22.6986 29.1654 20.834 27.6112 20.834 25.6924C20.834 23.7758 22.6986 22.2216 25.0006 22.2216M25.0006 36.1091C22.6986 36.1091 20.834 34.5549 20.834 32.6383M25.0006 36.1091V37.4987M25.0006 22.2216V20.832M25.0006 22.2216C27.3027 22.2216 29.1673 23.7758 29.1673 25.6924" stroke="white" stroke-width="3.5" stroke-linecap="round"/>
</g>
</g>
</svg>
