<svg width="80" height="80" viewBox="0 0 80 80" fill="none" xmlns="http://www.w3.org/2000/svg">
<g id="solar:hand-money-linear">
<g id="Group">
<path id="Vector" d="M58.0467 34.7133C60 32.76 60 29.62 60 23.3333C60 17.0467 60 13.9067 58.0467 11.9533M58.0467 34.7133C56.0933 36.6667 52.9533 36.6667 46.6667 36.6667H33.3333C27.0467 36.6667 23.9067 36.6667 21.9533 34.7133M58.0467 11.9533C56.0933 10 52.9533 10 46.6667 10H33.3333C27.0467 10 23.9067 10 21.9533 11.9533M21.9533 11.9533C20 13.9067 20 17.0467 20 23.3333C20 29.62 20 32.76 21.9533 34.7133M43.3333 23.3333C43.3333 24.2174 42.9821 25.0652 42.357 25.6904C41.7319 26.3155 40.8841 26.6667 40 26.6667C39.1159 26.6667 38.2681 26.3155 37.643 25.6904C37.0179 25.0652 36.6667 24.2174 36.6667 23.3333C36.6667 22.4493 37.0179 21.6014 37.643 20.9763C38.2681 20.3512 39.1159 20 40 20C40.8841 20 41.7319 20.3512 42.357 20.9763C42.9821 21.6014 43.3333 22.4493 43.3333 23.3333Z" stroke="#5943FE" stroke-width="4.5"/>
<path id="Vector_2" d="M60.0004 20C57.3482 20 54.8047 18.9464 52.9293 17.0711C51.0539 15.1957 50.0004 12.6522 50.0004 10M60.0004 26.6667C57.3482 26.6667 54.8047 27.7202 52.9293 29.5956C51.0539 31.471 50.0004 34.0145 50.0004 36.6667M20.0003 20C22.6525 20 25.196 18.9464 27.0714 17.0711C28.9468 15.1957 30.0003 12.6522 30.0003 10M20.0003 26.6667C22.6525 26.6667 25.196 27.7202 27.0714 29.5956C28.9468 31.471 30.0003 34.0145 30.0003 36.6667M16.667 67.96H24.2003C27.567 67.96 30.977 68.3134 34.2537 68.9867C40.1037 70.1885 46.1229 70.3218 52.0204 69.38C54.9137 68.9134 57.7537 68.1967 60.327 66.9567C62.647 65.8334 65.4904 64.2567 67.4004 62.4867C69.307 60.72 71.2937 57.83 72.7004 55.57C73.9137 53.63 73.327 51.2534 71.4137 49.81C70.3385 49.028 69.0432 48.6067 67.7137 48.6067C66.3842 48.6067 65.0889 49.028 64.0137 49.81L57.9904 54.36C55.657 56.1267 53.107 57.75 50.0704 58.2334C49.7037 58.29 49.3204 58.3434 48.9204 58.39M48.9204 58.39C48.7982 58.4042 48.676 58.4175 48.5537 58.43M48.9204 58.39C49.4539 58.2457 49.9431 57.9708 50.3437 57.59C50.846 57.1555 51.2562 56.6247 51.55 56.0291C51.8438 55.4335 52.0154 54.785 52.0545 54.122C52.0937 53.459 51.9996 52.7948 51.7779 52.1687C51.5562 51.5427 51.2114 50.9673 50.7637 50.4767C50.3293 49.9945 49.8234 49.5819 49.2637 49.2534C39.9403 43.69 25.4303 47.9267 16.667 54.1434M48.9204 58.39C48.7999 58.4163 48.677 58.4297 48.5537 58.43M48.5537 58.43C46.5434 58.6321 44.5182 58.6365 42.507 58.4434" stroke="#5943FE" stroke-width="4.5" stroke-linecap="round"/>
<path id="Vector_3" d="M16.667 51.666C16.667 48.9046 14.4284 46.666 11.667 46.666C8.90557 46.666 6.66699 48.9046 6.66699 51.666V68.3327C6.66699 71.0941 8.90557 73.3327 11.667 73.3327C14.4284 73.3327 16.667 71.0941 16.667 68.3327V51.666Z" stroke="#5943FE" stroke-width="4.5"/>
</g>
</g>
</svg>
