<?xml version="1.0" encoding="utf-8"?>
<!-- Generator: Adobe Illustrator 27.7.0, SVG Export Plug-In . SVG Version: 6.00 Build 0)  -->
<svg version="1.1" id="Layer_1" xmlns="http://www.w3.org/2000/svg" xmlns:xlink="http://www.w3.org/1999/xlink" x="0px" y="0px"
	 viewBox="0 0 80 80" style="enable-background:new 0 0 80 80;" xml:space="preserve">
<style type="text/css">
	.st0{fill:none;stroke:#FFFFFF;stroke-width:4.5;}
	.st1{fill:none;stroke:#FFFFFF;stroke-width:4.5;stroke-linecap:round;}
</style>
<g id="solar:hand-money-linear">
	<g id="Group">
		<path id="Vector" class="st0" d="M58,34.7c2-2,2-5.1,2-11.4c0-6.3,0-9.4-2-11.4 M58,34.7c-2,2-5.1,2-11.4,2H33.3
			c-6.3,0-9.4,0-11.4-2 M58,12c-2-2-5.1-2-11.4-2H33.3c-6.3,0-9.4,0-11.4,2 M22,12c-2,2-2,5.1-2,11.4c0,6.3,0,9.4,2,11.4 M43.3,23.3
			c0,0.9-0.4,1.7-1,2.4c-0.6,0.6-1.5,1-2.4,1s-1.7-0.4-2.4-1c-0.6-0.6-1-1.5-1-2.4c0-0.9,0.4-1.7,1-2.4c0.6-0.6,1.5-1,2.4-1
			s1.7,0.4,2.4,1C43,21.6,43.3,22.4,43.3,23.3z"/>
		<path id="Vector_2" class="st1" d="M60,20c-2.7,0-5.2-1.1-7.1-2.9C51.1,15.2,50,12.7,50,10 M60,26.7c-2.7,0-5.2,1.1-7.1,2.9
			C51.1,31.5,50,34,50,36.7 M20,20c2.7,0,5.2-1.1,7.1-2.9c1.9-1.9,2.9-4.4,2.9-7.1 M20,26.7c2.7,0,5.2,1.1,7.1,2.9S30,34,30,36.7
			 M16.7,68h7.5c3.4,0,6.8,0.4,10.1,1c5.8,1.2,11.9,1.3,17.8,0.4c2.9-0.5,5.7-1.2,8.3-2.4c2.3-1.1,5.2-2.7,7.1-4.5
			c1.9-1.8,3.9-4.7,5.3-6.9c1.2-1.9,0.6-4.3-1.3-5.8c-1.1-0.8-2.4-1.2-3.7-1.2S65.1,49,64,49.8l-6,4.5c-2.3,1.8-4.9,3.4-7.9,3.9
			c-0.4,0.1-0.8,0.1-1.2,0.2 M48.9,58.4c-0.1,0-0.2,0-0.4,0 M48.9,58.4c0.5-0.1,1-0.4,1.4-0.8c0.5-0.4,0.9-1,1.2-1.6
			s0.5-1.2,0.5-1.9c0-0.7-0.1-1.3-0.3-2c-0.2-0.6-0.6-1.2-1-1.7c-0.4-0.5-0.9-0.9-1.5-1.2c-9.3-5.6-23.8-1.3-32.6,4.9 M48.9,58.4
			c-0.1,0-0.2,0-0.4,0 M48.6,58.4c-2,0.2-4,0.2-6,0"/>
		<path id="Vector_3" class="st0" d="M16.7,51.7c0-2.8-2.2-5-5-5c-2.8,0-5,2.2-5,5v16.7c0,2.8,2.2,5,5,5c2.8,0,5-2.2,5-5V51.7z"/>
	</g>
</g>
</svg>
