<?xml version="1.0" encoding="UTF-8"?><svg id="Layer_3" xmlns="http://www.w3.org/2000/svg" viewBox="0 0 30 30"><defs><style>.cls-1{fill:#fff;}</style></defs><path class="cls-1" d="m15,23.68l-6.52,3.93c-.29.18-.59.26-.9.24-.31-.03-.59-.13-.82-.31-.24-.18-.42-.41-.55-.69-.13-.28-.16-.58-.08-.92l1.73-7.42-5.77-4.99c-.26-.24-.43-.5-.49-.81-.06-.3-.05-.6.06-.88.1-.29.26-.52.47-.71.21-.18.5-.3.86-.35l7.62-.67,2.95-6.99c.13-.31.33-.55.61-.71.28-.16.56-.24.84-.24s.57.08.84.24c.27.16.48.39.61.71l2.95,6.99,7.62.67c.37.05.65.17.86.35.21.18.37.42.47.71.1.29.12.58.06.88-.06.3-.23.57-.49.8l-5.77,4.99,1.73,7.42c.08.34.05.65-.08.92-.13.28-.31.5-.55.69-.24.18-.51.29-.82.31-.31.03-.62-.05-.9-.24l-6.52-3.93Z"/></svg>