<?xml version="1.0" encoding="utf-8"?>
<!-- Generator: Adobe Illustrator 27.7.0, SVG Export Plug-In . SVG Version: 6.00 Build 0)  -->
<svg version="1.1" id="Layer_1" xmlns="http://www.w3.org/2000/svg" xmlns:xlink="http://www.w3.org/1999/xlink" x="0px" y="0px"
	 viewBox="0 0 65 65" style="enable-background:new 0 0 65 65;" xml:space="preserve">
<style type="text/css">
	.st0{clip-path:url(#SVGID_00000031902622223919945360000012024101870293500053_);}
	.st1{fill:none;stroke:#5943FE;stroke-width:6;stroke-linecap:round;stroke-linejoin:round;}
</style>
<g>
	<defs>
		<rect id="SVGID_1_" width="65" height="65"/>
	</defs>
	<clipPath id="SVGID_00000022554211757423507160000008608895220966886585_">
		<use xlink:href="#SVGID_1_"  style="overflow:visible;"/>
	</clipPath>
	
		<g id="streamline:interface-security-shield-3-shield-pay-product-secure-money-cash-currency-security-business" style="clip-path:url(#SVGID_00000022554211757423507160000008608895220966886585_);">
		<g id="Group">
			<path id="Vector" class="st1" d="M60.4,32.2c0,4.8-1.4,9.6-4,13.7s-6.2,7.4-10.5,9.6l-13.3,7.2l-13.3-7c-4.4-2.2-8-5.5-10.6-9.7
				C6,41.9,4.6,37.1,4.6,32.2V7c0-1.2,0.5-2.4,1.4-3.3c0.9-0.9,2.1-1.4,3.3-1.4h46.4c1.2,0,2.4,0.5,3.3,1.4c0.9,0.9,1.4,2.1,1.4,3.3
				V32.2z"/>
			<path id="Vector_2" class="st1" d="M25.5,37.1c0,1.8,0.7,3.6,2,4.9c1.3,1.3,3.1,2,4.9,2 M32.5,44.1c0.9,0.1,1.9-0.1,2.7-0.4
				c0.9-0.3,1.7-0.8,2.3-1.5c0.7-0.7,1.2-1.5,1.5-2.3c0.3-0.9,0.5-1.8,0.4-2.7c0-7-13.9-7-13.9-13.9c-0.1-0.9,0.1-1.9,0.4-2.7
				c0.3-0.9,0.8-1.7,1.5-2.3c0.7-0.7,1.5-1.2,2.3-1.5c0.9-0.3,1.8-0.5,2.7-0.4 M32.5,44.1v4.6 M32.5,16.3c1.8,0,3.6,0.7,4.9,2
				c1.3,1.3,2,3.1,2,4.9 M32.5,16.3v-4.6"/>
		</g>
	</g>
</g>
</svg>
