<?xml version="1.0" encoding="UTF-8"?><svg id="Layer_1" xmlns="http://www.w3.org/2000/svg" xmlns:xlink="http://www.w3.org/1999/xlink" viewBox="0 0 65 65"><defs><style>.cls-1{stroke:#fff;stroke-linecap:round;stroke-linejoin:round;stroke-width:6px;}.cls-1,.cls-2,.cls-3{fill:none;}.cls-3{clip-path:url(#clippath);}</style><clipPath id="clippath"><rect class="cls-2" width="65" height="65"/></clipPath></defs><g class="cls-3"><g id="streamline:interface-security-shield-3-shield-pay-product-secure-money-cash-currency-security-business"><g id="Group"><path id="Vector" class="cls-1" d="m60.36,32.22c-.04,4.83-1.42,9.56-3.99,13.66-2.56,4.1-6.21,7.4-10.54,9.56l-13.32,7.24-13.33-6.96c-4.37-2.17-8.05-5.52-10.62-9.67-2.57-4.15-3.92-8.94-3.92-13.82V6.97c0-1.23.49-2.41,1.36-3.28s2.05-1.36,3.28-1.36h46.43c1.23,0,2.41.49,3.28,1.36.87.87,1.36,2.05,1.36,3.28v25.26Z"/><path id="Vector_2" class="cls-1" d="m25.54,37.14c0,1.85.73,3.62,2.04,4.92,1.31,1.31,3.08,2.04,4.92,2.04m0,0c.93.07,1.87-.06,2.74-.39.88-.33,1.67-.84,2.33-1.5.66-.66,1.17-1.46,1.5-2.33.33-.88.46-1.81.39-2.75,0-6.96-13.93-6.96-13.93-13.93-.07-.93.06-1.87.39-2.75.33-.88.84-1.67,1.5-2.33.66-.66,1.46-1.17,2.33-1.5.88-.33,1.81-.46,2.75-.39m0,27.86v4.64m0-32.5c1.85,0,3.62.73,4.92,2.04,1.31,1.31,2.04,3.08,2.04,4.92m-6.96-6.96v-4.64"/></g></g></g></svg>