<svg width="40" height="40" viewBox="0 0 40 40" fill="none" xmlns="http://www.w3.org/2000/svg">
<g id="tabler:shopping-cart-discount">
<g id="Group">
<path id="Vector" d="M6.66699 31.6673C6.66699 32.5514 7.01818 33.3992 7.6433 34.0243C8.26842 34.6495 9.11627 35.0006 10.0003 35.0006C10.8844 35.0006 11.7322 34.6495 12.3573 34.0243C12.9825 33.3992 13.3337 32.5514 13.3337 31.6673C13.3337 30.7833 12.9825 29.9354 12.3573 29.3103C11.7322 28.6852 10.8844 28.334 10.0003 28.334C9.11627 28.334 8.26842 28.6852 7.6433 29.3103C7.01818 29.9354 6.66699 30.7833 6.66699 31.6673ZM25.0003 31.6673C25.0003 32.5514 25.3515 33.3992 25.9766 34.0243C26.6018 34.6495 27.4496 35.0006 28.3337 35.0006C29.2177 35.0006 30.0656 34.6495 30.6907 34.0243C31.3158 33.3992 31.667 32.5514 31.667 31.6673C31.667 30.7833 31.3158 29.9354 30.6907 29.3103C30.0656 28.6852 29.2177 28.334 28.3337 28.334C27.4496 28.334 26.6018 28.6852 25.9766 29.3103C25.3515 29.9354 25.0003 30.7833 25.0003 31.6673Z" stroke="white" stroke-width="3" stroke-linecap="round" stroke-linejoin="round"/>
<path id="Vector_2" d="M28.3337 28.3333H10.0003V5H6.66699" stroke="white" stroke-width="3" stroke-linecap="round" stroke-linejoin="round"/>
<path id="Vector_3" d="M33.3333 9.99935L31.6667 21.666H10M16.6667 16.666L26.6667 6.66602M16.6667 7.49935C16.6667 7.72036 16.7545 7.93232 16.9107 8.0886C17.067 8.24488 17.279 8.33268 17.5 8.33268C17.721 8.33268 17.933 8.24488 18.0893 8.0886C18.2455 7.93232 18.3333 7.72036 18.3333 7.49935C18.3333 7.27834 18.2455 7.06637 18.0893 6.91009C17.933 6.75381 17.721 6.66602 17.5 6.66602C17.279 6.66602 17.067 6.75381 16.9107 6.91009C16.7545 7.06637 16.6667 7.27834 16.6667 7.49935Z" stroke="white" stroke-width="3" stroke-linecap="round" stroke-linejoin="round"/>
<path id="Vector_4" d="M25 15.8333C25 16.0543 25.0878 16.2663 25.2441 16.4226C25.4004 16.5789 25.6123 16.6667 25.8333 16.6667C26.0543 16.6667 26.2663 16.5789 26.4226 16.4226C26.5789 16.2663 26.6667 16.0543 26.6667 15.8333C26.6667 15.6123 26.5789 15.4004 26.4226 15.2441C26.2663 15.0878 26.0543 15 25.8333 15C25.6123 15 25.4004 15.0878 25.2441 15.2441C25.0878 15.4004 25 15.6123 25 15.8333Z" stroke="white" stroke-width="3" stroke-linecap="round" stroke-linejoin="round"/>
</g>
</g>
</svg>
