<svg width="60" height="60" viewBox="0 0 60 60" fill="none" xmlns="http://www.w3.org/2000/svg">
<path d="M30 30C28.5166 30 27.0666 30.4399 25.8332 31.264C24.5999 32.0881 23.6386 33.2594 23.0709 34.6299C22.5032 36.0003 22.3547 37.5083 22.6441 38.9632C22.9335 40.418 23.6478 41.7544 24.6967 42.8033C25.7456 43.8522 27.082 44.5665 28.5368 44.8559C29.9917 45.1453 31.4997 44.9968 32.8701 44.4291C34.2406 43.8614 35.4119 42.9001 36.236 41.6668C37.0601 40.4334 37.5 38.9834 37.5 37.5C37.5 35.5109 36.7098 33.6032 35.3033 32.1967C33.8968 30.7902 31.9891 30 30 30ZM30 40C29.5055 40 29.0222 39.8534 28.6111 39.5787C28.2 39.304 27.8795 38.9135 27.6903 38.4567C27.5011 37.9999 27.4516 37.4972 27.548 37.0123C27.6445 36.5273 27.8826 36.0819 28.2322 35.7322C28.5819 35.3826 29.0273 35.1445 29.5123 35.048C29.9972 34.9516 30.4999 35.0011 30.9567 35.1903C31.4135 35.3795 31.804 35.7 32.0787 36.1111C32.3534 36.5222 32.5 37.0055 32.5 37.5C32.5 38.163 32.2366 38.7989 31.7678 39.2678C31.2989 39.7366 30.663 40 30 40ZM28.225 24.275C28.4628 24.5026 28.7431 24.681 29.05 24.8C29.3493 24.9323 29.6728 25.0006 30 25.0006C30.3272 25.0006 30.6507 24.9323 30.95 24.8C31.2569 24.681 31.5372 24.5026 31.775 24.275L37.5 18.65C37.984 18.166 38.2559 17.5095 38.2559 16.825C38.2559 16.1405 37.984 15.484 37.5 15C37.016 14.516 36.3595 14.2441 35.675 14.2441C34.9905 14.2441 34.334 14.516 33.85 15L32.5 16.475V7.5C32.5 6.83696 32.2366 6.20107 31.7678 5.73223C31.2989 5.26339 30.663 5 30 5C29.337 5 28.7011 5.26339 28.2322 5.73223C27.7634 6.20107 27.5 6.83696 27.5 7.5V16.475L26.15 15C25.666 14.516 25.0095 14.2441 24.325 14.2441C23.6405 14.2441 22.984 14.516 22.5 15C22.016 15.484 21.7441 16.1405 21.7441 16.825C21.7441 17.5095 22.016 18.166 22.5 18.65L28.225 24.275ZM47.5 37.5C47.5 37.0055 47.3534 36.5222 47.0787 36.1111C46.804 35.7 46.4135 35.3795 45.9567 35.1903C45.4999 35.0011 44.9972 34.9516 44.5123 35.048C44.0273 35.1445 43.5819 35.3826 43.2322 35.7322C42.8826 36.0819 42.6445 36.5273 42.548 37.0123C42.4516 37.4972 42.5011 37.9999 42.6903 38.4567C42.8795 38.9135 43.2 39.304 43.6111 39.5787C44.0222 39.8534 44.5055 40 45 40C45.663 40 46.2989 39.7366 46.7678 39.2678C47.2366 38.7989 47.5 38.163 47.5 37.5ZM50 20H42.5C41.837 20 41.2011 20.2634 40.7322 20.7322C40.2634 21.2011 40 21.837 40 22.5C40 23.163 40.2634 23.7989 40.7322 24.2678C41.2011 24.7366 41.837 25 42.5 25H50C50.663 25 51.2989 25.2634 51.7678 25.7322C52.2366 26.2011 52.5 26.837 52.5 27.5V47.5C52.5 48.163 52.2366 48.7989 51.7678 49.2678C51.2989 49.7366 50.663 50 50 50H10C9.33696 50 8.70107 49.7366 8.23223 49.2678C7.76339 48.7989 7.5 48.163 7.5 47.5V27.5C7.5 26.837 7.76339 26.2011 8.23223 25.7322C8.70107 25.2634 9.33696 25 10 25H17.5C18.163 25 18.7989 24.7366 19.2678 24.2678C19.7366 23.7989 20 23.163 20 22.5C20 21.837 19.7366 21.2011 19.2678 20.7322C18.7989 20.2634 18.163 20 17.5 20H10C8.01088 20 6.10322 20.7902 4.6967 22.1967C3.29018 23.6032 2.5 25.5109 2.5 27.5V47.5C2.5 49.4891 3.29018 51.3968 4.6967 52.8033C6.10322 54.2098 8.01088 55 10 55H50C51.9891 55 53.8968 54.2098 55.3033 52.8033C56.7098 51.3968 57.5 49.4891 57.5 47.5V27.5C57.5 25.5109 56.7098 23.6032 55.3033 22.1967C53.8968 20.7902 51.9891 20 50 20ZM12.5 37.5C12.5 37.9945 12.6466 38.4778 12.9213 38.8889C13.196 39.3 13.5865 39.6205 14.0433 39.8097C14.5001 39.9989 15.0028 40.0484 15.4877 39.952C15.9727 39.8555 16.4181 39.6174 16.7678 39.2678C17.1174 38.9181 17.3555 38.4727 17.452 37.9877C17.5484 37.5028 17.4989 37.0001 17.3097 36.5433C17.1205 36.0865 16.8 35.696 16.3889 35.4213C15.9778 35.1466 15.4945 35 15 35C14.337 35 13.7011 35.2634 13.2322 35.7322C12.7634 36.2011 12.5 36.837 12.5 37.5Z" fill="url(#paint0_linear_1_196507)"/>
<defs>
<linearGradient id="paint0_linear_1_196507" x1="58" y1="19" x2="3" y2="55" gradientUnits="userSpaceOnUse">
<stop stop-color="#2C50EE"/>
<stop offset="1" stop-color="#6470FF"/>
</linearGradient>
</defs>
</svg>
