<svg width="60" height="60" viewBox="0 0 60 60" fill="none" xmlns="http://www.w3.org/2000/svg">
<path d="M44 42H50V36M44 18H50V24M16 18H10V24M10 36V42H16M30 38C27.8783 38 25.8434 37.1571 24.3431 35.6569C22.8429 34.1566 22 32.1217 22 30C22 27.8783 22.8429 25.8434 24.3431 24.3431C25.8434 22.8429 27.8783 22 30 22C32.1217 22 34.1566 22.8429 35.6569 24.3431C37.1571 25.8434 38 27.8783 38 30C38 32.1217 37.1571 34.1566 35.6569 35.6569C34.1566 37.1571 32.1217 38 30 38ZM6 10H54C55.0609 10 56.0783 10.4214 56.8284 11.1716C57.5786 11.9217 58 12.9391 58 14V46C58 47.0609 57.5786 48.0783 56.8284 48.8284C56.0783 49.5786 55.0609 50 54 50H6C4.93913 50 3.92172 49.5786 3.17157 48.8284C2.42143 48.0783 2 47.0609 2 46V14C2 12.9391 2.42143 11.9217 3.17157 11.1716C3.92172 10.4214 4.93913 10 6 10Z" stroke="url(#paint0_linear_1_196503)" stroke-width="3"/>
<defs>
<linearGradient id="paint0_linear_1_196503" x1="58" y1="17.5" x2="2" y2="50" gradientUnits="userSpaceOnUse">
<stop stop-color="#2C50EE"/>
<stop offset="1" stop-color="#6470FF"/>
</linearGradient>
</defs>
</svg>
