<svg width="48" height="48" viewBox="0 0 48 48" fill="none" xmlns="http://www.w3.org/2000/svg">
<path d="M24 18C25.1 18 26 17.1 26 16V12H30C31.1 12 32 11.1 32 10C32 8.9 31.1 8 30 8H26V4C26 2.9 25.1 2 24 2C22.9 2 22 2.9 22 4V8H18C16.9 8 16 8.9 16 10C16 11.1 16.9 12 18 12H22V16C22 17.1 22.9 18 24 18ZM14 36C11.8 36 10.02 37.8 10.02 40C10.02 42.2 11.8 44 14 44C16.2 44 18 42.2 18 40C18 37.8 16.2 36 14 36ZM34 36C31.8 36 30.02 37.8 30.02 40C30.02 42.2 31.8 44 34 44C36.2 44 38 42.2 38 40C38 37.8 36.2 36 34 36ZM16.2 26H31.1C32.6 26 33.92 25.18 34.6 23.94L41.08 11.66C41.3244 11.1976 41.3775 10.6577 41.2279 10.1565C41.0783 9.65525 40.7379 9.23281 40.28 8.98C40.0481 8.85297 39.7932 8.77339 39.5302 8.7459C39.2672 8.71842 39.0013 8.74357 38.7481 8.8199C38.4949 8.89622 38.2595 9.0222 38.0555 9.19047C37.8515 9.35874 37.6831 9.56595 37.56 9.8L31.1 22H17.06L8.54 4H4C2.9 4 2 4.9 2 6C2 7.1 2.9 8 4 8H6L13.2 23.18L10.5 28.06C9.04 30.74 10.96 34 14 34H36C37.1 34 38 33.1 38 32C38 30.9 37.1 30 36 30H14L16.2 26Z" fill="#2C50EE"/>
</svg>
