<svg width="60" height="60" viewBox="0 0 60 60" fill="none" xmlns="http://www.w3.org/2000/svg">
<path d="M24 30C24 28.4087 24.6321 26.8826 25.7574 25.7574C26.8826 24.6321 28.4087 24 30 24C31.5913 24 33.1174 24.6321 34.2426 25.7574C35.3679 26.8826 36 28.4087 36 30C36 31.5913 35.3679 33.1174 34.2426 34.2426C33.1174 35.3679 31.5913 36 30 36C28.4087 36 26.8826 35.3679 25.7574 34.2426C24.6321 33.1174 24 31.5913 24 30Z" fill="url(#paint0_linear_1_196500)"/>
<path fill-rule="evenodd" clip-rule="evenodd" d="M0 14C0 12.4087 0.632141 10.8826 1.75736 9.75736C2.88258 8.63214 4.4087 8 6 8H54C55.5913 8 57.1174 8.63214 58.2426 9.75736C59.3679 10.8826 60 12.4087 60 14V46C60 47.5913 59.3679 49.1174 58.2426 50.2427C57.1174 51.3679 55.5913 52 54 52H6C4.4087 52 2.88258 51.3679 1.75736 50.2427C0.632141 49.1174 0 47.5913 0 46L0 14ZM16 16H8V24H12V20H16V16ZM48 20H44V16H52V24H48V20ZM30 20C27.3478 20 24.8043 21.0536 22.9289 22.9289C21.0536 24.8043 20 27.3478 20 30C20 32.6522 21.0536 35.1957 22.9289 37.0711C24.8043 38.9464 27.3478 40 30 40C32.6522 40 35.1957 38.9464 37.0711 37.0711C38.9464 35.1957 40 32.6522 40 30C40 27.3478 38.9464 24.8043 37.0711 22.9289C35.1957 21.0536 32.6522 20 30 20ZM44 40V44H52V36H48V40H44ZM8 36H12V40H16V44H8V36Z" fill="url(#paint1_linear_1_196500)"/>
<defs>
<linearGradient id="paint0_linear_1_196500" x1="36" y1="26.4" x2="23.4" y2="34.2" gradientUnits="userSpaceOnUse">
<stop stop-color="#2C50EE"/>
<stop offset="1" stop-color="#6470FF"/>
</linearGradient>
<linearGradient id="paint1_linear_1_196500" x1="60" y1="12" x2="3.6" y2="51.6" gradientUnits="userSpaceOnUse">
<stop stop-color="#2C50EE"/>
<stop offset="1" stop-color="#6470FF"/>
</linearGradient>
</defs>
</svg>
