<svg width="56" height="56" viewBox="0 0 56 56" fill="none" xmlns="http://www.w3.org/2000/svg">
<g id="solar:money-bag-bold">
<path id="Vector" fill-rule="evenodd" clip-rule="evenodd" d="M28.1217 2.9165H27.879C25.7813 2.9165 24.0337 2.9165 22.6477 3.10317C21.1823 3.29917 19.8593 3.73317 18.7977 4.79484C17.7337 5.85884 17.2997 7.18184 17.1037 8.64484C16.9707 9.64117 16.931 12.0188 16.9217 14.0582C12.2037 14.2145 9.36866 14.7652 7.40166 16.7345C4.66699 19.4668 4.66699 23.8675 4.66699 32.6665C4.66699 41.4655 4.66699 45.8662 7.40166 48.5985C10.134 51.3332 14.5347 51.3332 23.3337 51.3332H32.667C41.466 51.3332 45.8666 51.3332 48.599 48.5985C51.3336 45.8662 51.3336 41.4655 51.3336 32.6665C51.3336 23.8675 51.3336 19.4668 48.599 16.7345C46.632 14.7652 43.797 14.2145 39.079 14.0605C39.0696 12.0188 39.0323 9.64117 38.897 8.64717C38.701 7.18184 38.267 5.85884 37.203 4.79717C36.1413 3.73317 34.8183 3.29917 33.353 3.10317C31.967 2.9165 30.217 2.9165 28.1217 2.9165ZM35.579 14.0045C35.5673 12.0282 35.5346 9.9025 35.4296 9.1115C35.2826 8.03584 35.033 7.57384 34.7296 7.2705C34.4263 6.96717 33.9643 6.7175 32.8863 6.5705C31.7617 6.42117 30.2497 6.4165 28.0003 6.4165C25.751 6.4165 24.239 6.42117 23.112 6.57284C22.0363 6.7175 21.5743 6.96717 21.271 7.27284C20.9677 7.57617 20.718 8.03584 20.571 9.1115C20.466 9.90484 20.431 12.0282 20.4217 14.0045C21.334 13.9998 22.307 13.9998 23.3337 13.9998H32.667C33.696 13.9998 34.6666 13.9998 35.579 14.0045ZM28.0003 21.5832C28.4644 21.5832 28.9096 21.7675 29.2378 22.0957C29.5659 22.4239 29.7503 22.869 29.7503 23.3332V23.3565C32.2913 23.9958 34.417 26.0002 34.417 28.7768C34.417 29.241 34.2326 29.6861 33.9044 30.0143C33.5762 30.3425 33.1311 30.5268 32.667 30.5268C32.2029 30.5268 31.7577 30.3425 31.4295 30.0143C31.1014 29.6861 30.917 29.241 30.917 28.7768C30.917 27.8808 29.923 26.6395 28.0003 26.6395C26.0777 26.6395 25.0837 27.8808 25.0837 28.7768C25.0837 29.6728 26.0777 30.9165 28.0003 30.9165C31.232 30.9165 34.417 33.1565 34.417 36.5562C34.417 39.3328 32.2913 41.3348 29.7503 41.9765V41.9998C29.7503 42.464 29.5659 42.9091 29.2378 43.2373C28.9096 43.5655 28.4644 43.7498 28.0003 43.7498C27.5362 43.7498 27.0911 43.5655 26.7629 43.2373C26.4347 42.9091 26.2503 42.464 26.2503 41.9998V41.9765C23.7093 41.3372 21.5837 39.3328 21.5837 36.5562C21.5837 36.092 21.768 35.6469 22.0962 35.3187C22.4244 34.9905 22.8695 34.8062 23.3337 34.8062C23.7978 34.8062 24.2429 34.9905 24.5711 35.3187C24.8993 35.6469 25.0837 36.092 25.0837 36.5562C25.0837 37.4522 26.0777 38.6935 28.0003 38.6935C29.923 38.6935 30.917 37.4522 30.917 36.5562C30.917 35.6602 29.923 34.4165 28.0003 34.4165C24.7687 34.4165 21.5837 32.1765 21.5837 28.7768C21.5837 26.0002 23.7093 23.9958 26.2503 23.3565V23.3332C26.2503 22.869 26.4347 22.4239 26.7629 22.0957C27.0911 21.7675 27.5362 21.5832 28.0003 21.5832Z" fill="url(#paint0_linear_1_198369)"/>
</g>
<defs>
<linearGradient id="paint0_linear_1_198369" x1="51.1731" y1="17.3791" x2="4.82823" y2="47.3101" gradientUnits="userSpaceOnUse">
<stop stop-color="#3153EF"/>
<stop offset="1" stop-color="#606EFE"/>
</linearGradient>
</defs>
</svg>
