<svg width="26" height="26" viewBox="0 0 26 26" fill="none" xmlns="http://www.w3.org/2000/svg">
<path fill-rule="evenodd" clip-rule="evenodd" d="M13.0217 3.25C10.575 3.25 8.34554 4.05817 7.02658 4.71846C6.90741 4.77804 6.79637 4.83654 6.69291 4.89287C6.48816 5.00446 6.31375 5.10846 6.17508 5.2L7.6755 7.40892L8.38183 7.69004C11.1422 9.08267 14.8439 9.08267 17.6048 7.69004L18.4065 7.27404L19.8256 5.2C19.5316 5.00825 19.2259 4.83511 18.9102 4.68162C17.5983 4.02837 15.4224 3.25 13.0217 3.25ZM9.53179 5.75033C9.00048 5.65091 8.47572 5.51922 7.96041 5.356C9.19596 4.80729 11.0376 4.225 13.0212 4.225C14.3954 4.225 15.6949 4.5045 16.7695 4.85875C15.5102 5.03587 14.1663 5.3365 12.8858 5.70646C11.8783 5.99787 10.7007 5.96646 9.53179 5.75033ZM18.1768 8.49333L18.0441 8.5605C15.007 10.0923 10.9791 10.0923 7.942 8.5605L7.81633 8.49658C3.25441 13.5021 -0.228501 22.7484 13.0217 22.7484C26.2709 22.7484 22.703 13.3293 18.1768 8.49333ZM12.4584 13C12.1711 13 11.8955 13.1141 11.6924 13.3173C11.4892 13.5205 11.3751 13.796 11.3751 14.0833C11.3751 14.3707 11.4892 14.6462 11.6924 14.8494C11.8955 15.0525 12.1711 15.1667 12.4584 15.1667V13ZM13.5417 11.9167V11.375H12.4584V11.9167C11.8838 11.9167 11.3327 12.1449 10.9264 12.5513C10.52 12.9576 10.2917 13.5087 10.2917 14.0833C10.2917 14.658 10.52 15.2091 10.9264 15.6154C11.3327 16.0217 11.8838 16.25 12.4584 16.25V18.4167C12.2344 18.4167 12.0158 18.3473 11.8329 18.218C11.6499 18.0887 11.5115 17.9058 11.4368 17.6946C11.389 17.5592 11.2893 17.4482 11.1597 17.3863C11.0301 17.3243 10.8811 17.3164 10.7457 17.3642C10.6102 17.412 10.4993 17.5117 10.4373 17.6414C10.3753 17.771 10.3674 17.9199 10.4152 18.0554C10.5647 18.4779 10.8414 18.8436 11.2073 19.1024C11.5732 19.3611 12.0103 19.5 12.4584 19.5V20.0417H13.5417V19.5C14.1164 19.5 14.6675 19.2717 15.0738 18.8654C15.4801 18.4591 15.7084 17.908 15.7084 17.3333C15.7084 16.7587 15.4801 16.2076 15.0738 15.8013C14.6675 15.3949 14.1164 15.1667 13.5417 15.1667V13C14.013 13 14.4144 13.3006 14.5639 13.722C14.5861 13.791 14.6218 13.8548 14.6691 13.9097C14.7164 13.9645 14.7742 14.0094 14.8391 14.0415C14.904 14.0737 14.9746 14.0925 15.0469 14.0968C15.1192 14.1012 15.1917 14.091 15.26 14.0669C15.3282 14.0428 15.391 14.0052 15.4445 13.9564C15.498 13.9076 15.5412 13.8485 15.5715 13.7827C15.6018 13.717 15.6186 13.6458 15.6209 13.5734C15.6232 13.501 15.611 13.4289 15.5849 13.3613C15.4355 12.9388 15.1588 12.573 14.7929 12.3143C14.427 12.0556 13.9899 11.9167 13.5417 11.9167ZM13.5417 16.25V18.4167C13.8291 18.4167 14.1046 18.3025 14.3078 18.0994C14.5109 17.8962 14.6251 17.6207 14.6251 17.3333C14.6251 17.046 14.5109 16.7705 14.3078 16.5673C14.1046 16.3641 13.8291 16.25 13.5417 16.25Z" fill="#2C50EE"/>
</svg>
