<svg width="27" height="27" viewBox="0 0 27 27" fill="none" xmlns="http://www.w3.org/2000/svg">
<path d="M20.6718 14.7656C20.6718 15.0994 20.5728 15.4256 20.3874 15.7032C20.202 15.9807 19.9384 16.1969 19.6301 16.3247C19.3217 16.4524 18.9824 16.4858 18.6551 16.4207C18.3277 16.3556 18.0271 16.1949 17.7911 15.9589C17.5551 15.7229 17.3943 15.4222 17.3292 15.0948C17.2641 14.7675 17.2975 14.4282 17.4253 14.1198C17.553 13.8115 17.7693 13.5479 18.0468 13.3625C18.3243 13.1771 18.6505 13.0781 18.9843 13.0781C19.4319 13.0781 19.8611 13.2559 20.1775 13.5724C20.494 13.8889 20.6718 14.3181 20.6718 14.7656ZM24.8906 11.3906V19.8281C24.8906 20.7232 24.535 21.5817 23.902 22.2146C23.2691 22.8475 22.4107 23.2031 21.5156 23.2031H6.32806C5.43295 23.2031 4.5745 22.8475 3.94157 22.2146C3.30863 21.5817 2.95306 20.7232 2.95306 19.8281V7.26891C2.94007 6.8176 3.01778 6.36827 3.18157 5.94753C3.34536 5.52679 3.5919 5.14319 3.9066 4.81945C4.2213 4.4957 4.59776 4.23838 5.01369 4.06274C5.42962 3.88709 5.87656 3.79669 6.32806 3.79688H20.2499C20.5856 3.79688 20.9075 3.93022 21.1449 4.16757C21.3822 4.40492 21.5156 4.72684 21.5156 5.0625C21.5156 5.39816 21.3822 5.72008 21.1449 5.95743C20.9075 6.19478 20.5856 6.32813 20.2499 6.32813H6.32806C6.21491 6.32807 6.1029 6.35076 5.9987 6.39487C5.89451 6.43898 5.80024 6.50359 5.72153 6.58487C5.64281 6.66615 5.58124 6.76243 5.54049 6.86798C5.49973 6.97354 5.48063 7.08621 5.48431 7.1993V7.20773C5.50203 7.43114 5.60455 7.63929 5.77085 7.78952C5.93716 7.93974 6.15463 8.02064 6.37868 8.01563H21.5156C22.4107 8.01563 23.2691 8.3712 23.902 9.00414C24.535 9.63708 24.8906 10.4955 24.8906 11.3906ZM22.3593 11.3906C22.3593 11.1668 22.2704 10.9522 22.1122 10.794C21.9539 10.6358 21.7393 10.5469 21.5156 10.5469H6.37868C6.07693 10.547 5.77639 10.5087 5.48431 10.433V19.8281C5.48431 20.0519 5.5732 20.2665 5.73143 20.4247C5.88967 20.583 6.10428 20.6719 6.32806 20.6719H21.5156C21.7393 20.6719 21.9539 20.583 22.1122 20.4247C22.2704 20.2665 22.3593 20.0519 22.3593 19.8281V11.3906Z" fill="white"/>
</svg>
