<svg width="14" height="14" viewBox="0 0 14 14" fill="none" xmlns="http://www.w3.org/2000/svg">
<g id="ant-design:whats-app-outlined" clip-path="url(#clip0_1_199112)">
<path id="Vector" d="M9.75498 8.20176C9.60596 8.1252 8.86357 7.76152 8.72549 7.71231C8.5874 7.66035 8.48623 7.63574 8.38643 7.78887C8.28525 7.94063 7.99814 8.27832 7.90791 8.38086C7.82041 8.48203 7.73154 8.49434 7.58252 8.41914C6.69658 7.97617 6.11553 7.62891 5.53174 6.62676C5.37725 6.36016 5.68623 6.3793 5.97471 5.80371C6.02393 5.70254 5.99932 5.61641 5.96103 5.53984C5.92275 5.46328 5.62197 4.72227 5.49619 4.42012C5.37451 4.12617 5.24873 4.16719 5.15713 4.16172C5.06963 4.15625 4.96982 4.15625 4.86865 4.15625C4.76748 4.15625 4.60479 4.19453 4.4667 4.34355C4.32861 4.49531 3.93896 4.86035 3.93896 5.60137C3.93896 6.34238 4.479 7.06016 4.55283 7.16133C4.62939 7.2625 5.61514 8.78281 7.12861 9.4377C8.08564 9.85059 8.46025 9.88613 8.93877 9.81504C9.22998 9.77129 9.83017 9.45137 9.95459 9.09727C10.079 8.74453 10.079 8.44238 10.0421 8.37949C10.0052 8.3125 9.904 8.27422 9.75498 8.20176Z" fill="white"/>
<path id="Vector_2" d="M12.6493 4.62656C12.3403 3.89238 11.8973 3.2334 11.3327 2.66738C10.768 2.10273 10.1091 1.6584 9.37352 1.35078C8.62156 1.03496 7.82312 0.875 7.00008 0.875H6.97273C6.14422 0.879102 5.34168 1.04316 4.58699 1.36582C3.85828 1.67754 3.20477 2.12051 2.64559 2.68516C2.08641 3.2498 1.64754 3.90605 1.34402 4.6375C1.02957 5.39492 0.870976 6.20019 0.875078 7.02871C0.879179 7.97754 1.10613 8.91953 1.53133 9.76172V11.8398C1.53133 12.1871 1.81297 12.4688 2.16023 12.4688H4.23973C5.08191 12.8939 6.02391 13.1209 6.97273 13.125H7.00144C7.82039 13.125 8.61473 12.9664 9.36258 12.6561C10.094 12.3512 10.7516 11.9137 11.3149 11.3545C11.8796 10.7953 12.3239 10.1418 12.6343 9.41309C12.9569 8.6584 13.121 7.85586 13.1251 7.02734C13.1292 6.19473 12.9679 5.38672 12.6493 4.62656ZM10.5835 10.6148C9.62508 11.5637 8.35359 12.0859 7.00008 12.0859H6.97684C6.15242 12.0818 5.33348 11.8768 4.61023 11.4912L4.49539 11.4297H2.57039V9.50469L2.50887 9.38984C2.12332 8.6666 1.91824 7.84766 1.91414 7.02324C1.90867 5.66016 2.42957 4.38047 3.38523 3.4166C4.33953 2.45273 5.61512 1.91953 6.9782 1.91406H7.00144C7.68504 1.91406 8.34812 2.04668 8.97293 2.30918C9.5827 2.56484 10.1296 2.93262 10.5999 3.40293C11.0688 3.87187 11.438 4.42012 11.6936 5.02988C11.9589 5.66152 12.0915 6.33145 12.0887 7.02324C12.0805 8.38496 11.546 9.66055 10.5835 10.6148Z" fill="white"/>
</g>
<defs>
<clipPath id="clip0_1_199112">
<rect width="14" height="14" fill="white"/>
</clipPath>
</defs>
</svg>
