<svg width="58" height="63" viewBox="0 0 58 63" fill="none" xmlns="http://www.w3.org/2000/svg">
<g id="Group 194">
<circle id="Ellipse 32" cx="6" cy="57" r="6" transform="rotate(-90 6 57)" fill="white" fill-opacity="0.3"/>
<circle id="Ellipse 33" cx="6" cy="40" r="6" transform="rotate(-90 6 40)" fill="white" fill-opacity="0.3"/>
<circle id="Ellipse 36" cx="22" cy="40" r="6" transform="rotate(-90 22 40)" fill="white" fill-opacity="0.3"/>
<circle id="Ellipse 37" cx="22" cy="23" r="6" transform="rotate(-90 22 23)" fill="white" fill-opacity="0.3"/>
<circle id="Ellipse 39" cx="37" cy="23" r="6" transform="rotate(-90 37 23)" fill="white" fill-opacity="0.3"/>
<circle id="Ellipse 38" cx="22" cy="6" r="6" transform="rotate(-90 22 6)" fill="white" fill-opacity="0.3"/>
<circle id="Ellipse 40" cx="37" cy="6" r="6" transform="rotate(-90 37 6)" fill="white" fill-opacity="0.3"/>
<circle id="Ellipse 41" cx="52" cy="6" r="6" transform="rotate(-90 52 6)" fill="white" fill-opacity="0.3"/>
<circle id="Ellipse 34" cx="6" cy="23" r="6" transform="rotate(-90 6 23)" fill="white" fill-opacity="0.3"/>
<circle id="Ellipse 35" cx="6" cy="6" r="6" transform="rotate(-90 6 6)" fill="white" fill-opacity="0.3"/>
</g>
</svg>
