<svg width="65" height="65" viewBox="0 0 65 65" fill="none" xmlns="http://www.w3.org/2000/svg">
<g id="basil:award-outline">
<g id="Group">
<path id="Vector" fill-rule="evenodd" clip-rule="evenodd" d="M32.5003 16.9277C30.1659 16.9277 27.927 17.8551 26.2763 19.5058C24.6256 21.1565 23.6982 23.3954 23.6982 25.7298C23.6982 28.0643 24.6256 30.3031 26.2763 31.9538C27.927 33.6045 30.1659 34.5319 32.5003 34.5319C34.8348 34.5319 37.0736 33.6045 38.7243 31.9538C40.375 30.3031 41.3024 28.0643 41.3024 25.7298C41.3024 23.3954 40.375 21.1565 38.7243 19.5058C37.0736 17.8551 34.8348 16.9277 32.5003 16.9277ZM27.7607 25.7298C27.7607 24.4728 28.2601 23.2673 29.1489 22.3784C30.0378 21.4896 31.2433 20.9902 32.5003 20.9902C33.7573 20.9902 34.9629 21.4896 35.8517 22.3784C36.7406 23.2673 37.2399 24.4728 37.2399 25.7298C37.2399 26.9868 36.7406 28.1924 35.8517 29.0812C34.9629 29.9701 33.7573 30.4694 32.5003 30.4694C31.2433 30.4694 30.0378 29.9701 29.1489 29.0812C28.2601 28.1924 27.7607 26.9868 27.7607 25.7298Z" fill="#096FF1"/>
<path id="Vector_2" fill-rule="evenodd" clip-rule="evenodd" d="M32.5001 6.09375C28.9586 6.09351 25.4829 7.05112 22.4412 8.86517C19.3995 10.6792 16.9051 13.2821 15.2221 16.3983C13.5391 19.5144 12.7303 23.0277 12.8812 26.566C13.0322 30.1044 14.1373 33.536 16.0795 36.4975L9.07305 48.6308C8.87855 48.9687 8.78541 49.3555 8.80475 49.7449C8.82408 50.1343 8.95509 50.5099 9.18211 50.8269C9.40913 51.1438 9.72259 51.3888 10.085 51.5324C10.4475 51.6761 10.8436 51.7124 11.2262 51.6371L18.3058 50.245L20.6376 57.07C20.7633 57.4397 20.9929 57.7654 21.2989 58.008C21.605 58.2507 21.9745 58.3999 22.3631 58.4379C22.7518 58.4759 23.1432 58.4011 23.4905 58.2224C23.8377 58.0436 24.126 57.7686 24.321 57.4302L31.3085 45.3293C32.1022 45.3772 32.8981 45.3772 33.6918 45.3293L40.6793 57.4302C40.8745 57.7685 41.163 58.0434 41.5104 58.2219C41.8578 58.4005 42.2493 58.4751 42.638 58.4368C43.0267 58.3985 43.3962 58.2489 43.702 58.006C44.0079 57.7631 44.2373 57.4372 44.3626 57.0673L46.6864 50.226L53.7714 51.6343C54.1541 51.7104 54.5507 51.6745 54.9136 51.5311C55.2765 51.3877 55.5904 51.1428 55.8178 50.8257C56.0452 50.5086 56.1765 50.1327 56.1959 49.743C56.2153 49.3533 56.122 48.9662 55.9272 48.6281L48.9235 36.4975C50.8659 33.5358 51.971 30.1039 52.1218 26.5653C52.2726 23.0268 51.4636 19.5133 49.7803 16.3971C48.097 13.2809 45.6021 10.678 42.5601 8.86413C39.518 7.05028 36.0419 6.09302 32.5001 6.09375ZM16.9272 25.7292C16.9272 21.599 18.5679 17.6379 21.4884 14.7174C24.4089 11.797 28.37 10.1562 32.5001 10.1562C36.6303 10.1562 40.5914 11.797 43.5119 14.7174C46.4324 17.6379 48.0731 21.599 48.0731 25.7292C48.0731 29.8593 46.4324 33.8204 43.5119 36.7409C40.5914 39.6613 36.6303 41.3021 32.5001 41.3021C28.37 41.3021 24.4089 39.6613 21.4884 36.7409C18.5679 33.8204 16.9272 29.8593 16.9272 25.7292ZM27.0401 44.5954C23.9595 43.7032 21.1446 42.0694 18.842 39.8368L14.8283 46.7891L19.2618 45.9171C19.7436 45.8225 20.2433 45.9056 20.6685 46.1511C21.0938 46.3966 21.4157 46.7878 21.5747 47.2523L23.0372 51.5287L27.0401 44.5954ZM41.9576 51.5179L37.9601 44.5954C41.0407 43.7031 43.8556 42.0693 46.1583 39.8368L50.1666 46.7783L45.7304 45.8954C45.2471 45.7997 44.7455 45.8829 44.319 46.1295C43.8925 46.3762 43.5701 46.7694 43.412 47.236L41.9576 51.5179Z" fill="#096FF1"/>
</g>
</g>
</svg>
