<?xml version="1.0" encoding="UTF-8"?><svg id="Layer_4" xmlns="http://www.w3.org/2000/svg" viewBox="0 0 30 30"><defs><style>.cls-1{fill:#fff;}</style></defs><path class="cls-1" d="m20.14,28.18c-.33,0-.66-.13-.91-.38l-3.21-3.21c-.5-.5-.5-1.32,0-1.82l3.21-3.21c.5-.5,1.32-.5,1.82,0s.5,1.32,0,1.82l-2.31,2.31,2.31,2.31c.5.5.5,1.32,0,1.82-.25.25-.58.38-.91.38Zm-6.43-.64H4.07c-.69,0-1.33-.27-1.82-.75-.48-.48-.75-1.14-.75-1.82V4.39c0-.69.27-1.33.75-1.82.49-.49,1.13-.75,1.82-.75h7.71c.38,0,.74.17.99.46l2.83,3.39h10.33c.69,0,1.33.27,1.82.75.49.49.75,1.13.75,1.82v5.79c0,.71-.58,1.29-1.29,1.29s-1.29-.58-1.29-1.29v-5.79h-10.93c-.38,0-.74-.17-.99-.46l-2.83-3.39h-7.11v20.57h9.64c.71,0,1.29.58,1.29,1.29s-.58,1.29-1.29,1.29Z"/><path class="cls-1" d="m27.21,24.96h-10.29c-.71,0-1.29-.58-1.29-1.29s.58-1.29,1.29-1.29h9v-3.86c0-.71.58-1.29,1.29-1.29s1.29.58,1.29,1.29v5.14c0,.71-.58,1.29-1.29,1.29Z"/></svg>