<?xml version="1.0" encoding="UTF-8"?><svg id="Layer_1" xmlns="http://www.w3.org/2000/svg" width="24" height="24" viewBox="0 0 24 24"><defs><style>.cls-1{fill:#ed1b2e;stroke-width:0px;}</style></defs><path class="cls-1" d="m23.38,7.62c-.06.31-.1.62-.17.92-.63,2.62-2.66,4.52-5.3,4.94-.83.13-1.67.11-2.49-.11-.18-.05-.29,0-.43.12-3,3-6,6-8.99,9.01-.55.56-1.18.95-1.98,1.05-.02,0-.04.02-.06.03h-.72c-.43-.15-.9-.25-1.29-.47-1.7-.99-2.05-3.33-.73-4.8.09-.11.19-.21.29-.31,3-3,6-6,9-9,.12-.12.16-.22.12-.39-.85-3.45,1.29-6.97,4.74-7.8,1.29-.31,2.56-.23,3.81.23.59.22.72.77.27,1.22-1.09,1.09-2.17,2.18-3.27,3.26-.12.12-.16.22-.12.39.12.49.22.99.32,1.49.03.12.08.19.21.21.5.1,1.01.21,1.51.33.15.04.24,0,.35-.11,1.06-1.07,2.12-2.13,3.18-3.19.05-.05.1-.11.16-.16.4-.35.96-.24,1.12.27.17.52.27,1.07.4,1.6.02.06.03.13.05.19v1.08Zm-5.65-5.56c-.08-.02-.13-.04-.19-.04-.53.01-1.07-.03-1.58.06-2.98.54-4.82,3.62-3.92,6.51.14.44.06.76-.27,1.08-3.1,3.09-6.2,6.19-9.29,9.29-.11.11-.22.23-.31.35-.75.93-.32,2.43.82,2.8.79.26,1.45.05,2.02-.53,3.1-3.1,6.21-6.2,9.3-9.31.35-.35.68-.46,1.16-.29.74.26,1.51.29,2.28.15,2.31-.43,3.89-2.06,4.24-4.38.07-.48.06-.96-.03-1.47-.08.08-.14.13-.2.19-.88.88-1.77,1.76-2.65,2.65-.24.24-.51.31-.83.24-.81-.18-1.62-.35-2.43-.52-.37-.08-.59-.29-.66-.66-.16-.8-.33-1.59-.51-2.39-.08-.36,0-.65.26-.91.88-.86,1.75-1.74,2.62-2.61.06-.06.11-.12.18-.19Z"/></svg>